M48
; DRILL file {KiCad (5.1.9)-1} date 03/13/21 10:24:37
; FORMAT={3:3/ absolute / metric / suppress leading zeros}
; #@! TF.CreationDate,2021-03-13T10:24:37-05:00
; #@! TF.GenerationSoftware,Kicad,Pcbnew,(5.1.9)-1
FMAT,2
METRIC,TZ
T1C0.330
T2C0.762
T3C0.800
T4C1.000
T5C1.020
%
G90
G05
T1
X80518Y-107696
X82296Y-111252
X82550Y-112649
X84836Y-107696
X87376Y-111252
X88392Y-112522
X90551Y-95631
X92837Y-94488
X93345Y-100330
X95631Y-94234
X96520Y-75565
X97155Y-86995
X97155Y-88265
X97155Y-89535
X97155Y-90805
X97635Y-93190
X99568Y-92964
X100330Y-107696
X102870Y-95250
X103251Y-93726
X104902Y-107696
X105664Y-93726
X106680Y-95250
X106680Y-101600
X110490Y-85725
X110490Y-86995
X110490Y-88265
X110490Y-89535
X110490Y-90805
X110490Y-101600
X111633Y-113665
X121920Y-80645
X126365Y-93980
X127635Y-111760
X128270Y-104140
X140970Y-93980
X142875Y-111760
X143510Y-104140
X156845Y-93980
X158115Y-111760
X158750Y-104140
X171450Y-93980
X173990Y-103505
X173990Y-111760
X202565Y-76200
T2
X186455Y-83650
X186455Y-94150
X204705Y-83650
X204705Y-94150
T3
X116840Y-106680
X116840Y-109220
X116840Y-111760
X116840Y-114300
X124460Y-106680
X124460Y-109220
X124460Y-111760
X124460Y-114300
X132080Y-106680
X132080Y-109220
X132080Y-111760
X132080Y-114300
X139700Y-106680
X139700Y-109220
X139700Y-111760
X139700Y-114300
X147320Y-106680
X147320Y-109220
X147320Y-111760
X147320Y-114300
X154940Y-106680
X154940Y-109220
X154940Y-111760
X154940Y-114300
X162560Y-106680
X162560Y-109220
X162560Y-111760
X162560Y-114300
X170180Y-106680
X170180Y-109220
X170180Y-111760
X170180Y-114300
T4
X119380Y-99060
X121920Y-99060
X134620Y-99060
X137160Y-99060
X149860Y-99060
X152400Y-99060
X165100Y-99060
X167640Y-99060
T5
X57150Y-82550
X57150Y-85090
X57150Y-87630
X57150Y-90170
X57150Y-92710
X57150Y-95250
X57150Y-97790
X57150Y-100330
X57150Y-102870
X57150Y-105410
X77470Y-82550
X77470Y-85090
X77470Y-87630
X77470Y-90170
X77470Y-92710
X77470Y-95250
X77470Y-97790
X77470Y-100330
X77470Y-102870
X77470Y-105410
T4
G00X195580Y-107680
M15
G01X195580Y-105680
M16
G05
G00X199580Y-101980
M15
G01X197580Y-101980
M16
G05
G00X201580Y-107680
M15
G01X201580Y-105680
M16
G05
T0
M30
