G04 #@! TF.GenerationSoftware,KiCad,Pcbnew,(5.1.9)-1*
G04 #@! TF.CreationDate,2021-03-13T10:24:33-05:00*
G04 #@! TF.ProjectId,Aquarium_Dosing_Pump_Controller,41717561-7269-4756-9d5f-446f73696e67,rev?*
G04 #@! TF.SameCoordinates,Original*
G04 #@! TF.FileFunction,Copper,L1,Top*
G04 #@! TF.FilePolarity,Positive*
%FSLAX46Y46*%
G04 Gerber Fmt 4.6, Leading zero omitted, Abs format (unit mm)*
G04 Created by KiCad (PCBNEW (5.1.9)-1) date 2021-03-13 10:24:33*
%MOMM*%
%LPD*%
G01*
G04 APERTURE LIST*
G04 #@! TA.AperFunction,ComponentPad*
%ADD10O,2.100000X1.900000*%
G04 #@! TD*
G04 #@! TA.AperFunction,ComponentPad*
%ADD11R,2.100000X1.900000*%
G04 #@! TD*
G04 #@! TA.AperFunction,SMDPad,CuDef*
%ADD12R,3.200000X3.200000*%
G04 #@! TD*
G04 #@! TA.AperFunction,ComponentPad*
%ADD13R,3.000000X3.000000*%
G04 #@! TD*
G04 #@! TA.AperFunction,ComponentPad*
%ADD14O,2.400000X1.600000*%
G04 #@! TD*
G04 #@! TA.AperFunction,ComponentPad*
%ADD15R,2.400000X1.600000*%
G04 #@! TD*
G04 #@! TA.AperFunction,SMDPad,CuDef*
%ADD16R,1.700000X0.650000*%
G04 #@! TD*
G04 #@! TA.AperFunction,ComponentPad*
%ADD17O,1.700000X1.700000*%
G04 #@! TD*
G04 #@! TA.AperFunction,ComponentPad*
%ADD18R,1.700000X1.700000*%
G04 #@! TD*
G04 #@! TA.AperFunction,ComponentPad*
%ADD19R,3.500000X3.500000*%
G04 #@! TD*
G04 #@! TA.AperFunction,ViaPad*
%ADD20C,0.838200*%
G04 #@! TD*
G04 #@! TA.AperFunction,Conductor*
%ADD21C,1.270000*%
G04 #@! TD*
G04 #@! TA.AperFunction,Conductor*
%ADD22C,0.635000*%
G04 #@! TD*
G04 #@! TA.AperFunction,Conductor*
%ADD23C,0.254000*%
G04 #@! TD*
G04 APERTURE END LIST*
D10*
X77470000Y-105410000D03*
X57150000Y-105410000D03*
X77470000Y-102870000D03*
X57150000Y-102870000D03*
X77470000Y-100330000D03*
X57150000Y-100330000D03*
X77470000Y-97790000D03*
X57150000Y-97790000D03*
X77470000Y-95250000D03*
X57150000Y-95250000D03*
X77470000Y-92710000D03*
X57150000Y-92710000D03*
X77470000Y-90170000D03*
X57150000Y-90170000D03*
X77470000Y-87630000D03*
X57150000Y-87630000D03*
X77470000Y-85090000D03*
X57150000Y-85090000D03*
X77470000Y-82550000D03*
D11*
X57150000Y-82550000D03*
G04 #@! TA.AperFunction,SMDPad,CuDef*
G36*
G01*
X118745000Y-80645000D02*
X118745000Y-80645000D01*
G75*
G02*
X121920000Y-77470000I3175000J0D01*
G01*
X121920000Y-77470000D01*
G75*
G02*
X125095000Y-80645000I0J-3175000D01*
G01*
X125095000Y-80645000D01*
G75*
G02*
X121920000Y-83820000I-3175000J0D01*
G01*
X121920000Y-83820000D01*
G75*
G02*
X118745000Y-80645000I0J3175000D01*
G01*
G37*
G04 #@! TD.AperFunction*
D12*
X113694600Y-80645000D03*
X130145400Y-80645000D03*
G04 #@! TA.AperFunction,SMDPad,CuDef*
G36*
G01*
X109865000Y-98982500D02*
X111115000Y-98982500D01*
G75*
G02*
X111365000Y-99232500I0J-250000D01*
G01*
X111365000Y-100157500D01*
G75*
G02*
X111115000Y-100407500I-250000J0D01*
G01*
X109865000Y-100407500D01*
G75*
G02*
X109615000Y-100157500I0J250000D01*
G01*
X109615000Y-99232500D01*
G75*
G02*
X109865000Y-98982500I250000J0D01*
G01*
G37*
G04 #@! TD.AperFunction*
G04 #@! TA.AperFunction,SMDPad,CuDef*
G36*
G01*
X109865000Y-96007500D02*
X111115000Y-96007500D01*
G75*
G02*
X111365000Y-96257500I0J-250000D01*
G01*
X111365000Y-97182500D01*
G75*
G02*
X111115000Y-97432500I-250000J0D01*
G01*
X109865000Y-97432500D01*
G75*
G02*
X109615000Y-97182500I0J250000D01*
G01*
X109615000Y-96257500D01*
G75*
G02*
X109865000Y-96007500I250000J0D01*
G01*
G37*
G04 #@! TD.AperFunction*
G04 #@! TA.AperFunction,SMDPad,CuDef*
G36*
G01*
X128895000Y-106122500D02*
X127645000Y-106122500D01*
G75*
G02*
X127395000Y-105872500I0J250000D01*
G01*
X127395000Y-104947500D01*
G75*
G02*
X127645000Y-104697500I250000J0D01*
G01*
X128895000Y-104697500D01*
G75*
G02*
X129145000Y-104947500I0J-250000D01*
G01*
X129145000Y-105872500D01*
G75*
G02*
X128895000Y-106122500I-250000J0D01*
G01*
G37*
G04 #@! TD.AperFunction*
G04 #@! TA.AperFunction,SMDPad,CuDef*
G36*
G01*
X128895000Y-109097500D02*
X127645000Y-109097500D01*
G75*
G02*
X127395000Y-108847500I0J250000D01*
G01*
X127395000Y-107922500D01*
G75*
G02*
X127645000Y-107672500I250000J0D01*
G01*
X128895000Y-107672500D01*
G75*
G02*
X129145000Y-107922500I0J-250000D01*
G01*
X129145000Y-108847500D01*
G75*
G02*
X128895000Y-109097500I-250000J0D01*
G01*
G37*
G04 #@! TD.AperFunction*
G04 #@! TA.AperFunction,SMDPad,CuDef*
G36*
G01*
X159375000Y-106122500D02*
X158125000Y-106122500D01*
G75*
G02*
X157875000Y-105872500I0J250000D01*
G01*
X157875000Y-104947500D01*
G75*
G02*
X158125000Y-104697500I250000J0D01*
G01*
X159375000Y-104697500D01*
G75*
G02*
X159625000Y-104947500I0J-250000D01*
G01*
X159625000Y-105872500D01*
G75*
G02*
X159375000Y-106122500I-250000J0D01*
G01*
G37*
G04 #@! TD.AperFunction*
G04 #@! TA.AperFunction,SMDPad,CuDef*
G36*
G01*
X159375000Y-109097500D02*
X158125000Y-109097500D01*
G75*
G02*
X157875000Y-108847500I0J250000D01*
G01*
X157875000Y-107922500D01*
G75*
G02*
X158125000Y-107672500I250000J0D01*
G01*
X159375000Y-107672500D01*
G75*
G02*
X159625000Y-107922500I0J-250000D01*
G01*
X159625000Y-108847500D01*
G75*
G02*
X159375000Y-109097500I-250000J0D01*
G01*
G37*
G04 #@! TD.AperFunction*
G04 #@! TA.AperFunction,SMDPad,CuDef*
G36*
G01*
X144135000Y-106122500D02*
X142885000Y-106122500D01*
G75*
G02*
X142635000Y-105872500I0J250000D01*
G01*
X142635000Y-104947500D01*
G75*
G02*
X142885000Y-104697500I250000J0D01*
G01*
X144135000Y-104697500D01*
G75*
G02*
X144385000Y-104947500I0J-250000D01*
G01*
X144385000Y-105872500D01*
G75*
G02*
X144135000Y-106122500I-250000J0D01*
G01*
G37*
G04 #@! TD.AperFunction*
G04 #@! TA.AperFunction,SMDPad,CuDef*
G36*
G01*
X144135000Y-109097500D02*
X142885000Y-109097500D01*
G75*
G02*
X142635000Y-108847500I0J250000D01*
G01*
X142635000Y-107922500D01*
G75*
G02*
X142885000Y-107672500I250000J0D01*
G01*
X144135000Y-107672500D01*
G75*
G02*
X144385000Y-107922500I0J-250000D01*
G01*
X144385000Y-108847500D01*
G75*
G02*
X144135000Y-109097500I-250000J0D01*
G01*
G37*
G04 #@! TD.AperFunction*
G04 #@! TA.AperFunction,SMDPad,CuDef*
G36*
G01*
X174615000Y-105905000D02*
X173365000Y-105905000D01*
G75*
G02*
X173115000Y-105655000I0J250000D01*
G01*
X173115000Y-104730000D01*
G75*
G02*
X173365000Y-104480000I250000J0D01*
G01*
X174615000Y-104480000D01*
G75*
G02*
X174865000Y-104730000I0J-250000D01*
G01*
X174865000Y-105655000D01*
G75*
G02*
X174615000Y-105905000I-250000J0D01*
G01*
G37*
G04 #@! TD.AperFunction*
G04 #@! TA.AperFunction,SMDPad,CuDef*
G36*
G01*
X174615000Y-108880000D02*
X173365000Y-108880000D01*
G75*
G02*
X173115000Y-108630000I0J250000D01*
G01*
X173115000Y-107705000D01*
G75*
G02*
X173365000Y-107455000I250000J0D01*
G01*
X174615000Y-107455000D01*
G75*
G02*
X174865000Y-107705000I0J-250000D01*
G01*
X174865000Y-108630000D01*
G75*
G02*
X174615000Y-108880000I-250000J0D01*
G01*
G37*
G04 #@! TD.AperFunction*
G04 #@! TA.AperFunction,SMDPad,CuDef*
G36*
G01*
X107765000Y-82065000D02*
X107765000Y-81765000D01*
G75*
G02*
X107915000Y-81615000I150000J0D01*
G01*
X109665000Y-81615000D01*
G75*
G02*
X109815000Y-81765000I0J-150000D01*
G01*
X109815000Y-82065000D01*
G75*
G02*
X109665000Y-82215000I-150000J0D01*
G01*
X107915000Y-82215000D01*
G75*
G02*
X107765000Y-82065000I0J150000D01*
G01*
G37*
G04 #@! TD.AperFunction*
G04 #@! TA.AperFunction,SMDPad,CuDef*
G36*
G01*
X107765000Y-83335000D02*
X107765000Y-83035000D01*
G75*
G02*
X107915000Y-82885000I150000J0D01*
G01*
X109665000Y-82885000D01*
G75*
G02*
X109815000Y-83035000I0J-150000D01*
G01*
X109815000Y-83335000D01*
G75*
G02*
X109665000Y-83485000I-150000J0D01*
G01*
X107915000Y-83485000D01*
G75*
G02*
X107765000Y-83335000I0J150000D01*
G01*
G37*
G04 #@! TD.AperFunction*
G04 #@! TA.AperFunction,SMDPad,CuDef*
G36*
G01*
X107765000Y-84605000D02*
X107765000Y-84305000D01*
G75*
G02*
X107915000Y-84155000I150000J0D01*
G01*
X109665000Y-84155000D01*
G75*
G02*
X109815000Y-84305000I0J-150000D01*
G01*
X109815000Y-84605000D01*
G75*
G02*
X109665000Y-84755000I-150000J0D01*
G01*
X107915000Y-84755000D01*
G75*
G02*
X107765000Y-84605000I0J150000D01*
G01*
G37*
G04 #@! TD.AperFunction*
G04 #@! TA.AperFunction,SMDPad,CuDef*
G36*
G01*
X107765000Y-85875000D02*
X107765000Y-85575000D01*
G75*
G02*
X107915000Y-85425000I150000J0D01*
G01*
X109665000Y-85425000D01*
G75*
G02*
X109815000Y-85575000I0J-150000D01*
G01*
X109815000Y-85875000D01*
G75*
G02*
X109665000Y-86025000I-150000J0D01*
G01*
X107915000Y-86025000D01*
G75*
G02*
X107765000Y-85875000I0J150000D01*
G01*
G37*
G04 #@! TD.AperFunction*
G04 #@! TA.AperFunction,SMDPad,CuDef*
G36*
G01*
X107765000Y-87145000D02*
X107765000Y-86845000D01*
G75*
G02*
X107915000Y-86695000I150000J0D01*
G01*
X109665000Y-86695000D01*
G75*
G02*
X109815000Y-86845000I0J-150000D01*
G01*
X109815000Y-87145000D01*
G75*
G02*
X109665000Y-87295000I-150000J0D01*
G01*
X107915000Y-87295000D01*
G75*
G02*
X107765000Y-87145000I0J150000D01*
G01*
G37*
G04 #@! TD.AperFunction*
G04 #@! TA.AperFunction,SMDPad,CuDef*
G36*
G01*
X107765000Y-88415000D02*
X107765000Y-88115000D01*
G75*
G02*
X107915000Y-87965000I150000J0D01*
G01*
X109665000Y-87965000D01*
G75*
G02*
X109815000Y-88115000I0J-150000D01*
G01*
X109815000Y-88415000D01*
G75*
G02*
X109665000Y-88565000I-150000J0D01*
G01*
X107915000Y-88565000D01*
G75*
G02*
X107765000Y-88415000I0J150000D01*
G01*
G37*
G04 #@! TD.AperFunction*
G04 #@! TA.AperFunction,SMDPad,CuDef*
G36*
G01*
X107765000Y-89685000D02*
X107765000Y-89385000D01*
G75*
G02*
X107915000Y-89235000I150000J0D01*
G01*
X109665000Y-89235000D01*
G75*
G02*
X109815000Y-89385000I0J-150000D01*
G01*
X109815000Y-89685000D01*
G75*
G02*
X109665000Y-89835000I-150000J0D01*
G01*
X107915000Y-89835000D01*
G75*
G02*
X107765000Y-89685000I0J150000D01*
G01*
G37*
G04 #@! TD.AperFunction*
G04 #@! TA.AperFunction,SMDPad,CuDef*
G36*
G01*
X107765000Y-90955000D02*
X107765000Y-90655000D01*
G75*
G02*
X107915000Y-90505000I150000J0D01*
G01*
X109665000Y-90505000D01*
G75*
G02*
X109815000Y-90655000I0J-150000D01*
G01*
X109815000Y-90955000D01*
G75*
G02*
X109665000Y-91105000I-150000J0D01*
G01*
X107915000Y-91105000D01*
G75*
G02*
X107765000Y-90955000I0J150000D01*
G01*
G37*
G04 #@! TD.AperFunction*
G04 #@! TA.AperFunction,SMDPad,CuDef*
G36*
G01*
X98465000Y-90955000D02*
X98465000Y-90655000D01*
G75*
G02*
X98615000Y-90505000I150000J0D01*
G01*
X100365000Y-90505000D01*
G75*
G02*
X100515000Y-90655000I0J-150000D01*
G01*
X100515000Y-90955000D01*
G75*
G02*
X100365000Y-91105000I-150000J0D01*
G01*
X98615000Y-91105000D01*
G75*
G02*
X98465000Y-90955000I0J150000D01*
G01*
G37*
G04 #@! TD.AperFunction*
G04 #@! TA.AperFunction,SMDPad,CuDef*
G36*
G01*
X98465000Y-89685000D02*
X98465000Y-89385000D01*
G75*
G02*
X98615000Y-89235000I150000J0D01*
G01*
X100365000Y-89235000D01*
G75*
G02*
X100515000Y-89385000I0J-150000D01*
G01*
X100515000Y-89685000D01*
G75*
G02*
X100365000Y-89835000I-150000J0D01*
G01*
X98615000Y-89835000D01*
G75*
G02*
X98465000Y-89685000I0J150000D01*
G01*
G37*
G04 #@! TD.AperFunction*
G04 #@! TA.AperFunction,SMDPad,CuDef*
G36*
G01*
X98465000Y-88415000D02*
X98465000Y-88115000D01*
G75*
G02*
X98615000Y-87965000I150000J0D01*
G01*
X100365000Y-87965000D01*
G75*
G02*
X100515000Y-88115000I0J-150000D01*
G01*
X100515000Y-88415000D01*
G75*
G02*
X100365000Y-88565000I-150000J0D01*
G01*
X98615000Y-88565000D01*
G75*
G02*
X98465000Y-88415000I0J150000D01*
G01*
G37*
G04 #@! TD.AperFunction*
G04 #@! TA.AperFunction,SMDPad,CuDef*
G36*
G01*
X98465000Y-87145000D02*
X98465000Y-86845000D01*
G75*
G02*
X98615000Y-86695000I150000J0D01*
G01*
X100365000Y-86695000D01*
G75*
G02*
X100515000Y-86845000I0J-150000D01*
G01*
X100515000Y-87145000D01*
G75*
G02*
X100365000Y-87295000I-150000J0D01*
G01*
X98615000Y-87295000D01*
G75*
G02*
X98465000Y-87145000I0J150000D01*
G01*
G37*
G04 #@! TD.AperFunction*
G04 #@! TA.AperFunction,SMDPad,CuDef*
G36*
G01*
X98465000Y-85875000D02*
X98465000Y-85575000D01*
G75*
G02*
X98615000Y-85425000I150000J0D01*
G01*
X100365000Y-85425000D01*
G75*
G02*
X100515000Y-85575000I0J-150000D01*
G01*
X100515000Y-85875000D01*
G75*
G02*
X100365000Y-86025000I-150000J0D01*
G01*
X98615000Y-86025000D01*
G75*
G02*
X98465000Y-85875000I0J150000D01*
G01*
G37*
G04 #@! TD.AperFunction*
G04 #@! TA.AperFunction,SMDPad,CuDef*
G36*
G01*
X98465000Y-84605000D02*
X98465000Y-84305000D01*
G75*
G02*
X98615000Y-84155000I150000J0D01*
G01*
X100365000Y-84155000D01*
G75*
G02*
X100515000Y-84305000I0J-150000D01*
G01*
X100515000Y-84605000D01*
G75*
G02*
X100365000Y-84755000I-150000J0D01*
G01*
X98615000Y-84755000D01*
G75*
G02*
X98465000Y-84605000I0J150000D01*
G01*
G37*
G04 #@! TD.AperFunction*
G04 #@! TA.AperFunction,SMDPad,CuDef*
G36*
G01*
X98465000Y-83335000D02*
X98465000Y-83035000D01*
G75*
G02*
X98615000Y-82885000I150000J0D01*
G01*
X100365000Y-82885000D01*
G75*
G02*
X100515000Y-83035000I0J-150000D01*
G01*
X100515000Y-83335000D01*
G75*
G02*
X100365000Y-83485000I-150000J0D01*
G01*
X98615000Y-83485000D01*
G75*
G02*
X98465000Y-83335000I0J150000D01*
G01*
G37*
G04 #@! TD.AperFunction*
G04 #@! TA.AperFunction,SMDPad,CuDef*
G36*
G01*
X98465000Y-82065000D02*
X98465000Y-81765000D01*
G75*
G02*
X98615000Y-81615000I150000J0D01*
G01*
X100365000Y-81615000D01*
G75*
G02*
X100515000Y-81765000I0J-150000D01*
G01*
X100515000Y-82065000D01*
G75*
G02*
X100365000Y-82215000I-150000J0D01*
G01*
X98615000Y-82215000D01*
G75*
G02*
X98465000Y-82065000I0J150000D01*
G01*
G37*
G04 #@! TD.AperFunction*
D13*
X204705000Y-94150000D03*
X204705000Y-83650000D03*
X186455000Y-94150000D03*
X186455000Y-83650000D03*
D14*
X147320000Y-114300000D03*
X154940000Y-106680000D03*
X147320000Y-111760000D03*
X154940000Y-109220000D03*
X147320000Y-109220000D03*
X154940000Y-111760000D03*
X147320000Y-106680000D03*
D15*
X154940000Y-114300000D03*
D14*
X132080000Y-114300000D03*
X139700000Y-106680000D03*
X132080000Y-111760000D03*
X139700000Y-109220000D03*
X132080000Y-109220000D03*
X139700000Y-111760000D03*
X132080000Y-106680000D03*
D15*
X139700000Y-114300000D03*
D14*
X116840000Y-114300000D03*
X124460000Y-106680000D03*
X116840000Y-111760000D03*
X124460000Y-109220000D03*
X116840000Y-109220000D03*
X124460000Y-111760000D03*
X116840000Y-106680000D03*
D15*
X124460000Y-114300000D03*
D14*
X162560000Y-114300000D03*
X170180000Y-106680000D03*
X162560000Y-111760000D03*
X170180000Y-109220000D03*
X162560000Y-109220000D03*
X170180000Y-111760000D03*
X162560000Y-106680000D03*
D15*
X170180000Y-114300000D03*
D16*
X102710000Y-96520000D03*
X102710000Y-97790000D03*
X102710000Y-99060000D03*
X102710000Y-100330000D03*
X95410000Y-100330000D03*
X95410000Y-99060000D03*
X95410000Y-97790000D03*
X95410000Y-96520000D03*
G04 #@! TA.AperFunction,SMDPad,CuDef*
G36*
G01*
X91677500Y-91965000D02*
X91202500Y-91965000D01*
G75*
G02*
X90965000Y-91727500I0J237500D01*
G01*
X90965000Y-91152500D01*
G75*
G02*
X91202500Y-90915000I237500J0D01*
G01*
X91677500Y-90915000D01*
G75*
G02*
X91915000Y-91152500I0J-237500D01*
G01*
X91915000Y-91727500D01*
G75*
G02*
X91677500Y-91965000I-237500J0D01*
G01*
G37*
G04 #@! TD.AperFunction*
G04 #@! TA.AperFunction,SMDPad,CuDef*
G36*
G01*
X91677500Y-93715000D02*
X91202500Y-93715000D01*
G75*
G02*
X90965000Y-93477500I0J237500D01*
G01*
X90965000Y-92902500D01*
G75*
G02*
X91202500Y-92665000I237500J0D01*
G01*
X91677500Y-92665000D01*
G75*
G02*
X91915000Y-92902500I0J-237500D01*
G01*
X91915000Y-93477500D01*
G75*
G02*
X91677500Y-93715000I-237500J0D01*
G01*
G37*
G04 #@! TD.AperFunction*
G04 #@! TA.AperFunction,SMDPad,CuDef*
G36*
G01*
X91202500Y-84170000D02*
X91677500Y-84170000D01*
G75*
G02*
X91915000Y-84407500I0J-237500D01*
G01*
X91915000Y-84982500D01*
G75*
G02*
X91677500Y-85220000I-237500J0D01*
G01*
X91202500Y-85220000D01*
G75*
G02*
X90965000Y-84982500I0J237500D01*
G01*
X90965000Y-84407500D01*
G75*
G02*
X91202500Y-84170000I237500J0D01*
G01*
G37*
G04 #@! TD.AperFunction*
G04 #@! TA.AperFunction,SMDPad,CuDef*
G36*
G01*
X91202500Y-82420000D02*
X91677500Y-82420000D01*
G75*
G02*
X91915000Y-82657500I0J-237500D01*
G01*
X91915000Y-83232500D01*
G75*
G02*
X91677500Y-83470000I-237500J0D01*
G01*
X91202500Y-83470000D01*
G75*
G02*
X90965000Y-83232500I0J237500D01*
G01*
X90965000Y-82657500D01*
G75*
G02*
X91202500Y-82420000I237500J0D01*
G01*
G37*
G04 #@! TD.AperFunction*
G04 #@! TA.AperFunction,SMDPad,CuDef*
G36*
G01*
X200135000Y-76437500D02*
X200135000Y-75962500D01*
G75*
G02*
X200372500Y-75725000I237500J0D01*
G01*
X200947500Y-75725000D01*
G75*
G02*
X201185000Y-75962500I0J-237500D01*
G01*
X201185000Y-76437500D01*
G75*
G02*
X200947500Y-76675000I-237500J0D01*
G01*
X200372500Y-76675000D01*
G75*
G02*
X200135000Y-76437500I0J237500D01*
G01*
G37*
G04 #@! TD.AperFunction*
G04 #@! TA.AperFunction,SMDPad,CuDef*
G36*
G01*
X198385000Y-76437500D02*
X198385000Y-75962500D01*
G75*
G02*
X198622500Y-75725000I237500J0D01*
G01*
X199197500Y-75725000D01*
G75*
G02*
X199435000Y-75962500I0J-237500D01*
G01*
X199435000Y-76437500D01*
G75*
G02*
X199197500Y-76675000I-237500J0D01*
G01*
X198622500Y-76675000D01*
G75*
G02*
X198385000Y-76437500I0J237500D01*
G01*
G37*
G04 #@! TD.AperFunction*
G04 #@! TA.AperFunction,SMDPad,CuDef*
G36*
G01*
X154895000Y-94217500D02*
X154895000Y-93742500D01*
G75*
G02*
X155132500Y-93505000I237500J0D01*
G01*
X155707500Y-93505000D01*
G75*
G02*
X155945000Y-93742500I0J-237500D01*
G01*
X155945000Y-94217500D01*
G75*
G02*
X155707500Y-94455000I-237500J0D01*
G01*
X155132500Y-94455000D01*
G75*
G02*
X154895000Y-94217500I0J237500D01*
G01*
G37*
G04 #@! TD.AperFunction*
G04 #@! TA.AperFunction,SMDPad,CuDef*
G36*
G01*
X153145000Y-94217500D02*
X153145000Y-93742500D01*
G75*
G02*
X153382500Y-93505000I237500J0D01*
G01*
X153957500Y-93505000D01*
G75*
G02*
X154195000Y-93742500I0J-237500D01*
G01*
X154195000Y-94217500D01*
G75*
G02*
X153957500Y-94455000I-237500J0D01*
G01*
X153382500Y-94455000D01*
G75*
G02*
X153145000Y-94217500I0J237500D01*
G01*
G37*
G04 #@! TD.AperFunction*
G04 #@! TA.AperFunction,SMDPad,CuDef*
G36*
G01*
X139175000Y-94217500D02*
X139175000Y-93742500D01*
G75*
G02*
X139412500Y-93505000I237500J0D01*
G01*
X139987500Y-93505000D01*
G75*
G02*
X140225000Y-93742500I0J-237500D01*
G01*
X140225000Y-94217500D01*
G75*
G02*
X139987500Y-94455000I-237500J0D01*
G01*
X139412500Y-94455000D01*
G75*
G02*
X139175000Y-94217500I0J237500D01*
G01*
G37*
G04 #@! TD.AperFunction*
G04 #@! TA.AperFunction,SMDPad,CuDef*
G36*
G01*
X137425000Y-94217500D02*
X137425000Y-93742500D01*
G75*
G02*
X137662500Y-93505000I237500J0D01*
G01*
X138237500Y-93505000D01*
G75*
G02*
X138475000Y-93742500I0J-237500D01*
G01*
X138475000Y-94217500D01*
G75*
G02*
X138237500Y-94455000I-237500J0D01*
G01*
X137662500Y-94455000D01*
G75*
G02*
X137425000Y-94217500I0J237500D01*
G01*
G37*
G04 #@! TD.AperFunction*
G04 #@! TA.AperFunction,SMDPad,CuDef*
G36*
G01*
X124415000Y-94217500D02*
X124415000Y-93742500D01*
G75*
G02*
X124652500Y-93505000I237500J0D01*
G01*
X125227500Y-93505000D01*
G75*
G02*
X125465000Y-93742500I0J-237500D01*
G01*
X125465000Y-94217500D01*
G75*
G02*
X125227500Y-94455000I-237500J0D01*
G01*
X124652500Y-94455000D01*
G75*
G02*
X124415000Y-94217500I0J237500D01*
G01*
G37*
G04 #@! TD.AperFunction*
G04 #@! TA.AperFunction,SMDPad,CuDef*
G36*
G01*
X122665000Y-94217500D02*
X122665000Y-93742500D01*
G75*
G02*
X122902500Y-93505000I237500J0D01*
G01*
X123477500Y-93505000D01*
G75*
G02*
X123715000Y-93742500I0J-237500D01*
G01*
X123715000Y-94217500D01*
G75*
G02*
X123477500Y-94455000I-237500J0D01*
G01*
X122902500Y-94455000D01*
G75*
G02*
X122665000Y-94217500I0J237500D01*
G01*
G37*
G04 #@! TD.AperFunction*
G04 #@! TA.AperFunction,SMDPad,CuDef*
G36*
G01*
X169655000Y-94217500D02*
X169655000Y-93742500D01*
G75*
G02*
X169892500Y-93505000I237500J0D01*
G01*
X170467500Y-93505000D01*
G75*
G02*
X170705000Y-93742500I0J-237500D01*
G01*
X170705000Y-94217500D01*
G75*
G02*
X170467500Y-94455000I-237500J0D01*
G01*
X169892500Y-94455000D01*
G75*
G02*
X169655000Y-94217500I0J237500D01*
G01*
G37*
G04 #@! TD.AperFunction*
G04 #@! TA.AperFunction,SMDPad,CuDef*
G36*
G01*
X167905000Y-94217500D02*
X167905000Y-93742500D01*
G75*
G02*
X168142500Y-93505000I237500J0D01*
G01*
X168717500Y-93505000D01*
G75*
G02*
X168955000Y-93742500I0J-237500D01*
G01*
X168955000Y-94217500D01*
G75*
G02*
X168717500Y-94455000I-237500J0D01*
G01*
X168142500Y-94455000D01*
G75*
G02*
X167905000Y-94217500I0J237500D01*
G01*
G37*
G04 #@! TD.AperFunction*
G04 #@! TA.AperFunction,SMDPad,CuDef*
G36*
G01*
X143272500Y-115525000D02*
X143747500Y-115525000D01*
G75*
G02*
X143985000Y-115762500I0J-237500D01*
G01*
X143985000Y-116337500D01*
G75*
G02*
X143747500Y-116575000I-237500J0D01*
G01*
X143272500Y-116575000D01*
G75*
G02*
X143035000Y-116337500I0J237500D01*
G01*
X143035000Y-115762500D01*
G75*
G02*
X143272500Y-115525000I237500J0D01*
G01*
G37*
G04 #@! TD.AperFunction*
G04 #@! TA.AperFunction,SMDPad,CuDef*
G36*
G01*
X143272500Y-113775000D02*
X143747500Y-113775000D01*
G75*
G02*
X143985000Y-114012500I0J-237500D01*
G01*
X143985000Y-114587500D01*
G75*
G02*
X143747500Y-114825000I-237500J0D01*
G01*
X143272500Y-114825000D01*
G75*
G02*
X143035000Y-114587500I0J237500D01*
G01*
X143035000Y-114012500D01*
G75*
G02*
X143272500Y-113775000I237500J0D01*
G01*
G37*
G04 #@! TD.AperFunction*
G04 #@! TA.AperFunction,SMDPad,CuDef*
G36*
G01*
X128032500Y-115525000D02*
X128507500Y-115525000D01*
G75*
G02*
X128745000Y-115762500I0J-237500D01*
G01*
X128745000Y-116337500D01*
G75*
G02*
X128507500Y-116575000I-237500J0D01*
G01*
X128032500Y-116575000D01*
G75*
G02*
X127795000Y-116337500I0J237500D01*
G01*
X127795000Y-115762500D01*
G75*
G02*
X128032500Y-115525000I237500J0D01*
G01*
G37*
G04 #@! TD.AperFunction*
G04 #@! TA.AperFunction,SMDPad,CuDef*
G36*
G01*
X128032500Y-113775000D02*
X128507500Y-113775000D01*
G75*
G02*
X128745000Y-114012500I0J-237500D01*
G01*
X128745000Y-114587500D01*
G75*
G02*
X128507500Y-114825000I-237500J0D01*
G01*
X128032500Y-114825000D01*
G75*
G02*
X127795000Y-114587500I0J237500D01*
G01*
X127795000Y-114012500D01*
G75*
G02*
X128032500Y-113775000I237500J0D01*
G01*
G37*
G04 #@! TD.AperFunction*
G04 #@! TA.AperFunction,SMDPad,CuDef*
G36*
G01*
X112665500Y-113140000D02*
X113140500Y-113140000D01*
G75*
G02*
X113378000Y-113377500I0J-237500D01*
G01*
X113378000Y-113952500D01*
G75*
G02*
X113140500Y-114190000I-237500J0D01*
G01*
X112665500Y-114190000D01*
G75*
G02*
X112428000Y-113952500I0J237500D01*
G01*
X112428000Y-113377500D01*
G75*
G02*
X112665500Y-113140000I237500J0D01*
G01*
G37*
G04 #@! TD.AperFunction*
G04 #@! TA.AperFunction,SMDPad,CuDef*
G36*
G01*
X112665500Y-111390000D02*
X113140500Y-111390000D01*
G75*
G02*
X113378000Y-111627500I0J-237500D01*
G01*
X113378000Y-112202500D01*
G75*
G02*
X113140500Y-112440000I-237500J0D01*
G01*
X112665500Y-112440000D01*
G75*
G02*
X112428000Y-112202500I0J237500D01*
G01*
X112428000Y-111627500D01*
G75*
G02*
X112665500Y-111390000I237500J0D01*
G01*
G37*
G04 #@! TD.AperFunction*
G04 #@! TA.AperFunction,SMDPad,CuDef*
G36*
G01*
X158512500Y-115285000D02*
X158987500Y-115285000D01*
G75*
G02*
X159225000Y-115522500I0J-237500D01*
G01*
X159225000Y-116097500D01*
G75*
G02*
X158987500Y-116335000I-237500J0D01*
G01*
X158512500Y-116335000D01*
G75*
G02*
X158275000Y-116097500I0J237500D01*
G01*
X158275000Y-115522500D01*
G75*
G02*
X158512500Y-115285000I237500J0D01*
G01*
G37*
G04 #@! TD.AperFunction*
G04 #@! TA.AperFunction,SMDPad,CuDef*
G36*
G01*
X158512500Y-113535000D02*
X158987500Y-113535000D01*
G75*
G02*
X159225000Y-113772500I0J-237500D01*
G01*
X159225000Y-114347500D01*
G75*
G02*
X158987500Y-114585000I-237500J0D01*
G01*
X158512500Y-114585000D01*
G75*
G02*
X158275000Y-114347500I0J237500D01*
G01*
X158275000Y-113772500D01*
G75*
G02*
X158512500Y-113535000I237500J0D01*
G01*
G37*
G04 #@! TD.AperFunction*
D17*
X149860000Y-99060000D03*
D18*
X152400000Y-99060000D03*
D17*
X134620000Y-99060000D03*
D18*
X137160000Y-99060000D03*
D17*
X119380000Y-99060000D03*
D18*
X121920000Y-99060000D03*
D17*
X165100000Y-99060000D03*
D18*
X167640000Y-99060000D03*
G04 #@! TA.AperFunction,ComponentPad*
G36*
G01*
X200330000Y-101105000D02*
X200330000Y-102855000D01*
G75*
G02*
X199455000Y-103730000I-875000J0D01*
G01*
X197705000Y-103730000D01*
G75*
G02*
X196830000Y-102855000I0J875000D01*
G01*
X196830000Y-101105000D01*
G75*
G02*
X197705000Y-100230000I875000J0D01*
G01*
X199455000Y-100230000D01*
G75*
G02*
X200330000Y-101105000I0J-875000D01*
G01*
G37*
G04 #@! TD.AperFunction*
G04 #@! TA.AperFunction,ComponentPad*
G36*
G01*
X203080000Y-105680000D02*
X203080000Y-107680000D01*
G75*
G02*
X202330000Y-108430000I-750000J0D01*
G01*
X200830000Y-108430000D01*
G75*
G02*
X200080000Y-107680000I0J750000D01*
G01*
X200080000Y-105680000D01*
G75*
G02*
X200830000Y-104930000I750000J0D01*
G01*
X202330000Y-104930000D01*
G75*
G02*
X203080000Y-105680000I0J-750000D01*
G01*
G37*
G04 #@! TD.AperFunction*
D19*
X195580000Y-106680000D03*
G04 #@! TA.AperFunction,SMDPad,CuDef*
G36*
G01*
X193752500Y-75575000D02*
X193752500Y-76825000D01*
G75*
G02*
X193502500Y-77075000I-250000J0D01*
G01*
X192577500Y-77075000D01*
G75*
G02*
X192327500Y-76825000I0J250000D01*
G01*
X192327500Y-75575000D01*
G75*
G02*
X192577500Y-75325000I250000J0D01*
G01*
X193502500Y-75325000D01*
G75*
G02*
X193752500Y-75575000I0J-250000D01*
G01*
G37*
G04 #@! TD.AperFunction*
G04 #@! TA.AperFunction,SMDPad,CuDef*
G36*
G01*
X196727500Y-75575000D02*
X196727500Y-76825000D01*
G75*
G02*
X196477500Y-77075000I-250000J0D01*
G01*
X195552500Y-77075000D01*
G75*
G02*
X195302500Y-76825000I0J250000D01*
G01*
X195302500Y-75575000D01*
G75*
G02*
X195552500Y-75325000I250000J0D01*
G01*
X196477500Y-75325000D01*
G75*
G02*
X196727500Y-75575000I0J-250000D01*
G01*
G37*
G04 #@! TD.AperFunction*
G04 #@! TA.AperFunction,SMDPad,CuDef*
G36*
G01*
X148032500Y-93355000D02*
X148032500Y-94605000D01*
G75*
G02*
X147782500Y-94855000I-250000J0D01*
G01*
X146857500Y-94855000D01*
G75*
G02*
X146607500Y-94605000I0J250000D01*
G01*
X146607500Y-93355000D01*
G75*
G02*
X146857500Y-93105000I250000J0D01*
G01*
X147782500Y-93105000D01*
G75*
G02*
X148032500Y-93355000I0J-250000D01*
G01*
G37*
G04 #@! TD.AperFunction*
G04 #@! TA.AperFunction,SMDPad,CuDef*
G36*
G01*
X151007500Y-93355000D02*
X151007500Y-94605000D01*
G75*
G02*
X150757500Y-94855000I-250000J0D01*
G01*
X149832500Y-94855000D01*
G75*
G02*
X149582500Y-94605000I0J250000D01*
G01*
X149582500Y-93355000D01*
G75*
G02*
X149832500Y-93105000I250000J0D01*
G01*
X150757500Y-93105000D01*
G75*
G02*
X151007500Y-93355000I0J-250000D01*
G01*
G37*
G04 #@! TD.AperFunction*
G04 #@! TA.AperFunction,SMDPad,CuDef*
G36*
G01*
X132792500Y-93355000D02*
X132792500Y-94605000D01*
G75*
G02*
X132542500Y-94855000I-250000J0D01*
G01*
X131617500Y-94855000D01*
G75*
G02*
X131367500Y-94605000I0J250000D01*
G01*
X131367500Y-93355000D01*
G75*
G02*
X131617500Y-93105000I250000J0D01*
G01*
X132542500Y-93105000D01*
G75*
G02*
X132792500Y-93355000I0J-250000D01*
G01*
G37*
G04 #@! TD.AperFunction*
G04 #@! TA.AperFunction,SMDPad,CuDef*
G36*
G01*
X135767500Y-93355000D02*
X135767500Y-94605000D01*
G75*
G02*
X135517500Y-94855000I-250000J0D01*
G01*
X134592500Y-94855000D01*
G75*
G02*
X134342500Y-94605000I0J250000D01*
G01*
X134342500Y-93355000D01*
G75*
G02*
X134592500Y-93105000I250000J0D01*
G01*
X135517500Y-93105000D01*
G75*
G02*
X135767500Y-93355000I0J-250000D01*
G01*
G37*
G04 #@! TD.AperFunction*
G04 #@! TA.AperFunction,SMDPad,CuDef*
G36*
G01*
X117552500Y-93355000D02*
X117552500Y-94605000D01*
G75*
G02*
X117302500Y-94855000I-250000J0D01*
G01*
X116377500Y-94855000D01*
G75*
G02*
X116127500Y-94605000I0J250000D01*
G01*
X116127500Y-93355000D01*
G75*
G02*
X116377500Y-93105000I250000J0D01*
G01*
X117302500Y-93105000D01*
G75*
G02*
X117552500Y-93355000I0J-250000D01*
G01*
G37*
G04 #@! TD.AperFunction*
G04 #@! TA.AperFunction,SMDPad,CuDef*
G36*
G01*
X120527500Y-93355000D02*
X120527500Y-94605000D01*
G75*
G02*
X120277500Y-94855000I-250000J0D01*
G01*
X119352500Y-94855000D01*
G75*
G02*
X119102500Y-94605000I0J250000D01*
G01*
X119102500Y-93355000D01*
G75*
G02*
X119352500Y-93105000I250000J0D01*
G01*
X120277500Y-93105000D01*
G75*
G02*
X120527500Y-93355000I0J-250000D01*
G01*
G37*
G04 #@! TD.AperFunction*
G04 #@! TA.AperFunction,SMDPad,CuDef*
G36*
G01*
X163272500Y-93355000D02*
X163272500Y-94605000D01*
G75*
G02*
X163022500Y-94855000I-250000J0D01*
G01*
X162097500Y-94855000D01*
G75*
G02*
X161847500Y-94605000I0J250000D01*
G01*
X161847500Y-93355000D01*
G75*
G02*
X162097500Y-93105000I250000J0D01*
G01*
X163022500Y-93105000D01*
G75*
G02*
X163272500Y-93355000I0J-250000D01*
G01*
G37*
G04 #@! TD.AperFunction*
G04 #@! TA.AperFunction,SMDPad,CuDef*
G36*
G01*
X166247500Y-93355000D02*
X166247500Y-94605000D01*
G75*
G02*
X165997500Y-94855000I-250000J0D01*
G01*
X165072500Y-94855000D01*
G75*
G02*
X164822500Y-94605000I0J250000D01*
G01*
X164822500Y-93355000D01*
G75*
G02*
X165072500Y-93105000I250000J0D01*
G01*
X165997500Y-93105000D01*
G75*
G02*
X166247500Y-93355000I0J-250000D01*
G01*
G37*
G04 #@! TD.AperFunction*
G04 #@! TA.AperFunction,SMDPad,CuDef*
G36*
G01*
X97145000Y-77965000D02*
X95895000Y-77965000D01*
G75*
G02*
X95645000Y-77715000I0J250000D01*
G01*
X95645000Y-76790000D01*
G75*
G02*
X95895000Y-76540000I250000J0D01*
G01*
X97145000Y-76540000D01*
G75*
G02*
X97395000Y-76790000I0J-250000D01*
G01*
X97395000Y-77715000D01*
G75*
G02*
X97145000Y-77965000I-250000J0D01*
G01*
G37*
G04 #@! TD.AperFunction*
G04 #@! TA.AperFunction,SMDPad,CuDef*
G36*
G01*
X97145000Y-80940000D02*
X95895000Y-80940000D01*
G75*
G02*
X95645000Y-80690000I0J250000D01*
G01*
X95645000Y-79765000D01*
G75*
G02*
X95895000Y-79515000I250000J0D01*
G01*
X97145000Y-79515000D01*
G75*
G02*
X97395000Y-79765000I0J-250000D01*
G01*
X97395000Y-80690000D01*
G75*
G02*
X97145000Y-80940000I-250000J0D01*
G01*
G37*
G04 #@! TD.AperFunction*
G04 #@! TA.AperFunction,SMDPad,CuDef*
G36*
G01*
X106055000Y-98982500D02*
X107305000Y-98982500D01*
G75*
G02*
X107555000Y-99232500I0J-250000D01*
G01*
X107555000Y-100157500D01*
G75*
G02*
X107305000Y-100407500I-250000J0D01*
G01*
X106055000Y-100407500D01*
G75*
G02*
X105805000Y-100157500I0J250000D01*
G01*
X105805000Y-99232500D01*
G75*
G02*
X106055000Y-98982500I250000J0D01*
G01*
G37*
G04 #@! TD.AperFunction*
G04 #@! TA.AperFunction,SMDPad,CuDef*
G36*
G01*
X106055000Y-96007500D02*
X107305000Y-96007500D01*
G75*
G02*
X107555000Y-96257500I0J-250000D01*
G01*
X107555000Y-97182500D01*
G75*
G02*
X107305000Y-97432500I-250000J0D01*
G01*
X106055000Y-97432500D01*
G75*
G02*
X105805000Y-97182500I0J250000D01*
G01*
X105805000Y-96257500D01*
G75*
G02*
X106055000Y-96007500I250000J0D01*
G01*
G37*
G04 #@! TD.AperFunction*
D20*
X143510000Y-104140000D03*
X128270000Y-104140000D03*
X158750000Y-104140000D03*
X173990000Y-103505000D03*
X202565000Y-76200000D03*
X111633000Y-113665000D03*
X171450000Y-93980000D03*
X156845000Y-93980000D03*
X140970000Y-93980000D03*
X126365000Y-93980000D03*
X110490000Y-101600000D03*
X106680000Y-101600000D03*
X93345000Y-100330000D03*
X97155000Y-90805000D03*
X97155000Y-89535000D03*
X97155000Y-88265000D03*
X97155000Y-86995000D03*
X110490000Y-90805000D03*
X110490000Y-89535000D03*
X110490000Y-88265000D03*
X110490000Y-86995000D03*
X110490000Y-85725000D03*
X121920000Y-80645000D03*
X96520000Y-75565000D03*
X106680000Y-95250000D03*
X102870000Y-95250000D03*
X97635000Y-93190000D03*
X105664000Y-93726000D03*
X103251000Y-93726000D03*
X99568000Y-92964000D03*
X95631000Y-94234000D03*
X92837000Y-94488000D03*
X90551000Y-95631000D03*
X88392000Y-112522000D03*
X82550000Y-112649000D03*
X87376000Y-111252000D03*
X82296000Y-111252000D03*
X104902000Y-107696000D03*
X100330000Y-107696000D03*
X84836000Y-107696000D03*
X80518000Y-107696000D03*
X158115000Y-111760000D03*
X142875000Y-111760000D03*
X127635000Y-111760000D03*
X173990029Y-111760029D03*
D21*
X143510000Y-105410000D02*
X143510000Y-104140000D01*
X128270000Y-105410000D02*
X128270000Y-104140000D01*
X158750000Y-105410000D02*
X158750000Y-104140000D01*
X173990000Y-105192500D02*
X173990000Y-103505000D01*
X200660000Y-76200000D02*
X202565000Y-76200000D01*
X112903000Y-113665000D02*
X111633000Y-113665000D01*
D22*
X130330000Y-116050000D02*
X132080000Y-114300000D01*
X128270000Y-116050000D02*
X130330000Y-116050000D01*
X145570000Y-116050000D02*
X147320000Y-114300000D01*
X143510000Y-116050000D02*
X145570000Y-116050000D01*
X161050000Y-115810000D02*
X162560000Y-114300000D01*
X158750000Y-115810000D02*
X161050000Y-115810000D01*
X170180000Y-93980000D02*
X171450000Y-93980000D01*
X155420000Y-93980000D02*
X156845000Y-93980000D01*
X139700000Y-93980000D02*
X140970000Y-93980000D01*
X124940000Y-93980000D02*
X126365000Y-93980000D01*
X110490000Y-99695000D02*
X110490000Y-101600000D01*
X106680000Y-99695000D02*
X106680000Y-101600000D01*
X95410000Y-100330000D02*
X93345000Y-100330000D01*
X99490000Y-90805000D02*
X97155000Y-90805000D01*
X99490000Y-89535000D02*
X97155000Y-89535000D01*
X99490000Y-88265000D02*
X97155000Y-88265000D01*
X99490000Y-86995000D02*
X97155000Y-86995000D01*
X108790000Y-90805000D02*
X110490000Y-90805000D01*
X108790000Y-89535000D02*
X110490000Y-89535000D01*
X108790000Y-88265000D02*
X110490000Y-88265000D01*
X108790000Y-86995000D02*
X110490000Y-86995000D01*
X108790000Y-85725000D02*
X110490000Y-85725000D01*
X96520000Y-77252500D02*
X96520000Y-75565000D01*
D21*
X193040000Y-87565000D02*
X186455000Y-94150000D01*
X193040000Y-76200000D02*
X193040000Y-87565000D01*
X186455000Y-94150000D02*
X186455000Y-108185000D01*
X79790000Y-100330000D02*
X77470000Y-100330000D01*
X83185000Y-103725000D02*
X79790000Y-100330000D01*
X83185000Y-109855000D02*
X83185000Y-103725000D01*
X90743210Y-117413210D02*
X83185000Y-109855000D01*
X183576790Y-117413210D02*
X90743210Y-117413210D01*
X186455000Y-114535000D02*
X183576790Y-117413210D01*
X186455000Y-94150000D02*
X186455000Y-114535000D01*
D23*
X99490000Y-83185000D02*
X98465000Y-83185000D01*
X91680000Y-83185000D02*
X91440000Y-82945000D01*
X96520000Y-80227500D02*
X96520000Y-83185000D01*
X96520000Y-83185000D02*
X91680000Y-83185000D01*
X99490000Y-83185000D02*
X96520000Y-83185000D01*
X106680000Y-96720000D02*
X106680000Y-95250000D01*
X102870000Y-96360000D02*
X102710000Y-96520000D01*
X102870000Y-95250000D02*
X102870000Y-96360000D01*
X91440000Y-93190000D02*
X97635000Y-93190000D01*
D21*
X108776790Y-96728210D02*
X108776790Y-101408210D01*
X108785000Y-96720000D02*
X108776790Y-96728210D01*
D23*
X110490000Y-96720000D02*
X108785000Y-96720000D01*
X108785000Y-96720000D02*
X106680000Y-96720000D01*
D21*
X100330000Y-109855000D02*
X83185000Y-109855000D01*
X108776790Y-101408210D02*
X100330000Y-109855000D01*
X106680000Y-96720000D02*
X110490000Y-96720000D01*
X75150000Y-100330000D02*
X74295000Y-99475000D01*
X77470000Y-100330000D02*
X75150000Y-100330000D01*
X77163590Y-80227500D02*
X96520000Y-80227500D01*
X74295000Y-83096090D02*
X77163590Y-80227500D01*
X74295000Y-99475000D02*
X74295000Y-83096090D01*
D23*
X161050000Y-111760000D02*
X158750000Y-114060000D01*
X162560000Y-111760000D02*
X161050000Y-111760000D01*
X164090210Y-99796908D02*
X162560000Y-98266698D01*
X164090210Y-110229790D02*
X164090210Y-99796908D01*
X162560000Y-98266698D02*
X162560000Y-93980000D01*
X162560000Y-111760000D02*
X164090210Y-110229790D01*
X162560000Y-111760000D02*
X161036000Y-111760000D01*
X161036000Y-111760000D02*
X160401000Y-111125000D01*
X160401000Y-111125000D02*
X160401000Y-93980000D01*
X158738579Y-92317579D02*
X111009421Y-92317579D01*
X160401000Y-93980000D02*
X158738579Y-92317579D01*
X111009421Y-92317579D02*
X109601000Y-93726000D01*
X109601000Y-93726000D02*
X105664000Y-93726000D01*
X103251000Y-93726000D02*
X100330000Y-93726000D01*
X100330000Y-93726000D02*
X99568000Y-92964000D01*
X95631000Y-94234000D02*
X93091000Y-94234000D01*
X93091000Y-94234000D02*
X92837000Y-94488000D01*
X90551000Y-95631000D02*
X87884000Y-95631000D01*
X85725000Y-97790000D02*
X77470000Y-97790000D01*
X87884000Y-95631000D02*
X85725000Y-97790000D01*
X129540000Y-114300000D02*
X132080000Y-111760000D01*
X128270000Y-114300000D02*
X129540000Y-114300000D01*
X132080000Y-98266698D02*
X132080000Y-93980000D01*
X133610210Y-99796908D02*
X132080000Y-98266698D01*
X133610210Y-111683790D02*
X133610210Y-99796908D01*
X133534000Y-111760000D02*
X133610210Y-111683790D01*
X132080000Y-111760000D02*
X133534000Y-111760000D01*
X128270000Y-114300000D02*
X128016000Y-114300000D01*
X128016000Y-114300000D02*
X126885799Y-115430201D01*
X126885799Y-115430201D02*
X126111000Y-116205000D01*
X126111000Y-116205000D02*
X125984000Y-116332000D01*
X125984000Y-116332000D02*
X92202000Y-116332000D01*
X92202000Y-116332000D02*
X88392000Y-112522000D01*
X82550000Y-112649000D02*
X73406000Y-112649000D01*
X58547000Y-97790000D02*
X57150000Y-97790000D01*
X73406000Y-112649000D02*
X58547000Y-97790000D01*
X116840000Y-111760000D02*
X115090000Y-111760000D01*
X116840000Y-111760000D02*
X118732289Y-109867711D01*
X118732289Y-109867711D02*
X118732289Y-103492289D01*
X118732289Y-103492289D02*
X116840000Y-101600000D01*
X116840000Y-101600000D02*
X116840000Y-93980000D01*
X113058000Y-111760000D02*
X112903000Y-111915000D01*
X116840000Y-111760000D02*
X113058000Y-111760000D01*
X112903000Y-111915000D02*
X90015000Y-111915000D01*
X90015000Y-111915000D02*
X89352000Y-111252000D01*
X89352000Y-111252000D02*
X87376000Y-111252000D01*
X82296000Y-111252000D02*
X74041000Y-111252000D01*
X58039000Y-95250000D02*
X57150000Y-95250000D01*
X74041000Y-111252000D02*
X58039000Y-95250000D01*
X146050000Y-111760000D02*
X143510000Y-114300000D01*
X147320000Y-111760000D02*
X146050000Y-111760000D01*
X147320000Y-98266698D02*
X147320000Y-93980000D01*
X148850210Y-111683790D02*
X148850210Y-99796908D01*
X148850210Y-99796908D02*
X147320000Y-98266698D01*
X148774000Y-111760000D02*
X148850210Y-111683790D01*
X147320000Y-111760000D02*
X148774000Y-111760000D01*
X116137166Y-92774790D02*
X112395000Y-96516956D01*
X146114790Y-92774790D02*
X116137166Y-92774790D01*
X147320000Y-93980000D02*
X146114790Y-92774790D01*
X112395000Y-96516956D02*
X112395000Y-106680000D01*
X62230000Y-97790000D02*
X57150000Y-92710000D01*
X112395000Y-106680000D02*
X112395000Y-107188000D01*
X112395000Y-107188000D02*
X111760000Y-107823000D01*
X105029000Y-107823000D02*
X104902000Y-107696000D01*
X111760000Y-107823000D02*
X105029000Y-107823000D01*
X100330000Y-107696000D02*
X84836000Y-107696000D01*
X72136000Y-107696000D02*
X62230000Y-97790000D01*
X80518000Y-107696000D02*
X72136000Y-107696000D01*
X107765000Y-83185000D02*
X104775000Y-86175000D01*
X108790000Y-83185000D02*
X107765000Y-83185000D01*
X103814000Y-100330000D02*
X102710000Y-100330000D01*
X104775000Y-99369000D02*
X103814000Y-100330000D01*
X104775000Y-86175000D02*
X104775000Y-99369000D01*
X91440000Y-91440000D02*
X91440000Y-90170000D01*
X91440000Y-90170000D02*
X77470000Y-90170000D01*
X101606000Y-100330000D02*
X102710000Y-100330000D01*
X97140799Y-95864799D02*
X101606000Y-100330000D01*
X92786933Y-95864799D02*
X97140799Y-95864799D01*
X90634790Y-93712656D02*
X92786933Y-95864799D01*
X90634790Y-92245210D02*
X90634790Y-93712656D01*
X91440000Y-91440000D02*
X90634790Y-92245210D01*
X77470000Y-87630000D02*
X91440000Y-87630000D01*
X91440000Y-87630000D02*
X91440000Y-84695000D01*
X101606000Y-99060000D02*
X98425000Y-95879000D01*
X102710000Y-99060000D02*
X101606000Y-99060000D01*
X98425000Y-95879000D02*
X98425000Y-92075000D01*
X96520000Y-92075000D02*
X92075000Y-87630000D01*
X100330000Y-92075000D02*
X96520000Y-92075000D01*
X92075000Y-87630000D02*
X91440000Y-87630000D01*
X100845210Y-91559790D02*
X100330000Y-92075000D01*
X100845210Y-88613912D02*
X100845210Y-91559790D01*
X107544122Y-81915000D02*
X100845210Y-88613912D01*
X108790000Y-81915000D02*
X107544122Y-81915000D01*
X113694600Y-80645000D02*
X113694600Y-81885400D01*
X111125000Y-84455000D02*
X108790000Y-84455000D01*
X113694600Y-81885400D02*
X111125000Y-84455000D01*
X165535000Y-93980000D02*
X168430000Y-93980000D01*
X119815000Y-93980000D02*
X123190000Y-93980000D01*
X135055000Y-93980000D02*
X137950000Y-93980000D01*
X150295000Y-93980000D02*
X153670000Y-93980000D01*
X196015000Y-76200000D02*
X198910000Y-76200000D01*
D21*
X128270000Y-111125000D02*
X127635000Y-111760000D01*
X128270000Y-108385000D02*
X128270000Y-111125000D01*
X202237154Y-94150000D02*
X204705000Y-94150000D01*
X195580000Y-100807154D02*
X202237154Y-94150000D01*
X195580000Y-106680000D02*
X195580000Y-100807154D01*
D22*
X143510000Y-111125000D02*
X142875000Y-111760000D01*
X143510000Y-108385000D02*
X143510000Y-111125000D01*
D21*
X158750000Y-111125000D02*
X158115000Y-111760000D01*
X158750000Y-108385000D02*
X158750000Y-111125000D01*
X173990000Y-108167500D02*
X173990000Y-111760000D01*
X173990000Y-111760000D02*
X173990029Y-111760029D01*
D22*
X170180000Y-106680000D02*
X167640000Y-106680000D01*
X165100000Y-104140000D02*
X165100000Y-99060000D01*
X167640000Y-106680000D02*
X165100000Y-104140000D01*
X171900710Y-112579290D02*
X171900710Y-105225710D01*
X170180000Y-114300000D02*
X171900710Y-112579290D01*
X167640000Y-100965000D02*
X167640000Y-99060000D01*
X171900710Y-105225710D02*
X167640000Y-100965000D01*
X124460000Y-106680000D02*
X120650000Y-106680000D01*
X119380000Y-105410000D02*
X119380000Y-99060000D01*
X120650000Y-106680000D02*
X119380000Y-105410000D01*
X126180710Y-112579290D02*
X126180710Y-105225710D01*
X124460000Y-114300000D02*
X126180710Y-112579290D01*
X121920000Y-100965000D02*
X121920000Y-99060000D01*
X126180710Y-105225710D02*
X121920000Y-100965000D01*
X139700000Y-106680000D02*
X136525000Y-106680000D01*
X134620000Y-104775000D02*
X134620000Y-99060000D01*
X136525000Y-106680000D02*
X134620000Y-104775000D01*
X141420710Y-112579290D02*
X141420710Y-105860710D01*
X139700000Y-114300000D02*
X141420710Y-112579290D01*
X137160000Y-101600000D02*
X137160000Y-99060000D01*
X141420710Y-105860710D02*
X137160000Y-101600000D01*
X154940000Y-106680000D02*
X151765000Y-106680000D01*
X149860000Y-104775000D02*
X149860000Y-99060000D01*
X151765000Y-106680000D02*
X149860000Y-104775000D01*
X152400000Y-101600000D02*
X152400000Y-99060000D01*
X156660710Y-105860710D02*
X152400000Y-101600000D01*
X156660710Y-112579290D02*
X156660710Y-105860710D01*
X154940000Y-114300000D02*
X156660710Y-112579290D01*
M02*
