G04 #@! TF.GenerationSoftware,KiCad,Pcbnew,(5.1.9)-1*
G04 #@! TF.CreationDate,2021-03-13T10:24:33-05:00*
G04 #@! TF.ProjectId,Aquarium_Dosing_Pump_Controller,41717561-7269-4756-9d5f-446f73696e67,rev?*
G04 #@! TF.SameCoordinates,Original*
G04 #@! TF.FileFunction,Copper,L2,Bot*
G04 #@! TF.FilePolarity,Positive*
%FSLAX46Y46*%
G04 Gerber Fmt 4.6, Leading zero omitted, Abs format (unit mm)*
G04 Created by KiCad (PCBNEW (5.1.9)-1) date 2021-03-13 10:24:33*
%MOMM*%
%LPD*%
G01*
G04 APERTURE LIST*
G04 #@! TA.AperFunction,ComponentPad*
%ADD10O,2.100000X1.900000*%
G04 #@! TD*
G04 #@! TA.AperFunction,ComponentPad*
%ADD11R,2.100000X1.900000*%
G04 #@! TD*
G04 #@! TA.AperFunction,ComponentPad*
%ADD12R,3.000000X3.000000*%
G04 #@! TD*
G04 #@! TA.AperFunction,ComponentPad*
%ADD13O,2.400000X1.600000*%
G04 #@! TD*
G04 #@! TA.AperFunction,ComponentPad*
%ADD14R,2.400000X1.600000*%
G04 #@! TD*
G04 #@! TA.AperFunction,ComponentPad*
%ADD15O,1.700000X1.700000*%
G04 #@! TD*
G04 #@! TA.AperFunction,ComponentPad*
%ADD16R,1.700000X1.700000*%
G04 #@! TD*
G04 #@! TA.AperFunction,ComponentPad*
%ADD17R,3.500000X3.500000*%
G04 #@! TD*
G04 #@! TA.AperFunction,ViaPad*
%ADD18C,0.838200*%
G04 #@! TD*
G04 #@! TA.AperFunction,Conductor*
%ADD19C,1.270000*%
G04 #@! TD*
G04 #@! TA.AperFunction,Conductor*
%ADD20C,0.254000*%
G04 #@! TD*
G04 #@! TA.AperFunction,Conductor*
%ADD21C,0.635000*%
G04 #@! TD*
G04 #@! TA.AperFunction,Conductor*
%ADD22C,0.100000*%
G04 #@! TD*
G04 APERTURE END LIST*
D10*
X77470000Y-105410000D03*
X57150000Y-105410000D03*
X77470000Y-102870000D03*
X57150000Y-102870000D03*
X77470000Y-100330000D03*
X57150000Y-100330000D03*
X77470000Y-97790000D03*
X57150000Y-97790000D03*
X77470000Y-95250000D03*
X57150000Y-95250000D03*
X77470000Y-92710000D03*
X57150000Y-92710000D03*
X77470000Y-90170000D03*
X57150000Y-90170000D03*
X77470000Y-87630000D03*
X57150000Y-87630000D03*
X77470000Y-85090000D03*
X57150000Y-85090000D03*
X77470000Y-82550000D03*
D11*
X57150000Y-82550000D03*
D12*
X204705000Y-94150000D03*
X204705000Y-83650000D03*
X186455000Y-94150000D03*
X186455000Y-83650000D03*
D13*
X147320000Y-114300000D03*
X154940000Y-106680000D03*
X147320000Y-111760000D03*
X154940000Y-109220000D03*
X147320000Y-109220000D03*
X154940000Y-111760000D03*
X147320000Y-106680000D03*
D14*
X154940000Y-114300000D03*
D13*
X132080000Y-114300000D03*
X139700000Y-106680000D03*
X132080000Y-111760000D03*
X139700000Y-109220000D03*
X132080000Y-109220000D03*
X139700000Y-111760000D03*
X132080000Y-106680000D03*
D14*
X139700000Y-114300000D03*
D13*
X116840000Y-114300000D03*
X124460000Y-106680000D03*
X116840000Y-111760000D03*
X124460000Y-109220000D03*
X116840000Y-109220000D03*
X124460000Y-111760000D03*
X116840000Y-106680000D03*
D14*
X124460000Y-114300000D03*
D13*
X162560000Y-114300000D03*
X170180000Y-106680000D03*
X162560000Y-111760000D03*
X170180000Y-109220000D03*
X162560000Y-109220000D03*
X170180000Y-111760000D03*
X162560000Y-106680000D03*
D14*
X170180000Y-114300000D03*
D15*
X149860000Y-99060000D03*
D16*
X152400000Y-99060000D03*
D15*
X134620000Y-99060000D03*
D16*
X137160000Y-99060000D03*
D15*
X119380000Y-99060000D03*
D16*
X121920000Y-99060000D03*
D15*
X165100000Y-99060000D03*
D16*
X167640000Y-99060000D03*
G04 #@! TA.AperFunction,ComponentPad*
G36*
G01*
X200330000Y-101105000D02*
X200330000Y-102855000D01*
G75*
G02*
X199455000Y-103730000I-875000J0D01*
G01*
X197705000Y-103730000D01*
G75*
G02*
X196830000Y-102855000I0J875000D01*
G01*
X196830000Y-101105000D01*
G75*
G02*
X197705000Y-100230000I875000J0D01*
G01*
X199455000Y-100230000D01*
G75*
G02*
X200330000Y-101105000I0J-875000D01*
G01*
G37*
G04 #@! TD.AperFunction*
G04 #@! TA.AperFunction,ComponentPad*
G36*
G01*
X203080000Y-105680000D02*
X203080000Y-107680000D01*
G75*
G02*
X202330000Y-108430000I-750000J0D01*
G01*
X200830000Y-108430000D01*
G75*
G02*
X200080000Y-107680000I0J750000D01*
G01*
X200080000Y-105680000D01*
G75*
G02*
X200830000Y-104930000I750000J0D01*
G01*
X202330000Y-104930000D01*
G75*
G02*
X203080000Y-105680000I0J-750000D01*
G01*
G37*
G04 #@! TD.AperFunction*
D17*
X195580000Y-106680000D03*
D18*
X143510000Y-104140000D03*
X128270000Y-104140000D03*
X158750000Y-104140000D03*
X173990000Y-103505000D03*
X202565000Y-76200000D03*
X111633000Y-113665000D03*
X171450000Y-93980000D03*
X156845000Y-93980000D03*
X140970000Y-93980000D03*
X126365000Y-93980000D03*
X110490000Y-101600000D03*
X106680000Y-101600000D03*
X93345000Y-100330000D03*
X97155000Y-90805000D03*
X97155000Y-89535000D03*
X97155000Y-88265000D03*
X97155000Y-86995000D03*
X110490000Y-90805000D03*
X110490000Y-89535000D03*
X110490000Y-88265000D03*
X110490000Y-86995000D03*
X110490000Y-85725000D03*
X121920000Y-80645000D03*
X96520000Y-75565000D03*
X106680000Y-95250000D03*
X102870000Y-95250000D03*
X97635000Y-93190000D03*
X105664000Y-93726000D03*
X103251000Y-93726000D03*
X99568000Y-92964000D03*
X95631000Y-94234000D03*
X92837000Y-94488000D03*
X90551000Y-95631000D03*
X88392000Y-112522000D03*
X82550000Y-112649000D03*
X87376000Y-111252000D03*
X82296000Y-111252000D03*
X104902000Y-107696000D03*
X100330000Y-107696000D03*
X84836000Y-107696000D03*
X80518000Y-107696000D03*
X158115000Y-111760000D03*
X142875000Y-111760000D03*
X127635000Y-111760000D03*
X173990029Y-111760029D03*
D19*
X143510000Y-104140000D02*
X143510000Y-103505000D01*
X158750000Y-104140000D02*
X159385000Y-104140000D01*
D20*
X106680000Y-95250000D02*
X102870000Y-95250000D01*
X99695000Y-95250000D02*
X97635000Y-93190000D01*
X102870000Y-95250000D02*
X99695000Y-95250000D01*
X105664000Y-93726000D02*
X103251000Y-93726000D01*
X99568000Y-92964000D02*
X98806000Y-92202000D01*
X98806000Y-92202000D02*
X97282000Y-92202000D01*
X97282000Y-92202000D02*
X95631000Y-93853000D01*
X95631000Y-93853000D02*
X95631000Y-94234000D01*
X92837000Y-94488000D02*
X91694000Y-95631000D01*
X91694000Y-95631000D02*
X90551000Y-95631000D01*
X88392000Y-112522000D02*
X82677000Y-112522000D01*
X82677000Y-112522000D02*
X82550000Y-112649000D01*
X87376000Y-111252000D02*
X82296000Y-111252000D01*
X104902000Y-107696000D02*
X101219000Y-107696000D01*
X101219000Y-107696000D02*
X100330000Y-107696000D01*
X84836000Y-107696000D02*
X80518000Y-107696000D01*
D19*
X195580000Y-106680000D02*
X195580000Y-112395000D01*
X195580000Y-112395000D02*
X190500000Y-117475000D01*
X130810000Y-117475000D02*
X127635000Y-114300000D01*
X127635000Y-109220000D02*
X124460000Y-109220000D01*
X124460000Y-111760000D02*
X127635000Y-111760000D01*
X127635000Y-111760000D02*
X127635000Y-109220000D01*
X127635000Y-114300000D02*
X127635000Y-111760000D01*
X142875000Y-109220000D02*
X142875000Y-111760000D01*
X142875000Y-111760000D02*
X142875000Y-117475000D01*
X142240000Y-117475000D02*
X130810000Y-117475000D01*
X158115000Y-109220000D02*
X158115000Y-111760000D01*
X158115000Y-111760000D02*
X158115000Y-117475000D01*
X157480000Y-117475000D02*
X142240000Y-117475000D01*
X172720000Y-117475000D02*
X157480000Y-117475000D01*
X190500000Y-117475000D02*
X172720000Y-117475000D01*
D21*
X139700000Y-109220000D02*
X140970000Y-109220000D01*
D19*
X140970000Y-109220000D02*
X142875000Y-109220000D01*
X140335000Y-109220000D02*
X140970000Y-109220000D01*
X142240000Y-111760000D02*
X139700000Y-111760000D01*
X154940000Y-109220000D02*
X158115000Y-109220000D01*
X154940000Y-111760000D02*
X158115000Y-111760000D01*
X173990029Y-109220029D02*
X173990029Y-111760029D01*
X173990000Y-109220000D02*
X173990029Y-109220029D01*
X170180000Y-109220000D02*
X173990000Y-109220000D01*
X173990000Y-111760000D02*
X173990029Y-111760029D01*
X170180000Y-111760000D02*
X173990000Y-111760000D01*
X173990000Y-116205000D02*
X173990000Y-109220000D01*
X172720000Y-117475000D02*
X173990000Y-116205000D01*
D20*
X205627168Y-74591610D02*
X205634672Y-74611812D01*
X205639806Y-74632745D01*
X205669570Y-74705756D01*
X205669576Y-74705772D01*
X205669577Y-74705773D01*
X206058100Y-75521100D01*
X206069066Y-75539657D01*
X206077823Y-75559346D01*
X206120055Y-75625948D01*
X206646820Y-76359588D01*
X206660898Y-76375910D01*
X206673004Y-76393737D01*
X206726363Y-76451808D01*
X207374718Y-77080572D01*
X207391468Y-77094146D01*
X207406537Y-77109545D01*
X207469335Y-77157249D01*
X208218788Y-77661260D01*
X208237672Y-77671651D01*
X208255234Y-77684141D01*
X208325488Y-77719971D01*
X209152350Y-78083300D01*
X209172771Y-78090181D01*
X209192272Y-78099366D01*
X209267760Y-78122188D01*
X209646050Y-78213154D01*
X209646049Y-114278137D01*
X209100492Y-114427169D01*
X209080285Y-114434675D01*
X209059356Y-114439808D01*
X208986329Y-114469578D01*
X208171002Y-114858102D01*
X208152446Y-114869066D01*
X208132755Y-114877825D01*
X208066168Y-114920048D01*
X208066153Y-114920057D01*
X208066148Y-114920061D01*
X207332514Y-115446822D01*
X207316191Y-115460901D01*
X207298364Y-115473007D01*
X207240293Y-115526366D01*
X206611530Y-116174722D01*
X206597959Y-116191468D01*
X206582557Y-116206540D01*
X206534854Y-116269339D01*
X206030843Y-117018793D01*
X206020455Y-117037673D01*
X206007962Y-117055238D01*
X205972133Y-117125492D01*
X205608803Y-117952354D01*
X205601920Y-117972781D01*
X205592738Y-117992276D01*
X205569916Y-118067765D01*
X205478950Y-118446053D01*
X191318680Y-118446053D01*
X191402370Y-118377370D01*
X191442141Y-118328909D01*
X196433920Y-113337132D01*
X196482370Y-113297370D01*
X196522132Y-113248920D01*
X196522135Y-113248917D01*
X196596219Y-113158645D01*
X196641075Y-113103988D01*
X196759003Y-112883359D01*
X196780004Y-112814129D01*
X196831623Y-112643964D01*
X196845839Y-112499622D01*
X196850000Y-112457380D01*
X196850000Y-112457373D01*
X196856143Y-112395000D01*
X196850000Y-112332627D01*
X196850000Y-109068072D01*
X197330000Y-109068072D01*
X197454482Y-109055812D01*
X197574180Y-109019502D01*
X197684494Y-108960537D01*
X197781185Y-108881185D01*
X197860537Y-108784494D01*
X197919502Y-108674180D01*
X197955812Y-108554482D01*
X197968072Y-108430000D01*
X199441928Y-108430000D01*
X199454188Y-108554482D01*
X199490498Y-108674180D01*
X199549463Y-108784494D01*
X199628815Y-108881185D01*
X199725506Y-108960537D01*
X199835820Y-109019502D01*
X199955518Y-109055812D01*
X200080000Y-109068072D01*
X201294250Y-109065000D01*
X201453000Y-108906250D01*
X201453000Y-106807000D01*
X201707000Y-106807000D01*
X201707000Y-108906250D01*
X201865750Y-109065000D01*
X203080000Y-109068072D01*
X203204482Y-109055812D01*
X203324180Y-109019502D01*
X203434494Y-108960537D01*
X203531185Y-108881185D01*
X203610537Y-108784494D01*
X203669502Y-108674180D01*
X203705812Y-108554482D01*
X203718072Y-108430000D01*
X203715000Y-106965750D01*
X203556250Y-106807000D01*
X201707000Y-106807000D01*
X201453000Y-106807000D01*
X199603750Y-106807000D01*
X199445000Y-106965750D01*
X199441928Y-108430000D01*
X197968072Y-108430000D01*
X197968072Y-104930000D01*
X199441928Y-104930000D01*
X199445000Y-106394250D01*
X199603750Y-106553000D01*
X201453000Y-106553000D01*
X201453000Y-104453750D01*
X201707000Y-104453750D01*
X201707000Y-106553000D01*
X203556250Y-106553000D01*
X203715000Y-106394250D01*
X203718072Y-104930000D01*
X203705812Y-104805518D01*
X203669502Y-104685820D01*
X203610537Y-104575506D01*
X203531185Y-104478815D01*
X203434494Y-104399463D01*
X203324180Y-104340498D01*
X203204482Y-104304188D01*
X203080000Y-104291928D01*
X201865750Y-104295000D01*
X201707000Y-104453750D01*
X201453000Y-104453750D01*
X201294250Y-104295000D01*
X200080000Y-104291928D01*
X199955518Y-104304188D01*
X199835820Y-104340498D01*
X199725506Y-104399463D01*
X199628815Y-104478815D01*
X199549463Y-104575506D01*
X199490498Y-104685820D01*
X199454188Y-104805518D01*
X199441928Y-104930000D01*
X197968072Y-104930000D01*
X197955812Y-104805518D01*
X197919502Y-104685820D01*
X197860537Y-104575506D01*
X197781185Y-104478815D01*
X197684494Y-104399463D01*
X197607869Y-104358506D01*
X197705000Y-104368072D01*
X199455000Y-104368072D01*
X199750186Y-104338999D01*
X200034028Y-104252896D01*
X200295618Y-104113073D01*
X200524903Y-103924903D01*
X200713073Y-103695618D01*
X200852896Y-103434028D01*
X200938999Y-103150186D01*
X200968072Y-102855000D01*
X200968072Y-101105000D01*
X200938999Y-100809814D01*
X200852896Y-100525972D01*
X200713073Y-100264382D01*
X200524903Y-100035097D01*
X200295618Y-99846927D01*
X200034028Y-99707104D01*
X199750186Y-99621001D01*
X199455000Y-99591928D01*
X197705000Y-99591928D01*
X197409814Y-99621001D01*
X197125972Y-99707104D01*
X196864382Y-99846927D01*
X196635097Y-100035097D01*
X196446927Y-100264382D01*
X196307104Y-100525972D01*
X196221001Y-100809814D01*
X196191928Y-101105000D01*
X196191928Y-102855000D01*
X196221001Y-103150186D01*
X196307104Y-103434028D01*
X196446927Y-103695618D01*
X196635097Y-103924903D01*
X196864382Y-104113073D01*
X197125972Y-104252896D01*
X197254643Y-104291928D01*
X193830000Y-104291928D01*
X193705518Y-104304188D01*
X193585820Y-104340498D01*
X193475506Y-104399463D01*
X193378815Y-104478815D01*
X193299463Y-104575506D01*
X193240498Y-104685820D01*
X193204188Y-104805518D01*
X193191928Y-104930000D01*
X193191928Y-108430000D01*
X193204188Y-108554482D01*
X193240498Y-108674180D01*
X193299463Y-108784494D01*
X193378815Y-108881185D01*
X193475506Y-108960537D01*
X193585820Y-109019502D01*
X193705518Y-109055812D01*
X193830000Y-109068072D01*
X194310000Y-109068072D01*
X194310001Y-111868947D01*
X189973950Y-116205000D01*
X175266143Y-116205000D01*
X175260000Y-116142628D01*
X175260000Y-111822703D01*
X175260029Y-111822409D01*
X175260029Y-111822401D01*
X175266172Y-111760028D01*
X175260029Y-111697656D01*
X175260029Y-109282401D01*
X175266172Y-109220028D01*
X175260029Y-109157656D01*
X175260029Y-109157649D01*
X175241652Y-108971066D01*
X175169032Y-108731670D01*
X175051104Y-108511041D01*
X174892399Y-108317659D01*
X174892383Y-108317646D01*
X174892370Y-108317630D01*
X174698988Y-108158925D01*
X174478359Y-108040997D01*
X174238963Y-107968377D01*
X174052380Y-107950000D01*
X173990000Y-107943856D01*
X173927620Y-107950000D01*
X171248142Y-107950000D01*
X171381101Y-107878932D01*
X171599608Y-107699608D01*
X171778932Y-107481101D01*
X171912182Y-107231808D01*
X171994236Y-106961309D01*
X172021943Y-106680000D01*
X171994236Y-106398691D01*
X171912182Y-106128192D01*
X171778932Y-105878899D01*
X171599608Y-105660392D01*
X171381101Y-105481068D01*
X171131808Y-105347818D01*
X170861309Y-105265764D01*
X170650492Y-105245000D01*
X169709508Y-105245000D01*
X169498691Y-105265764D01*
X169228192Y-105347818D01*
X168978899Y-105481068D01*
X168760392Y-105660392D01*
X168581068Y-105878899D01*
X168447818Y-106128192D01*
X168365764Y-106398691D01*
X168338057Y-106680000D01*
X168365764Y-106961309D01*
X168447818Y-107231808D01*
X168581068Y-107481101D01*
X168760392Y-107699608D01*
X168978899Y-107878932D01*
X169111858Y-107950000D01*
X168978899Y-108021068D01*
X168760392Y-108200392D01*
X168581068Y-108418899D01*
X168447818Y-108668192D01*
X168365764Y-108938691D01*
X168338057Y-109220000D01*
X168365764Y-109501309D01*
X168447818Y-109771808D01*
X168581068Y-110021101D01*
X168760392Y-110239608D01*
X168978899Y-110418932D01*
X169111858Y-110490000D01*
X168978899Y-110561068D01*
X168760392Y-110740392D01*
X168581068Y-110958899D01*
X168447818Y-111208192D01*
X168365764Y-111478691D01*
X168338057Y-111760000D01*
X168365764Y-112041309D01*
X168447818Y-112311808D01*
X168581068Y-112561101D01*
X168760392Y-112779608D01*
X168873482Y-112872419D01*
X168855518Y-112874188D01*
X168735820Y-112910498D01*
X168625506Y-112969463D01*
X168528815Y-113048815D01*
X168449463Y-113145506D01*
X168390498Y-113255820D01*
X168354188Y-113375518D01*
X168341928Y-113500000D01*
X168341928Y-115100000D01*
X168354188Y-115224482D01*
X168390498Y-115344180D01*
X168449463Y-115454494D01*
X168528815Y-115551185D01*
X168625506Y-115630537D01*
X168735820Y-115689502D01*
X168855518Y-115725812D01*
X168980000Y-115738072D01*
X171380000Y-115738072D01*
X171504482Y-115725812D01*
X171624180Y-115689502D01*
X171734494Y-115630537D01*
X171831185Y-115551185D01*
X171910537Y-115454494D01*
X171969502Y-115344180D01*
X172005812Y-115224482D01*
X172018072Y-115100000D01*
X172018072Y-113500000D01*
X172005812Y-113375518D01*
X171969502Y-113255820D01*
X171910537Y-113145506D01*
X171831185Y-113048815D01*
X171808259Y-113030000D01*
X172720000Y-113030000D01*
X172720000Y-115678949D01*
X172193950Y-116205000D01*
X159385000Y-116205000D01*
X159385000Y-114649039D01*
X160768096Y-114649039D01*
X160785633Y-114731818D01*
X160896285Y-114991646D01*
X161055500Y-115224895D01*
X161257161Y-115422601D01*
X161493517Y-115577166D01*
X161755486Y-115682650D01*
X162033000Y-115735000D01*
X162433000Y-115735000D01*
X162433000Y-114427000D01*
X162687000Y-114427000D01*
X162687000Y-115735000D01*
X163087000Y-115735000D01*
X163364514Y-115682650D01*
X163626483Y-115577166D01*
X163862839Y-115422601D01*
X164064500Y-115224895D01*
X164223715Y-114991646D01*
X164334367Y-114731818D01*
X164351904Y-114649039D01*
X164229915Y-114427000D01*
X162687000Y-114427000D01*
X162433000Y-114427000D01*
X160890085Y-114427000D01*
X160768096Y-114649039D01*
X159385000Y-114649039D01*
X159385000Y-111822379D01*
X159391144Y-111760000D01*
X160718057Y-111760000D01*
X160745764Y-112041309D01*
X160827818Y-112311808D01*
X160961068Y-112561101D01*
X161140392Y-112779608D01*
X161358899Y-112958932D01*
X161486741Y-113027265D01*
X161257161Y-113177399D01*
X161055500Y-113375105D01*
X160896285Y-113608354D01*
X160785633Y-113868182D01*
X160768096Y-113950961D01*
X160890085Y-114173000D01*
X162433000Y-114173000D01*
X162433000Y-114153000D01*
X162687000Y-114153000D01*
X162687000Y-114173000D01*
X164229915Y-114173000D01*
X164351904Y-113950961D01*
X164334367Y-113868182D01*
X164223715Y-113608354D01*
X164064500Y-113375105D01*
X163862839Y-113177399D01*
X163633259Y-113027265D01*
X163761101Y-112958932D01*
X163979608Y-112779608D01*
X164158932Y-112561101D01*
X164292182Y-112311808D01*
X164374236Y-112041309D01*
X164401943Y-111760000D01*
X164374236Y-111478691D01*
X164292182Y-111208192D01*
X164158932Y-110958899D01*
X163979608Y-110740392D01*
X163761101Y-110561068D01*
X163633259Y-110492735D01*
X163862839Y-110342601D01*
X164064500Y-110144895D01*
X164223715Y-109911646D01*
X164334367Y-109651818D01*
X164351904Y-109569039D01*
X164229915Y-109347000D01*
X162687000Y-109347000D01*
X162687000Y-109367000D01*
X162433000Y-109367000D01*
X162433000Y-109347000D01*
X160890085Y-109347000D01*
X160768096Y-109569039D01*
X160785633Y-109651818D01*
X160896285Y-109911646D01*
X161055500Y-110144895D01*
X161257161Y-110342601D01*
X161486741Y-110492735D01*
X161358899Y-110561068D01*
X161140392Y-110740392D01*
X160961068Y-110958899D01*
X160827818Y-111208192D01*
X160745764Y-111478691D01*
X160718057Y-111760000D01*
X159391144Y-111760000D01*
X159385000Y-111697620D01*
X159385000Y-109282380D01*
X159391144Y-109220000D01*
X159366623Y-108971037D01*
X159294003Y-108731641D01*
X159176075Y-108511012D01*
X159017370Y-108317630D01*
X158823988Y-108158925D01*
X158603359Y-108040997D01*
X158363963Y-107968377D01*
X158177380Y-107950000D01*
X158115000Y-107943856D01*
X158052620Y-107950000D01*
X156008142Y-107950000D01*
X156141101Y-107878932D01*
X156359608Y-107699608D01*
X156538932Y-107481101D01*
X156672182Y-107231808D01*
X156733690Y-107029039D01*
X160768096Y-107029039D01*
X160785633Y-107111818D01*
X160896285Y-107371646D01*
X161055500Y-107604895D01*
X161257161Y-107802601D01*
X161482559Y-107950000D01*
X161257161Y-108097399D01*
X161055500Y-108295105D01*
X160896285Y-108528354D01*
X160785633Y-108788182D01*
X160768096Y-108870961D01*
X160890085Y-109093000D01*
X162433000Y-109093000D01*
X162433000Y-106807000D01*
X162687000Y-106807000D01*
X162687000Y-109093000D01*
X164229915Y-109093000D01*
X164351904Y-108870961D01*
X164334367Y-108788182D01*
X164223715Y-108528354D01*
X164064500Y-108295105D01*
X163862839Y-108097399D01*
X163637441Y-107950000D01*
X163862839Y-107802601D01*
X164064500Y-107604895D01*
X164223715Y-107371646D01*
X164334367Y-107111818D01*
X164351904Y-107029039D01*
X164229915Y-106807000D01*
X162687000Y-106807000D01*
X162433000Y-106807000D01*
X160890085Y-106807000D01*
X160768096Y-107029039D01*
X156733690Y-107029039D01*
X156754236Y-106961309D01*
X156781943Y-106680000D01*
X156754236Y-106398691D01*
X156733691Y-106330961D01*
X160768096Y-106330961D01*
X160890085Y-106553000D01*
X162433000Y-106553000D01*
X162433000Y-105245000D01*
X162687000Y-105245000D01*
X162687000Y-106553000D01*
X164229915Y-106553000D01*
X164351904Y-106330961D01*
X164334367Y-106248182D01*
X164223715Y-105988354D01*
X164064500Y-105755105D01*
X163862839Y-105557399D01*
X163626483Y-105402834D01*
X163364514Y-105297350D01*
X163087000Y-105245000D01*
X162687000Y-105245000D01*
X162433000Y-105245000D01*
X162033000Y-105245000D01*
X161755486Y-105297350D01*
X161493517Y-105402834D01*
X161257161Y-105557399D01*
X161055500Y-105755105D01*
X160896285Y-105988354D01*
X160785633Y-106248182D01*
X160768096Y-106330961D01*
X156733691Y-106330961D01*
X156672182Y-106128192D01*
X156538932Y-105878899D01*
X156359608Y-105660392D01*
X156141101Y-105481068D01*
X155891808Y-105347818D01*
X155621309Y-105265764D01*
X155410492Y-105245000D01*
X154469508Y-105245000D01*
X154258691Y-105265764D01*
X153988192Y-105347818D01*
X153738899Y-105481068D01*
X153520392Y-105660392D01*
X153341068Y-105878899D01*
X153207818Y-106128192D01*
X153125764Y-106398691D01*
X153098057Y-106680000D01*
X153125764Y-106961309D01*
X153207818Y-107231808D01*
X153341068Y-107481101D01*
X153520392Y-107699608D01*
X153738899Y-107878932D01*
X153871858Y-107950000D01*
X153738899Y-108021068D01*
X153520392Y-108200392D01*
X153341068Y-108418899D01*
X153207818Y-108668192D01*
X153125764Y-108938691D01*
X153098057Y-109220000D01*
X153125764Y-109501309D01*
X153207818Y-109771808D01*
X153341068Y-110021101D01*
X153520392Y-110239608D01*
X153738899Y-110418932D01*
X153871858Y-110490000D01*
X153738899Y-110561068D01*
X153520392Y-110740392D01*
X153341068Y-110958899D01*
X153207818Y-111208192D01*
X153125764Y-111478691D01*
X153098057Y-111760000D01*
X153125764Y-112041309D01*
X153207818Y-112311808D01*
X153341068Y-112561101D01*
X153520392Y-112779608D01*
X153633482Y-112872419D01*
X153615518Y-112874188D01*
X153495820Y-112910498D01*
X153385506Y-112969463D01*
X153288815Y-113048815D01*
X153209463Y-113145506D01*
X153150498Y-113255820D01*
X153114188Y-113375518D01*
X153101928Y-113500000D01*
X153101928Y-115100000D01*
X153114188Y-115224482D01*
X153150498Y-115344180D01*
X153209463Y-115454494D01*
X153288815Y-115551185D01*
X153385506Y-115630537D01*
X153495820Y-115689502D01*
X153615518Y-115725812D01*
X153740000Y-115738072D01*
X156140000Y-115738072D01*
X156264482Y-115725812D01*
X156384180Y-115689502D01*
X156494494Y-115630537D01*
X156591185Y-115551185D01*
X156670537Y-115454494D01*
X156729502Y-115344180D01*
X156765812Y-115224482D01*
X156778072Y-115100000D01*
X156778072Y-113500000D01*
X156765812Y-113375518D01*
X156729502Y-113255820D01*
X156670537Y-113145506D01*
X156591185Y-113048815D01*
X156568259Y-113030000D01*
X156845000Y-113030000D01*
X156845001Y-116205000D01*
X144145000Y-116205000D01*
X144145000Y-114649039D01*
X145528096Y-114649039D01*
X145545633Y-114731818D01*
X145656285Y-114991646D01*
X145815500Y-115224895D01*
X146017161Y-115422601D01*
X146253517Y-115577166D01*
X146515486Y-115682650D01*
X146793000Y-115735000D01*
X147193000Y-115735000D01*
X147193000Y-114427000D01*
X147447000Y-114427000D01*
X147447000Y-115735000D01*
X147847000Y-115735000D01*
X148124514Y-115682650D01*
X148386483Y-115577166D01*
X148622839Y-115422601D01*
X148824500Y-115224895D01*
X148983715Y-114991646D01*
X149094367Y-114731818D01*
X149111904Y-114649039D01*
X148989915Y-114427000D01*
X147447000Y-114427000D01*
X147193000Y-114427000D01*
X145650085Y-114427000D01*
X145528096Y-114649039D01*
X144145000Y-114649039D01*
X144145000Y-111760000D01*
X145478057Y-111760000D01*
X145505764Y-112041309D01*
X145587818Y-112311808D01*
X145721068Y-112561101D01*
X145900392Y-112779608D01*
X146118899Y-112958932D01*
X146246741Y-113027265D01*
X146017161Y-113177399D01*
X145815500Y-113375105D01*
X145656285Y-113608354D01*
X145545633Y-113868182D01*
X145528096Y-113950961D01*
X145650085Y-114173000D01*
X147193000Y-114173000D01*
X147193000Y-114153000D01*
X147447000Y-114153000D01*
X147447000Y-114173000D01*
X148989915Y-114173000D01*
X149111904Y-113950961D01*
X149094367Y-113868182D01*
X148983715Y-113608354D01*
X148824500Y-113375105D01*
X148622839Y-113177399D01*
X148393259Y-113027265D01*
X148521101Y-112958932D01*
X148739608Y-112779608D01*
X148918932Y-112561101D01*
X149052182Y-112311808D01*
X149134236Y-112041309D01*
X149161943Y-111760000D01*
X149134236Y-111478691D01*
X149052182Y-111208192D01*
X148918932Y-110958899D01*
X148739608Y-110740392D01*
X148521101Y-110561068D01*
X148393259Y-110492735D01*
X148622839Y-110342601D01*
X148824500Y-110144895D01*
X148983715Y-109911646D01*
X149094367Y-109651818D01*
X149111904Y-109569039D01*
X148989915Y-109347000D01*
X147447000Y-109347000D01*
X147447000Y-109367000D01*
X147193000Y-109367000D01*
X147193000Y-109347000D01*
X145650085Y-109347000D01*
X145528096Y-109569039D01*
X145545633Y-109651818D01*
X145656285Y-109911646D01*
X145815500Y-110144895D01*
X146017161Y-110342601D01*
X146246741Y-110492735D01*
X146118899Y-110561068D01*
X145900392Y-110740392D01*
X145721068Y-110958899D01*
X145587818Y-111208192D01*
X145505764Y-111478691D01*
X145478057Y-111760000D01*
X144145000Y-111760000D01*
X144145000Y-109282380D01*
X144151144Y-109220000D01*
X144126623Y-108971037D01*
X144054003Y-108731641D01*
X143936075Y-108511012D01*
X143777370Y-108317630D01*
X143583988Y-108158925D01*
X143363359Y-108040997D01*
X143123963Y-107968377D01*
X142937380Y-107950000D01*
X142875000Y-107943856D01*
X142812620Y-107950000D01*
X140768142Y-107950000D01*
X140901101Y-107878932D01*
X141119608Y-107699608D01*
X141298932Y-107481101D01*
X141432182Y-107231808D01*
X141493690Y-107029039D01*
X145528096Y-107029039D01*
X145545633Y-107111818D01*
X145656285Y-107371646D01*
X145815500Y-107604895D01*
X146017161Y-107802601D01*
X146242559Y-107950000D01*
X146017161Y-108097399D01*
X145815500Y-108295105D01*
X145656285Y-108528354D01*
X145545633Y-108788182D01*
X145528096Y-108870961D01*
X145650085Y-109093000D01*
X147193000Y-109093000D01*
X147193000Y-106807000D01*
X147447000Y-106807000D01*
X147447000Y-109093000D01*
X148989915Y-109093000D01*
X149111904Y-108870961D01*
X149094367Y-108788182D01*
X148983715Y-108528354D01*
X148824500Y-108295105D01*
X148622839Y-108097399D01*
X148397441Y-107950000D01*
X148622839Y-107802601D01*
X148824500Y-107604895D01*
X148983715Y-107371646D01*
X149094367Y-107111818D01*
X149111904Y-107029039D01*
X148989915Y-106807000D01*
X147447000Y-106807000D01*
X147193000Y-106807000D01*
X145650085Y-106807000D01*
X145528096Y-107029039D01*
X141493690Y-107029039D01*
X141514236Y-106961309D01*
X141541943Y-106680000D01*
X141514236Y-106398691D01*
X141493691Y-106330961D01*
X145528096Y-106330961D01*
X145650085Y-106553000D01*
X147193000Y-106553000D01*
X147193000Y-105245000D01*
X147447000Y-105245000D01*
X147447000Y-106553000D01*
X148989915Y-106553000D01*
X149111904Y-106330961D01*
X149094367Y-106248182D01*
X148983715Y-105988354D01*
X148824500Y-105755105D01*
X148622839Y-105557399D01*
X148386483Y-105402834D01*
X148124514Y-105297350D01*
X147847000Y-105245000D01*
X147447000Y-105245000D01*
X147193000Y-105245000D01*
X146793000Y-105245000D01*
X146515486Y-105297350D01*
X146253517Y-105402834D01*
X146017161Y-105557399D01*
X145815500Y-105755105D01*
X145656285Y-105988354D01*
X145545633Y-106248182D01*
X145528096Y-106330961D01*
X141493691Y-106330961D01*
X141432182Y-106128192D01*
X141298932Y-105878899D01*
X141119608Y-105660392D01*
X140901101Y-105481068D01*
X140651808Y-105347818D01*
X140381309Y-105265764D01*
X140170492Y-105245000D01*
X139229508Y-105245000D01*
X139018691Y-105265764D01*
X138748192Y-105347818D01*
X138498899Y-105481068D01*
X138280392Y-105660392D01*
X138101068Y-105878899D01*
X137967818Y-106128192D01*
X137885764Y-106398691D01*
X137858057Y-106680000D01*
X137885764Y-106961309D01*
X137967818Y-107231808D01*
X138101068Y-107481101D01*
X138280392Y-107699608D01*
X138498899Y-107878932D01*
X138631858Y-107950000D01*
X138498899Y-108021068D01*
X138280392Y-108200392D01*
X138101068Y-108418899D01*
X137967818Y-108668192D01*
X137885764Y-108938691D01*
X137858057Y-109220000D01*
X137885764Y-109501309D01*
X137967818Y-109771808D01*
X138101068Y-110021101D01*
X138280392Y-110239608D01*
X138498899Y-110418932D01*
X138631858Y-110490000D01*
X138498899Y-110561068D01*
X138280392Y-110740392D01*
X138101068Y-110958899D01*
X137967818Y-111208192D01*
X137885764Y-111478691D01*
X137858057Y-111760000D01*
X137885764Y-112041309D01*
X137967818Y-112311808D01*
X138101068Y-112561101D01*
X138280392Y-112779608D01*
X138393482Y-112872419D01*
X138375518Y-112874188D01*
X138255820Y-112910498D01*
X138145506Y-112969463D01*
X138048815Y-113048815D01*
X137969463Y-113145506D01*
X137910498Y-113255820D01*
X137874188Y-113375518D01*
X137861928Y-113500000D01*
X137861928Y-115100000D01*
X137874188Y-115224482D01*
X137910498Y-115344180D01*
X137969463Y-115454494D01*
X138048815Y-115551185D01*
X138145506Y-115630537D01*
X138255820Y-115689502D01*
X138375518Y-115725812D01*
X138500000Y-115738072D01*
X140900000Y-115738072D01*
X141024482Y-115725812D01*
X141144180Y-115689502D01*
X141254494Y-115630537D01*
X141351185Y-115551185D01*
X141430537Y-115454494D01*
X141489502Y-115344180D01*
X141525812Y-115224482D01*
X141538072Y-115100000D01*
X141538072Y-113500000D01*
X141525812Y-113375518D01*
X141489502Y-113255820D01*
X141430537Y-113145506D01*
X141351185Y-113048815D01*
X141328259Y-113030000D01*
X141605000Y-113030000D01*
X141605001Y-116205000D01*
X131336051Y-116205000D01*
X129780090Y-114649039D01*
X130288096Y-114649039D01*
X130305633Y-114731818D01*
X130416285Y-114991646D01*
X130575500Y-115224895D01*
X130777161Y-115422601D01*
X131013517Y-115577166D01*
X131275486Y-115682650D01*
X131553000Y-115735000D01*
X131953000Y-115735000D01*
X131953000Y-114427000D01*
X132207000Y-114427000D01*
X132207000Y-115735000D01*
X132607000Y-115735000D01*
X132884514Y-115682650D01*
X133146483Y-115577166D01*
X133382839Y-115422601D01*
X133584500Y-115224895D01*
X133743715Y-114991646D01*
X133854367Y-114731818D01*
X133871904Y-114649039D01*
X133749915Y-114427000D01*
X132207000Y-114427000D01*
X131953000Y-114427000D01*
X130410085Y-114427000D01*
X130288096Y-114649039D01*
X129780090Y-114649039D01*
X128905000Y-113773950D01*
X128905000Y-111822379D01*
X128911144Y-111760000D01*
X130238057Y-111760000D01*
X130265764Y-112041309D01*
X130347818Y-112311808D01*
X130481068Y-112561101D01*
X130660392Y-112779608D01*
X130878899Y-112958932D01*
X131006741Y-113027265D01*
X130777161Y-113177399D01*
X130575500Y-113375105D01*
X130416285Y-113608354D01*
X130305633Y-113868182D01*
X130288096Y-113950961D01*
X130410085Y-114173000D01*
X131953000Y-114173000D01*
X131953000Y-114153000D01*
X132207000Y-114153000D01*
X132207000Y-114173000D01*
X133749915Y-114173000D01*
X133871904Y-113950961D01*
X133854367Y-113868182D01*
X133743715Y-113608354D01*
X133584500Y-113375105D01*
X133382839Y-113177399D01*
X133153259Y-113027265D01*
X133281101Y-112958932D01*
X133499608Y-112779608D01*
X133678932Y-112561101D01*
X133812182Y-112311808D01*
X133894236Y-112041309D01*
X133921943Y-111760000D01*
X133894236Y-111478691D01*
X133812182Y-111208192D01*
X133678932Y-110958899D01*
X133499608Y-110740392D01*
X133281101Y-110561068D01*
X133153259Y-110492735D01*
X133382839Y-110342601D01*
X133584500Y-110144895D01*
X133743715Y-109911646D01*
X133854367Y-109651818D01*
X133871904Y-109569039D01*
X133749915Y-109347000D01*
X132207000Y-109347000D01*
X132207000Y-109367000D01*
X131953000Y-109367000D01*
X131953000Y-109347000D01*
X130410085Y-109347000D01*
X130288096Y-109569039D01*
X130305633Y-109651818D01*
X130416285Y-109911646D01*
X130575500Y-110144895D01*
X130777161Y-110342601D01*
X131006741Y-110492735D01*
X130878899Y-110561068D01*
X130660392Y-110740392D01*
X130481068Y-110958899D01*
X130347818Y-111208192D01*
X130265764Y-111478691D01*
X130238057Y-111760000D01*
X128911144Y-111760000D01*
X128905000Y-111697620D01*
X128905000Y-109282380D01*
X128911144Y-109220000D01*
X128886623Y-108971037D01*
X128814003Y-108731641D01*
X128696075Y-108511012D01*
X128537370Y-108317630D01*
X128343988Y-108158925D01*
X128123359Y-108040997D01*
X127883963Y-107968377D01*
X127697380Y-107950000D01*
X127635000Y-107943856D01*
X127572620Y-107950000D01*
X125528142Y-107950000D01*
X125661101Y-107878932D01*
X125879608Y-107699608D01*
X126058932Y-107481101D01*
X126192182Y-107231808D01*
X126253690Y-107029039D01*
X130288096Y-107029039D01*
X130305633Y-107111818D01*
X130416285Y-107371646D01*
X130575500Y-107604895D01*
X130777161Y-107802601D01*
X131002559Y-107950000D01*
X130777161Y-108097399D01*
X130575500Y-108295105D01*
X130416285Y-108528354D01*
X130305633Y-108788182D01*
X130288096Y-108870961D01*
X130410085Y-109093000D01*
X131953000Y-109093000D01*
X131953000Y-106807000D01*
X132207000Y-106807000D01*
X132207000Y-109093000D01*
X133749915Y-109093000D01*
X133871904Y-108870961D01*
X133854367Y-108788182D01*
X133743715Y-108528354D01*
X133584500Y-108295105D01*
X133382839Y-108097399D01*
X133157441Y-107950000D01*
X133382839Y-107802601D01*
X133584500Y-107604895D01*
X133743715Y-107371646D01*
X133854367Y-107111818D01*
X133871904Y-107029039D01*
X133749915Y-106807000D01*
X132207000Y-106807000D01*
X131953000Y-106807000D01*
X130410085Y-106807000D01*
X130288096Y-107029039D01*
X126253690Y-107029039D01*
X126274236Y-106961309D01*
X126301943Y-106680000D01*
X126274236Y-106398691D01*
X126253691Y-106330961D01*
X130288096Y-106330961D01*
X130410085Y-106553000D01*
X131953000Y-106553000D01*
X131953000Y-105245000D01*
X132207000Y-105245000D01*
X132207000Y-106553000D01*
X133749915Y-106553000D01*
X133871904Y-106330961D01*
X133854367Y-106248182D01*
X133743715Y-105988354D01*
X133584500Y-105755105D01*
X133382839Y-105557399D01*
X133146483Y-105402834D01*
X132884514Y-105297350D01*
X132607000Y-105245000D01*
X132207000Y-105245000D01*
X131953000Y-105245000D01*
X131553000Y-105245000D01*
X131275486Y-105297350D01*
X131013517Y-105402834D01*
X130777161Y-105557399D01*
X130575500Y-105755105D01*
X130416285Y-105988354D01*
X130305633Y-106248182D01*
X130288096Y-106330961D01*
X126253691Y-106330961D01*
X126192182Y-106128192D01*
X126058932Y-105878899D01*
X125879608Y-105660392D01*
X125661101Y-105481068D01*
X125411808Y-105347818D01*
X125141309Y-105265764D01*
X124930492Y-105245000D01*
X123989508Y-105245000D01*
X123778691Y-105265764D01*
X123508192Y-105347818D01*
X123258899Y-105481068D01*
X123040392Y-105660392D01*
X122861068Y-105878899D01*
X122727818Y-106128192D01*
X122645764Y-106398691D01*
X122618057Y-106680000D01*
X122645764Y-106961309D01*
X122727818Y-107231808D01*
X122861068Y-107481101D01*
X123040392Y-107699608D01*
X123258899Y-107878932D01*
X123391858Y-107950000D01*
X123258899Y-108021068D01*
X123040392Y-108200392D01*
X122861068Y-108418899D01*
X122727818Y-108668192D01*
X122645764Y-108938691D01*
X122618057Y-109220000D01*
X122645764Y-109501309D01*
X122727818Y-109771808D01*
X122861068Y-110021101D01*
X123040392Y-110239608D01*
X123258899Y-110418932D01*
X123391858Y-110490000D01*
X123258899Y-110561068D01*
X123040392Y-110740392D01*
X122861068Y-110958899D01*
X122727818Y-111208192D01*
X122645764Y-111478691D01*
X122618057Y-111760000D01*
X122645764Y-112041309D01*
X122727818Y-112311808D01*
X122861068Y-112561101D01*
X123040392Y-112779608D01*
X123153482Y-112872419D01*
X123135518Y-112874188D01*
X123015820Y-112910498D01*
X122905506Y-112969463D01*
X122808815Y-113048815D01*
X122729463Y-113145506D01*
X122670498Y-113255820D01*
X122634188Y-113375518D01*
X122621928Y-113500000D01*
X122621928Y-115100000D01*
X122634188Y-115224482D01*
X122670498Y-115344180D01*
X122729463Y-115454494D01*
X122808815Y-115551185D01*
X122905506Y-115630537D01*
X123015820Y-115689502D01*
X123135518Y-115725812D01*
X123260000Y-115738072D01*
X125660000Y-115738072D01*
X125784482Y-115725812D01*
X125904180Y-115689502D01*
X126014494Y-115630537D01*
X126111185Y-115551185D01*
X126190537Y-115454494D01*
X126249502Y-115344180D01*
X126285812Y-115224482D01*
X126298072Y-115100000D01*
X126298072Y-113500000D01*
X126285812Y-113375518D01*
X126249502Y-113255820D01*
X126190537Y-113145506D01*
X126111185Y-113048815D01*
X126088259Y-113030000D01*
X126365000Y-113030000D01*
X126365000Y-114237627D01*
X126358857Y-114300000D01*
X126365000Y-114362373D01*
X126365000Y-114362379D01*
X126383377Y-114548962D01*
X126455997Y-114788358D01*
X126573925Y-115008987D01*
X126732630Y-115202370D01*
X126781091Y-115242141D01*
X129867863Y-118328914D01*
X129907630Y-118377370D01*
X129991320Y-118446053D01*
X52573963Y-118446053D01*
X52424931Y-117900496D01*
X52417426Y-117880294D01*
X52412293Y-117859362D01*
X52382523Y-117786334D01*
X51993999Y-116971006D01*
X51983037Y-116952454D01*
X51974276Y-116932758D01*
X51932044Y-116866156D01*
X51405279Y-116132517D01*
X51391201Y-116116195D01*
X51379095Y-116098368D01*
X51325750Y-116040313D01*
X51325736Y-116040297D01*
X51325730Y-116040292D01*
X50677380Y-115411535D01*
X50660634Y-115397964D01*
X50645562Y-115382562D01*
X50582763Y-115334858D01*
X49833309Y-114830846D01*
X49814425Y-114820455D01*
X49796863Y-114807965D01*
X49726623Y-114772143D01*
X49726610Y-114772136D01*
X49726606Y-114772135D01*
X49446466Y-114649039D01*
X115048096Y-114649039D01*
X115065633Y-114731818D01*
X115176285Y-114991646D01*
X115335500Y-115224895D01*
X115537161Y-115422601D01*
X115773517Y-115577166D01*
X116035486Y-115682650D01*
X116313000Y-115735000D01*
X116713000Y-115735000D01*
X116713000Y-114427000D01*
X116967000Y-114427000D01*
X116967000Y-115735000D01*
X117367000Y-115735000D01*
X117644514Y-115682650D01*
X117906483Y-115577166D01*
X118142839Y-115422601D01*
X118344500Y-115224895D01*
X118503715Y-114991646D01*
X118614367Y-114731818D01*
X118631904Y-114649039D01*
X118509915Y-114427000D01*
X116967000Y-114427000D01*
X116713000Y-114427000D01*
X115170085Y-114427000D01*
X115048096Y-114649039D01*
X49446466Y-114649039D01*
X48899747Y-114408807D01*
X48879322Y-114401925D01*
X48859826Y-114392742D01*
X48784338Y-114369920D01*
X48406049Y-114278954D01*
X48406049Y-111148180D01*
X81241900Y-111148180D01*
X81241900Y-111355820D01*
X81282409Y-111559470D01*
X81361869Y-111751303D01*
X81477227Y-111923949D01*
X81624051Y-112070773D01*
X81654853Y-112091354D01*
X81615869Y-112149697D01*
X81536409Y-112341530D01*
X81495900Y-112545180D01*
X81495900Y-112752820D01*
X81536409Y-112956470D01*
X81615869Y-113148303D01*
X81731227Y-113320949D01*
X81878051Y-113467773D01*
X82050697Y-113583131D01*
X82242530Y-113662591D01*
X82446180Y-113703100D01*
X82653820Y-113703100D01*
X82857470Y-113662591D01*
X83049303Y-113583131D01*
X83221949Y-113467773D01*
X83368773Y-113320949D01*
X83393461Y-113284000D01*
X87663278Y-113284000D01*
X87720051Y-113340773D01*
X87892697Y-113456131D01*
X88084530Y-113535591D01*
X88288180Y-113576100D01*
X88495820Y-113576100D01*
X88699470Y-113535591D01*
X88891303Y-113456131D01*
X89063949Y-113340773D01*
X89210773Y-113193949D01*
X89326131Y-113021303D01*
X89405591Y-112829470D01*
X89446100Y-112625820D01*
X89446100Y-112418180D01*
X89405591Y-112214530D01*
X89326131Y-112022697D01*
X89210773Y-111850051D01*
X89120722Y-111760000D01*
X114998057Y-111760000D01*
X115025764Y-112041309D01*
X115107818Y-112311808D01*
X115241068Y-112561101D01*
X115420392Y-112779608D01*
X115638899Y-112958932D01*
X115766741Y-113027265D01*
X115537161Y-113177399D01*
X115335500Y-113375105D01*
X115176285Y-113608354D01*
X115065633Y-113868182D01*
X115048096Y-113950961D01*
X115170085Y-114173000D01*
X116713000Y-114173000D01*
X116713000Y-114153000D01*
X116967000Y-114153000D01*
X116967000Y-114173000D01*
X118509915Y-114173000D01*
X118631904Y-113950961D01*
X118614367Y-113868182D01*
X118503715Y-113608354D01*
X118344500Y-113375105D01*
X118142839Y-113177399D01*
X117913259Y-113027265D01*
X118041101Y-112958932D01*
X118259608Y-112779608D01*
X118438932Y-112561101D01*
X118572182Y-112311808D01*
X118654236Y-112041309D01*
X118681943Y-111760000D01*
X118654236Y-111478691D01*
X118572182Y-111208192D01*
X118438932Y-110958899D01*
X118259608Y-110740392D01*
X118041101Y-110561068D01*
X117913259Y-110492735D01*
X118142839Y-110342601D01*
X118344500Y-110144895D01*
X118503715Y-109911646D01*
X118614367Y-109651818D01*
X118631904Y-109569039D01*
X118509915Y-109347000D01*
X116967000Y-109347000D01*
X116967000Y-109367000D01*
X116713000Y-109367000D01*
X116713000Y-109347000D01*
X115170085Y-109347000D01*
X115048096Y-109569039D01*
X115065633Y-109651818D01*
X115176285Y-109911646D01*
X115335500Y-110144895D01*
X115537161Y-110342601D01*
X115766741Y-110492735D01*
X115638899Y-110561068D01*
X115420392Y-110740392D01*
X115241068Y-110958899D01*
X115107818Y-111208192D01*
X115025764Y-111478691D01*
X114998057Y-111760000D01*
X89120722Y-111760000D01*
X89063949Y-111703227D01*
X88891303Y-111587869D01*
X88699470Y-111508409D01*
X88495820Y-111467900D01*
X88407806Y-111467900D01*
X88430100Y-111355820D01*
X88430100Y-111148180D01*
X88389591Y-110944530D01*
X88310131Y-110752697D01*
X88194773Y-110580051D01*
X88047949Y-110433227D01*
X87875303Y-110317869D01*
X87683470Y-110238409D01*
X87479820Y-110197900D01*
X87272180Y-110197900D01*
X87068530Y-110238409D01*
X86876697Y-110317869D01*
X86704051Y-110433227D01*
X86647278Y-110490000D01*
X83024722Y-110490000D01*
X82967949Y-110433227D01*
X82795303Y-110317869D01*
X82603470Y-110238409D01*
X82399820Y-110197900D01*
X82192180Y-110197900D01*
X81988530Y-110238409D01*
X81796697Y-110317869D01*
X81624051Y-110433227D01*
X81477227Y-110580051D01*
X81361869Y-110752697D01*
X81282409Y-110944530D01*
X81241900Y-111148180D01*
X48406049Y-111148180D01*
X48406049Y-107592180D01*
X79463900Y-107592180D01*
X79463900Y-107799820D01*
X79504409Y-108003470D01*
X79583869Y-108195303D01*
X79699227Y-108367949D01*
X79846051Y-108514773D01*
X80018697Y-108630131D01*
X80210530Y-108709591D01*
X80414180Y-108750100D01*
X80621820Y-108750100D01*
X80825470Y-108709591D01*
X81017303Y-108630131D01*
X81189949Y-108514773D01*
X81246722Y-108458000D01*
X84107278Y-108458000D01*
X84164051Y-108514773D01*
X84336697Y-108630131D01*
X84528530Y-108709591D01*
X84732180Y-108750100D01*
X84939820Y-108750100D01*
X85143470Y-108709591D01*
X85335303Y-108630131D01*
X85507949Y-108514773D01*
X85654773Y-108367949D01*
X85770131Y-108195303D01*
X85849591Y-108003470D01*
X85890100Y-107799820D01*
X85890100Y-107592180D01*
X99275900Y-107592180D01*
X99275900Y-107799820D01*
X99316409Y-108003470D01*
X99395869Y-108195303D01*
X99511227Y-108367949D01*
X99658051Y-108514773D01*
X99830697Y-108630131D01*
X100022530Y-108709591D01*
X100226180Y-108750100D01*
X100433820Y-108750100D01*
X100637470Y-108709591D01*
X100829303Y-108630131D01*
X101001949Y-108514773D01*
X101058722Y-108458000D01*
X104173278Y-108458000D01*
X104230051Y-108514773D01*
X104402697Y-108630131D01*
X104594530Y-108709591D01*
X104798180Y-108750100D01*
X105005820Y-108750100D01*
X105209470Y-108709591D01*
X105401303Y-108630131D01*
X105573949Y-108514773D01*
X105720773Y-108367949D01*
X105836131Y-108195303D01*
X105915591Y-108003470D01*
X105956100Y-107799820D01*
X105956100Y-107592180D01*
X105915591Y-107388530D01*
X105836131Y-107196697D01*
X105724106Y-107029039D01*
X115048096Y-107029039D01*
X115065633Y-107111818D01*
X115176285Y-107371646D01*
X115335500Y-107604895D01*
X115537161Y-107802601D01*
X115762559Y-107950000D01*
X115537161Y-108097399D01*
X115335500Y-108295105D01*
X115176285Y-108528354D01*
X115065633Y-108788182D01*
X115048096Y-108870961D01*
X115170085Y-109093000D01*
X116713000Y-109093000D01*
X116713000Y-106807000D01*
X116967000Y-106807000D01*
X116967000Y-109093000D01*
X118509915Y-109093000D01*
X118631904Y-108870961D01*
X118614367Y-108788182D01*
X118503715Y-108528354D01*
X118344500Y-108295105D01*
X118142839Y-108097399D01*
X117917441Y-107950000D01*
X118142839Y-107802601D01*
X118344500Y-107604895D01*
X118503715Y-107371646D01*
X118614367Y-107111818D01*
X118631904Y-107029039D01*
X118509915Y-106807000D01*
X116967000Y-106807000D01*
X116713000Y-106807000D01*
X115170085Y-106807000D01*
X115048096Y-107029039D01*
X105724106Y-107029039D01*
X105720773Y-107024051D01*
X105573949Y-106877227D01*
X105401303Y-106761869D01*
X105209470Y-106682409D01*
X105005820Y-106641900D01*
X104798180Y-106641900D01*
X104594530Y-106682409D01*
X104402697Y-106761869D01*
X104230051Y-106877227D01*
X104173278Y-106934000D01*
X101058722Y-106934000D01*
X101001949Y-106877227D01*
X100829303Y-106761869D01*
X100637470Y-106682409D01*
X100433820Y-106641900D01*
X100226180Y-106641900D01*
X100022530Y-106682409D01*
X99830697Y-106761869D01*
X99658051Y-106877227D01*
X99511227Y-107024051D01*
X99395869Y-107196697D01*
X99316409Y-107388530D01*
X99275900Y-107592180D01*
X85890100Y-107592180D01*
X85849591Y-107388530D01*
X85770131Y-107196697D01*
X85654773Y-107024051D01*
X85507949Y-106877227D01*
X85335303Y-106761869D01*
X85143470Y-106682409D01*
X84939820Y-106641900D01*
X84732180Y-106641900D01*
X84528530Y-106682409D01*
X84336697Y-106761869D01*
X84164051Y-106877227D01*
X84107278Y-106934000D01*
X81246722Y-106934000D01*
X81189949Y-106877227D01*
X81017303Y-106761869D01*
X80825470Y-106682409D01*
X80621820Y-106641900D01*
X80414180Y-106641900D01*
X80210530Y-106682409D01*
X80018697Y-106761869D01*
X79846051Y-106877227D01*
X79699227Y-107024051D01*
X79583869Y-107196697D01*
X79504409Y-107388530D01*
X79463900Y-107592180D01*
X48406049Y-107592180D01*
X48406049Y-105782588D01*
X55509414Y-105782588D01*
X55600272Y-106048603D01*
X55752713Y-106319160D01*
X55955008Y-106554779D01*
X56199383Y-106746405D01*
X56476447Y-106886674D01*
X56775553Y-106970195D01*
X57023000Y-106835169D01*
X57023000Y-105537000D01*
X57277000Y-105537000D01*
X57277000Y-106835169D01*
X57524447Y-106970195D01*
X57823553Y-106886674D01*
X58100617Y-106746405D01*
X58344992Y-106554779D01*
X58547287Y-106319160D01*
X58699728Y-106048603D01*
X58790586Y-105782588D01*
X75829414Y-105782588D01*
X75920272Y-106048603D01*
X76072713Y-106319160D01*
X76275008Y-106554779D01*
X76519383Y-106746405D01*
X76796447Y-106886674D01*
X77095553Y-106970195D01*
X77343000Y-106835169D01*
X77343000Y-105537000D01*
X77597000Y-105537000D01*
X77597000Y-106835169D01*
X77844447Y-106970195D01*
X78143553Y-106886674D01*
X78420617Y-106746405D01*
X78664992Y-106554779D01*
X78857155Y-106330961D01*
X115048096Y-106330961D01*
X115170085Y-106553000D01*
X116713000Y-106553000D01*
X116713000Y-105245000D01*
X116967000Y-105245000D01*
X116967000Y-106553000D01*
X118509915Y-106553000D01*
X118631904Y-106330961D01*
X118614367Y-106248182D01*
X118503715Y-105988354D01*
X118344500Y-105755105D01*
X118142839Y-105557399D01*
X117906483Y-105402834D01*
X117644514Y-105297350D01*
X117367000Y-105245000D01*
X116967000Y-105245000D01*
X116713000Y-105245000D01*
X116313000Y-105245000D01*
X116035486Y-105297350D01*
X115773517Y-105402834D01*
X115537161Y-105557399D01*
X115335500Y-105755105D01*
X115176285Y-105988354D01*
X115065633Y-106248182D01*
X115048096Y-106330961D01*
X78857155Y-106330961D01*
X78867287Y-106319160D01*
X79019728Y-106048603D01*
X79110586Y-105782588D01*
X78990584Y-105537000D01*
X77597000Y-105537000D01*
X77343000Y-105537000D01*
X75949416Y-105537000D01*
X75829414Y-105782588D01*
X58790586Y-105782588D01*
X58670584Y-105537000D01*
X57277000Y-105537000D01*
X57023000Y-105537000D01*
X55629416Y-105537000D01*
X55509414Y-105782588D01*
X48406049Y-105782588D01*
X48406049Y-85090000D01*
X55457331Y-85090000D01*
X55487934Y-85400714D01*
X55578566Y-85699488D01*
X55725744Y-85974839D01*
X55923813Y-86216187D01*
X56099050Y-86360000D01*
X55923813Y-86503813D01*
X55725744Y-86745161D01*
X55578566Y-87020512D01*
X55487934Y-87319286D01*
X55457331Y-87630000D01*
X55487934Y-87940714D01*
X55578566Y-88239488D01*
X55725744Y-88514839D01*
X55923813Y-88756187D01*
X56099050Y-88900000D01*
X55923813Y-89043813D01*
X55725744Y-89285161D01*
X55578566Y-89560512D01*
X55487934Y-89859286D01*
X55457331Y-90170000D01*
X55487934Y-90480714D01*
X55578566Y-90779488D01*
X55725744Y-91054839D01*
X55923813Y-91296187D01*
X56099050Y-91440000D01*
X55923813Y-91583813D01*
X55725744Y-91825161D01*
X55578566Y-92100512D01*
X55487934Y-92399286D01*
X55457331Y-92710000D01*
X55487934Y-93020714D01*
X55578566Y-93319488D01*
X55725744Y-93594839D01*
X55923813Y-93836187D01*
X56099050Y-93980000D01*
X55923813Y-94123813D01*
X55725744Y-94365161D01*
X55578566Y-94640512D01*
X55487934Y-94939286D01*
X55457331Y-95250000D01*
X55487934Y-95560714D01*
X55578566Y-95859488D01*
X55725744Y-96134839D01*
X55923813Y-96376187D01*
X56099050Y-96520000D01*
X55923813Y-96663813D01*
X55725744Y-96905161D01*
X55578566Y-97180512D01*
X55487934Y-97479286D01*
X55457331Y-97790000D01*
X55487934Y-98100714D01*
X55578566Y-98399488D01*
X55725744Y-98674839D01*
X55923813Y-98916187D01*
X56099050Y-99060000D01*
X55923813Y-99203813D01*
X55725744Y-99445161D01*
X55578566Y-99720512D01*
X55487934Y-100019286D01*
X55457331Y-100330000D01*
X55487934Y-100640714D01*
X55578566Y-100939488D01*
X55725744Y-101214839D01*
X55923813Y-101456187D01*
X56099050Y-101600000D01*
X55923813Y-101743813D01*
X55725744Y-101985161D01*
X55578566Y-102260512D01*
X55487934Y-102559286D01*
X55457331Y-102870000D01*
X55487934Y-103180714D01*
X55578566Y-103479488D01*
X55725744Y-103754839D01*
X55923813Y-103996187D01*
X56106696Y-104146275D01*
X55955008Y-104265221D01*
X55752713Y-104500840D01*
X55600272Y-104771397D01*
X55509414Y-105037412D01*
X55629416Y-105283000D01*
X57023000Y-105283000D01*
X57023000Y-105263000D01*
X57277000Y-105263000D01*
X57277000Y-105283000D01*
X58670584Y-105283000D01*
X58790586Y-105037412D01*
X58699728Y-104771397D01*
X58547287Y-104500840D01*
X58344992Y-104265221D01*
X58193304Y-104146275D01*
X58376187Y-103996187D01*
X58574256Y-103754839D01*
X58721434Y-103479488D01*
X58812066Y-103180714D01*
X58842669Y-102870000D01*
X58812066Y-102559286D01*
X58721434Y-102260512D01*
X58574256Y-101985161D01*
X58376187Y-101743813D01*
X58200950Y-101600000D01*
X58376187Y-101456187D01*
X58574256Y-101214839D01*
X58721434Y-100939488D01*
X58812066Y-100640714D01*
X58842669Y-100330000D01*
X58812066Y-100019286D01*
X58721434Y-99720512D01*
X58574256Y-99445161D01*
X58376187Y-99203813D01*
X58200950Y-99060000D01*
X58376187Y-98916187D01*
X58574256Y-98674839D01*
X58721434Y-98399488D01*
X58812066Y-98100714D01*
X58842669Y-97790000D01*
X58812066Y-97479286D01*
X58721434Y-97180512D01*
X58574256Y-96905161D01*
X58376187Y-96663813D01*
X58200950Y-96520000D01*
X58376187Y-96376187D01*
X58574256Y-96134839D01*
X58721434Y-95859488D01*
X58812066Y-95560714D01*
X58842669Y-95250000D01*
X58812066Y-94939286D01*
X58721434Y-94640512D01*
X58574256Y-94365161D01*
X58376187Y-94123813D01*
X58200950Y-93980000D01*
X58376187Y-93836187D01*
X58574256Y-93594839D01*
X58721434Y-93319488D01*
X58812066Y-93020714D01*
X58842669Y-92710000D01*
X58812066Y-92399286D01*
X58721434Y-92100512D01*
X58574256Y-91825161D01*
X58376187Y-91583813D01*
X58200950Y-91440000D01*
X58376187Y-91296187D01*
X58574256Y-91054839D01*
X58721434Y-90779488D01*
X58812066Y-90480714D01*
X58842669Y-90170000D01*
X58812066Y-89859286D01*
X58721434Y-89560512D01*
X58574256Y-89285161D01*
X58376187Y-89043813D01*
X58200950Y-88900000D01*
X58376187Y-88756187D01*
X58574256Y-88514839D01*
X58721434Y-88239488D01*
X58812066Y-87940714D01*
X58842669Y-87630000D01*
X58812066Y-87319286D01*
X58721434Y-87020512D01*
X58574256Y-86745161D01*
X58376187Y-86503813D01*
X58200950Y-86360000D01*
X58376187Y-86216187D01*
X58574256Y-85974839D01*
X58721434Y-85699488D01*
X58812066Y-85400714D01*
X58842669Y-85090000D01*
X58812066Y-84779286D01*
X58721434Y-84480512D01*
X58574256Y-84205161D01*
X58468617Y-84076440D01*
X58554494Y-84030537D01*
X58651185Y-83951185D01*
X58730537Y-83854494D01*
X58789502Y-83744180D01*
X58825812Y-83624482D01*
X58838072Y-83500000D01*
X58838072Y-82550000D01*
X75777331Y-82550000D01*
X75807934Y-82860714D01*
X75898566Y-83159488D01*
X76045744Y-83434839D01*
X76243813Y-83676187D01*
X76419050Y-83820000D01*
X76243813Y-83963813D01*
X76045744Y-84205161D01*
X75898566Y-84480512D01*
X75807934Y-84779286D01*
X75777331Y-85090000D01*
X75807934Y-85400714D01*
X75898566Y-85699488D01*
X76045744Y-85974839D01*
X76243813Y-86216187D01*
X76419050Y-86360000D01*
X76243813Y-86503813D01*
X76045744Y-86745161D01*
X75898566Y-87020512D01*
X75807934Y-87319286D01*
X75777331Y-87630000D01*
X75807934Y-87940714D01*
X75898566Y-88239488D01*
X76045744Y-88514839D01*
X76243813Y-88756187D01*
X76419050Y-88900000D01*
X76243813Y-89043813D01*
X76045744Y-89285161D01*
X75898566Y-89560512D01*
X75807934Y-89859286D01*
X75777331Y-90170000D01*
X75807934Y-90480714D01*
X75898566Y-90779488D01*
X76045744Y-91054839D01*
X76243813Y-91296187D01*
X76419050Y-91440000D01*
X76243813Y-91583813D01*
X76045744Y-91825161D01*
X75898566Y-92100512D01*
X75807934Y-92399286D01*
X75777331Y-92710000D01*
X75807934Y-93020714D01*
X75898566Y-93319488D01*
X76045744Y-93594839D01*
X76243813Y-93836187D01*
X76419050Y-93980000D01*
X76243813Y-94123813D01*
X76045744Y-94365161D01*
X75898566Y-94640512D01*
X75807934Y-94939286D01*
X75777331Y-95250000D01*
X75807934Y-95560714D01*
X75898566Y-95859488D01*
X76045744Y-96134839D01*
X76243813Y-96376187D01*
X76419050Y-96520000D01*
X76243813Y-96663813D01*
X76045744Y-96905161D01*
X75898566Y-97180512D01*
X75807934Y-97479286D01*
X75777331Y-97790000D01*
X75807934Y-98100714D01*
X75898566Y-98399488D01*
X76045744Y-98674839D01*
X76243813Y-98916187D01*
X76419050Y-99060000D01*
X76243813Y-99203813D01*
X76045744Y-99445161D01*
X75898566Y-99720512D01*
X75807934Y-100019286D01*
X75777331Y-100330000D01*
X75807934Y-100640714D01*
X75898566Y-100939488D01*
X76045744Y-101214839D01*
X76243813Y-101456187D01*
X76419050Y-101600000D01*
X76243813Y-101743813D01*
X76045744Y-101985161D01*
X75898566Y-102260512D01*
X75807934Y-102559286D01*
X75777331Y-102870000D01*
X75807934Y-103180714D01*
X75898566Y-103479488D01*
X76045744Y-103754839D01*
X76243813Y-103996187D01*
X76426696Y-104146275D01*
X76275008Y-104265221D01*
X76072713Y-104500840D01*
X75920272Y-104771397D01*
X75829414Y-105037412D01*
X75949416Y-105283000D01*
X77343000Y-105283000D01*
X77343000Y-105263000D01*
X77597000Y-105263000D01*
X77597000Y-105283000D01*
X78990584Y-105283000D01*
X79110586Y-105037412D01*
X79019728Y-104771397D01*
X78867287Y-104500840D01*
X78664992Y-104265221D01*
X78513304Y-104146275D01*
X78696187Y-103996187D01*
X78894256Y-103754839D01*
X79041434Y-103479488D01*
X79132066Y-103180714D01*
X79162669Y-102870000D01*
X79132066Y-102559286D01*
X79041434Y-102260512D01*
X78894256Y-101985161D01*
X78696187Y-101743813D01*
X78520950Y-101600000D01*
X78696187Y-101456187D01*
X78894256Y-101214839D01*
X79041434Y-100939488D01*
X79132066Y-100640714D01*
X79162669Y-100330000D01*
X79132066Y-100019286D01*
X79041434Y-99720512D01*
X78894256Y-99445161D01*
X78696187Y-99203813D01*
X78520950Y-99060000D01*
X78696187Y-98916187D01*
X78698195Y-98913740D01*
X117895000Y-98913740D01*
X117895000Y-99206260D01*
X117952068Y-99493158D01*
X118064010Y-99763411D01*
X118226525Y-100006632D01*
X118433368Y-100213475D01*
X118676589Y-100375990D01*
X118946842Y-100487932D01*
X119233740Y-100545000D01*
X119526260Y-100545000D01*
X119813158Y-100487932D01*
X120083411Y-100375990D01*
X120326632Y-100213475D01*
X120458487Y-100081620D01*
X120480498Y-100154180D01*
X120539463Y-100264494D01*
X120618815Y-100361185D01*
X120715506Y-100440537D01*
X120825820Y-100499502D01*
X120945518Y-100535812D01*
X121070000Y-100548072D01*
X122770000Y-100548072D01*
X122894482Y-100535812D01*
X123014180Y-100499502D01*
X123124494Y-100440537D01*
X123221185Y-100361185D01*
X123300537Y-100264494D01*
X123359502Y-100154180D01*
X123395812Y-100034482D01*
X123408072Y-99910000D01*
X123408072Y-98913740D01*
X133135000Y-98913740D01*
X133135000Y-99206260D01*
X133192068Y-99493158D01*
X133304010Y-99763411D01*
X133466525Y-100006632D01*
X133673368Y-100213475D01*
X133916589Y-100375990D01*
X134186842Y-100487932D01*
X134473740Y-100545000D01*
X134766260Y-100545000D01*
X135053158Y-100487932D01*
X135323411Y-100375990D01*
X135566632Y-100213475D01*
X135698487Y-100081620D01*
X135720498Y-100154180D01*
X135779463Y-100264494D01*
X135858815Y-100361185D01*
X135955506Y-100440537D01*
X136065820Y-100499502D01*
X136185518Y-100535812D01*
X136310000Y-100548072D01*
X138010000Y-100548072D01*
X138134482Y-100535812D01*
X138254180Y-100499502D01*
X138364494Y-100440537D01*
X138461185Y-100361185D01*
X138540537Y-100264494D01*
X138599502Y-100154180D01*
X138635812Y-100034482D01*
X138648072Y-99910000D01*
X138648072Y-98913740D01*
X148375000Y-98913740D01*
X148375000Y-99206260D01*
X148432068Y-99493158D01*
X148544010Y-99763411D01*
X148706525Y-100006632D01*
X148913368Y-100213475D01*
X149156589Y-100375990D01*
X149426842Y-100487932D01*
X149713740Y-100545000D01*
X150006260Y-100545000D01*
X150293158Y-100487932D01*
X150563411Y-100375990D01*
X150806632Y-100213475D01*
X150938487Y-100081620D01*
X150960498Y-100154180D01*
X151019463Y-100264494D01*
X151098815Y-100361185D01*
X151195506Y-100440537D01*
X151305820Y-100499502D01*
X151425518Y-100535812D01*
X151550000Y-100548072D01*
X153250000Y-100548072D01*
X153374482Y-100535812D01*
X153494180Y-100499502D01*
X153604494Y-100440537D01*
X153701185Y-100361185D01*
X153780537Y-100264494D01*
X153839502Y-100154180D01*
X153875812Y-100034482D01*
X153888072Y-99910000D01*
X153888072Y-98913740D01*
X163615000Y-98913740D01*
X163615000Y-99206260D01*
X163672068Y-99493158D01*
X163784010Y-99763411D01*
X163946525Y-100006632D01*
X164153368Y-100213475D01*
X164396589Y-100375990D01*
X164666842Y-100487932D01*
X164953740Y-100545000D01*
X165246260Y-100545000D01*
X165533158Y-100487932D01*
X165803411Y-100375990D01*
X166046632Y-100213475D01*
X166178487Y-100081620D01*
X166200498Y-100154180D01*
X166259463Y-100264494D01*
X166338815Y-100361185D01*
X166435506Y-100440537D01*
X166545820Y-100499502D01*
X166665518Y-100535812D01*
X166790000Y-100548072D01*
X168490000Y-100548072D01*
X168614482Y-100535812D01*
X168734180Y-100499502D01*
X168844494Y-100440537D01*
X168941185Y-100361185D01*
X169020537Y-100264494D01*
X169079502Y-100154180D01*
X169115812Y-100034482D01*
X169128072Y-99910000D01*
X169128072Y-98210000D01*
X169115812Y-98085518D01*
X169079502Y-97965820D01*
X169020537Y-97855506D01*
X168941185Y-97758815D01*
X168844494Y-97679463D01*
X168734180Y-97620498D01*
X168614482Y-97584188D01*
X168490000Y-97571928D01*
X166790000Y-97571928D01*
X166665518Y-97584188D01*
X166545820Y-97620498D01*
X166435506Y-97679463D01*
X166338815Y-97758815D01*
X166259463Y-97855506D01*
X166200498Y-97965820D01*
X166178487Y-98038380D01*
X166046632Y-97906525D01*
X165803411Y-97744010D01*
X165533158Y-97632068D01*
X165246260Y-97575000D01*
X164953740Y-97575000D01*
X164666842Y-97632068D01*
X164396589Y-97744010D01*
X164153368Y-97906525D01*
X163946525Y-98113368D01*
X163784010Y-98356589D01*
X163672068Y-98626842D01*
X163615000Y-98913740D01*
X153888072Y-98913740D01*
X153888072Y-98210000D01*
X153875812Y-98085518D01*
X153839502Y-97965820D01*
X153780537Y-97855506D01*
X153701185Y-97758815D01*
X153604494Y-97679463D01*
X153494180Y-97620498D01*
X153374482Y-97584188D01*
X153250000Y-97571928D01*
X151550000Y-97571928D01*
X151425518Y-97584188D01*
X151305820Y-97620498D01*
X151195506Y-97679463D01*
X151098815Y-97758815D01*
X151019463Y-97855506D01*
X150960498Y-97965820D01*
X150938487Y-98038380D01*
X150806632Y-97906525D01*
X150563411Y-97744010D01*
X150293158Y-97632068D01*
X150006260Y-97575000D01*
X149713740Y-97575000D01*
X149426842Y-97632068D01*
X149156589Y-97744010D01*
X148913368Y-97906525D01*
X148706525Y-98113368D01*
X148544010Y-98356589D01*
X148432068Y-98626842D01*
X148375000Y-98913740D01*
X138648072Y-98913740D01*
X138648072Y-98210000D01*
X138635812Y-98085518D01*
X138599502Y-97965820D01*
X138540537Y-97855506D01*
X138461185Y-97758815D01*
X138364494Y-97679463D01*
X138254180Y-97620498D01*
X138134482Y-97584188D01*
X138010000Y-97571928D01*
X136310000Y-97571928D01*
X136185518Y-97584188D01*
X136065820Y-97620498D01*
X135955506Y-97679463D01*
X135858815Y-97758815D01*
X135779463Y-97855506D01*
X135720498Y-97965820D01*
X135698487Y-98038380D01*
X135566632Y-97906525D01*
X135323411Y-97744010D01*
X135053158Y-97632068D01*
X134766260Y-97575000D01*
X134473740Y-97575000D01*
X134186842Y-97632068D01*
X133916589Y-97744010D01*
X133673368Y-97906525D01*
X133466525Y-98113368D01*
X133304010Y-98356589D01*
X133192068Y-98626842D01*
X133135000Y-98913740D01*
X123408072Y-98913740D01*
X123408072Y-98210000D01*
X123395812Y-98085518D01*
X123359502Y-97965820D01*
X123300537Y-97855506D01*
X123221185Y-97758815D01*
X123124494Y-97679463D01*
X123014180Y-97620498D01*
X122894482Y-97584188D01*
X122770000Y-97571928D01*
X121070000Y-97571928D01*
X120945518Y-97584188D01*
X120825820Y-97620498D01*
X120715506Y-97679463D01*
X120618815Y-97758815D01*
X120539463Y-97855506D01*
X120480498Y-97965820D01*
X120458487Y-98038380D01*
X120326632Y-97906525D01*
X120083411Y-97744010D01*
X119813158Y-97632068D01*
X119526260Y-97575000D01*
X119233740Y-97575000D01*
X118946842Y-97632068D01*
X118676589Y-97744010D01*
X118433368Y-97906525D01*
X118226525Y-98113368D01*
X118064010Y-98356589D01*
X117952068Y-98626842D01*
X117895000Y-98913740D01*
X78698195Y-98913740D01*
X78894256Y-98674839D01*
X79041434Y-98399488D01*
X79132066Y-98100714D01*
X79162669Y-97790000D01*
X79132066Y-97479286D01*
X79041434Y-97180512D01*
X78894256Y-96905161D01*
X78696187Y-96663813D01*
X78520950Y-96520000D01*
X78696187Y-96376187D01*
X78894256Y-96134839D01*
X79041434Y-95859488D01*
X79132066Y-95560714D01*
X79135368Y-95527180D01*
X89496900Y-95527180D01*
X89496900Y-95734820D01*
X89537409Y-95938470D01*
X89616869Y-96130303D01*
X89732227Y-96302949D01*
X89879051Y-96449773D01*
X90051697Y-96565131D01*
X90243530Y-96644591D01*
X90447180Y-96685100D01*
X90654820Y-96685100D01*
X90858470Y-96644591D01*
X91050303Y-96565131D01*
X91222949Y-96449773D01*
X91279722Y-96393000D01*
X91656577Y-96393000D01*
X91694000Y-96396686D01*
X91731423Y-96393000D01*
X91731426Y-96393000D01*
X91843378Y-96381974D01*
X91987015Y-96338402D01*
X92119392Y-96267645D01*
X92235422Y-96172422D01*
X92259284Y-96143346D01*
X92860531Y-95542100D01*
X92940820Y-95542100D01*
X93144470Y-95501591D01*
X93336303Y-95422131D01*
X93508949Y-95306773D01*
X93655773Y-95159949D01*
X93771131Y-94987303D01*
X93850591Y-94795470D01*
X93891100Y-94591820D01*
X93891100Y-94384180D01*
X93850591Y-94180530D01*
X93829736Y-94130180D01*
X94576900Y-94130180D01*
X94576900Y-94337820D01*
X94617409Y-94541470D01*
X94696869Y-94733303D01*
X94812227Y-94905949D01*
X94959051Y-95052773D01*
X95131697Y-95168131D01*
X95323530Y-95247591D01*
X95527180Y-95288100D01*
X95734820Y-95288100D01*
X95938470Y-95247591D01*
X96130303Y-95168131D01*
X96302949Y-95052773D01*
X96449773Y-94905949D01*
X96565131Y-94733303D01*
X96644591Y-94541470D01*
X96685100Y-94337820D01*
X96685100Y-94130180D01*
X96644591Y-93926530D01*
X96641811Y-93919819D01*
X96769545Y-93792085D01*
X96816227Y-93861949D01*
X96963051Y-94008773D01*
X97135697Y-94124131D01*
X97327530Y-94203591D01*
X97531180Y-94244100D01*
X97611470Y-94244100D01*
X99129721Y-95762352D01*
X99153578Y-95791422D01*
X99182648Y-95815279D01*
X99269607Y-95886645D01*
X99335657Y-95921949D01*
X99401985Y-95957402D01*
X99545622Y-96000974D01*
X99657574Y-96012000D01*
X99657577Y-96012000D01*
X99695000Y-96015686D01*
X99732423Y-96012000D01*
X102141278Y-96012000D01*
X102198051Y-96068773D01*
X102370697Y-96184131D01*
X102562530Y-96263591D01*
X102766180Y-96304100D01*
X102973820Y-96304100D01*
X103177470Y-96263591D01*
X103369303Y-96184131D01*
X103541949Y-96068773D01*
X103598722Y-96012000D01*
X105951278Y-96012000D01*
X106008051Y-96068773D01*
X106180697Y-96184131D01*
X106372530Y-96263591D01*
X106576180Y-96304100D01*
X106783820Y-96304100D01*
X106987470Y-96263591D01*
X107179303Y-96184131D01*
X107351949Y-96068773D01*
X107498773Y-95921949D01*
X107614131Y-95749303D01*
X107693591Y-95557470D01*
X107734100Y-95353820D01*
X107734100Y-95146180D01*
X107693591Y-94942530D01*
X107614131Y-94750697D01*
X107498773Y-94578051D01*
X107351949Y-94431227D01*
X107179303Y-94315869D01*
X106987470Y-94236409D01*
X106783820Y-94195900D01*
X106610310Y-94195900D01*
X106677591Y-94033470D01*
X106718100Y-93829820D01*
X106718100Y-93622180D01*
X106677591Y-93418530D01*
X106598131Y-93226697D01*
X106482773Y-93054051D01*
X106335949Y-92907227D01*
X106163303Y-92791869D01*
X105971470Y-92712409D01*
X105767820Y-92671900D01*
X105560180Y-92671900D01*
X105356530Y-92712409D01*
X105164697Y-92791869D01*
X104992051Y-92907227D01*
X104935278Y-92964000D01*
X103979722Y-92964000D01*
X103922949Y-92907227D01*
X103750303Y-92791869D01*
X103558470Y-92712409D01*
X103354820Y-92671900D01*
X103147180Y-92671900D01*
X102943530Y-92712409D01*
X102751697Y-92791869D01*
X102579051Y-92907227D01*
X102432227Y-93054051D01*
X102316869Y-93226697D01*
X102237409Y-93418530D01*
X102196900Y-93622180D01*
X102196900Y-93829820D01*
X102237409Y-94033470D01*
X102316869Y-94225303D01*
X102375934Y-94313700D01*
X102370697Y-94315869D01*
X102198051Y-94431227D01*
X102141278Y-94488000D01*
X100010631Y-94488000D01*
X99540731Y-94018100D01*
X99671820Y-94018100D01*
X99875470Y-93977591D01*
X100067303Y-93898131D01*
X100239949Y-93782773D01*
X100386773Y-93635949D01*
X100502131Y-93463303D01*
X100581591Y-93271470D01*
X100622100Y-93067820D01*
X100622100Y-92860180D01*
X100581591Y-92656530D01*
X100578887Y-92650000D01*
X184316928Y-92650000D01*
X184316928Y-95650000D01*
X184329188Y-95774482D01*
X184365498Y-95894180D01*
X184424463Y-96004494D01*
X184503815Y-96101185D01*
X184600506Y-96180537D01*
X184710820Y-96239502D01*
X184830518Y-96275812D01*
X184955000Y-96288072D01*
X187955000Y-96288072D01*
X188079482Y-96275812D01*
X188199180Y-96239502D01*
X188309494Y-96180537D01*
X188406185Y-96101185D01*
X188485537Y-96004494D01*
X188544502Y-95894180D01*
X188580812Y-95774482D01*
X188593072Y-95650000D01*
X188593072Y-92650000D01*
X202566928Y-92650000D01*
X202566928Y-95650000D01*
X202579188Y-95774482D01*
X202615498Y-95894180D01*
X202674463Y-96004494D01*
X202753815Y-96101185D01*
X202850506Y-96180537D01*
X202960820Y-96239502D01*
X203080518Y-96275812D01*
X203205000Y-96288072D01*
X206205000Y-96288072D01*
X206329482Y-96275812D01*
X206449180Y-96239502D01*
X206559494Y-96180537D01*
X206656185Y-96101185D01*
X206735537Y-96004494D01*
X206794502Y-95894180D01*
X206830812Y-95774482D01*
X206843072Y-95650000D01*
X206843072Y-92650000D01*
X206830812Y-92525518D01*
X206794502Y-92405820D01*
X206735537Y-92295506D01*
X206656185Y-92198815D01*
X206559494Y-92119463D01*
X206449180Y-92060498D01*
X206329482Y-92024188D01*
X206205000Y-92011928D01*
X203205000Y-92011928D01*
X203080518Y-92024188D01*
X202960820Y-92060498D01*
X202850506Y-92119463D01*
X202753815Y-92198815D01*
X202674463Y-92295506D01*
X202615498Y-92405820D01*
X202579188Y-92525518D01*
X202566928Y-92650000D01*
X188593072Y-92650000D01*
X188580812Y-92525518D01*
X188544502Y-92405820D01*
X188485537Y-92295506D01*
X188406185Y-92198815D01*
X188309494Y-92119463D01*
X188199180Y-92060498D01*
X188079482Y-92024188D01*
X187955000Y-92011928D01*
X184955000Y-92011928D01*
X184830518Y-92024188D01*
X184710820Y-92060498D01*
X184600506Y-92119463D01*
X184503815Y-92198815D01*
X184424463Y-92295506D01*
X184365498Y-92405820D01*
X184329188Y-92525518D01*
X184316928Y-92650000D01*
X100578887Y-92650000D01*
X100502131Y-92464697D01*
X100386773Y-92292051D01*
X100239949Y-92145227D01*
X100067303Y-92029869D01*
X99875470Y-91950409D01*
X99671820Y-91909900D01*
X99591530Y-91909900D01*
X99371284Y-91689653D01*
X99347422Y-91660578D01*
X99231392Y-91565355D01*
X99099015Y-91494598D01*
X98955378Y-91451026D01*
X98843426Y-91440000D01*
X98843423Y-91440000D01*
X98806000Y-91436314D01*
X98768577Y-91440000D01*
X97319423Y-91440000D01*
X97282000Y-91436314D01*
X97244577Y-91440000D01*
X97244574Y-91440000D01*
X97132622Y-91451026D01*
X96988985Y-91494598D01*
X96927364Y-91527535D01*
X96856607Y-91565355D01*
X96814219Y-91600143D01*
X96740578Y-91660578D01*
X96716716Y-91689654D01*
X95118654Y-93287716D01*
X95089578Y-93311578D01*
X95059717Y-93347965D01*
X94959051Y-93415227D01*
X94812227Y-93562051D01*
X94696869Y-93734697D01*
X94617409Y-93926530D01*
X94576900Y-94130180D01*
X93829736Y-94130180D01*
X93771131Y-93988697D01*
X93655773Y-93816051D01*
X93508949Y-93669227D01*
X93336303Y-93553869D01*
X93144470Y-93474409D01*
X92940820Y-93433900D01*
X92733180Y-93433900D01*
X92529530Y-93474409D01*
X92337697Y-93553869D01*
X92165051Y-93669227D01*
X92018227Y-93816051D01*
X91902869Y-93988697D01*
X91823409Y-94180530D01*
X91782900Y-94384180D01*
X91782900Y-94464469D01*
X91378370Y-94869000D01*
X91279722Y-94869000D01*
X91222949Y-94812227D01*
X91050303Y-94696869D01*
X90858470Y-94617409D01*
X90654820Y-94576900D01*
X90447180Y-94576900D01*
X90243530Y-94617409D01*
X90051697Y-94696869D01*
X89879051Y-94812227D01*
X89732227Y-94959051D01*
X89616869Y-95131697D01*
X89537409Y-95323530D01*
X89496900Y-95527180D01*
X79135368Y-95527180D01*
X79162669Y-95250000D01*
X79132066Y-94939286D01*
X79041434Y-94640512D01*
X78894256Y-94365161D01*
X78696187Y-94123813D01*
X78520950Y-93980000D01*
X78696187Y-93836187D01*
X78894256Y-93594839D01*
X79041434Y-93319488D01*
X79132066Y-93020714D01*
X79162669Y-92710000D01*
X79132066Y-92399286D01*
X79041434Y-92100512D01*
X78894256Y-91825161D01*
X78696187Y-91583813D01*
X78520950Y-91440000D01*
X78696187Y-91296187D01*
X78894256Y-91054839D01*
X79041434Y-90779488D01*
X79132066Y-90480714D01*
X79162669Y-90170000D01*
X79132066Y-89859286D01*
X79041434Y-89560512D01*
X78894256Y-89285161D01*
X78696187Y-89043813D01*
X78520950Y-88900000D01*
X78696187Y-88756187D01*
X78894256Y-88514839D01*
X79041434Y-88239488D01*
X79132066Y-87940714D01*
X79162669Y-87630000D01*
X79132066Y-87319286D01*
X79041434Y-87020512D01*
X78894256Y-86745161D01*
X78696187Y-86503813D01*
X78520950Y-86360000D01*
X78696187Y-86216187D01*
X78894256Y-85974839D01*
X79041434Y-85699488D01*
X79132066Y-85400714D01*
X79156759Y-85150000D01*
X184316928Y-85150000D01*
X184329188Y-85274482D01*
X184365498Y-85394180D01*
X184424463Y-85504494D01*
X184503815Y-85601185D01*
X184600506Y-85680537D01*
X184710820Y-85739502D01*
X184830518Y-85775812D01*
X184955000Y-85788072D01*
X186169250Y-85785000D01*
X186328000Y-85626250D01*
X186328000Y-83777000D01*
X186582000Y-83777000D01*
X186582000Y-85626250D01*
X186740750Y-85785000D01*
X187955000Y-85788072D01*
X188079482Y-85775812D01*
X188199180Y-85739502D01*
X188309494Y-85680537D01*
X188406185Y-85601185D01*
X188485537Y-85504494D01*
X188544502Y-85394180D01*
X188580812Y-85274482D01*
X188593072Y-85150000D01*
X202566928Y-85150000D01*
X202579188Y-85274482D01*
X202615498Y-85394180D01*
X202674463Y-85504494D01*
X202753815Y-85601185D01*
X202850506Y-85680537D01*
X202960820Y-85739502D01*
X203080518Y-85775812D01*
X203205000Y-85788072D01*
X204419250Y-85785000D01*
X204578000Y-85626250D01*
X204578000Y-83777000D01*
X204832000Y-83777000D01*
X204832000Y-85626250D01*
X204990750Y-85785000D01*
X206205000Y-85788072D01*
X206329482Y-85775812D01*
X206449180Y-85739502D01*
X206559494Y-85680537D01*
X206656185Y-85601185D01*
X206735537Y-85504494D01*
X206794502Y-85394180D01*
X206830812Y-85274482D01*
X206843072Y-85150000D01*
X206840000Y-83935750D01*
X206681250Y-83777000D01*
X204832000Y-83777000D01*
X204578000Y-83777000D01*
X202728750Y-83777000D01*
X202570000Y-83935750D01*
X202566928Y-85150000D01*
X188593072Y-85150000D01*
X188590000Y-83935750D01*
X188431250Y-83777000D01*
X186582000Y-83777000D01*
X186328000Y-83777000D01*
X184478750Y-83777000D01*
X184320000Y-83935750D01*
X184316928Y-85150000D01*
X79156759Y-85150000D01*
X79162669Y-85090000D01*
X79132066Y-84779286D01*
X79041434Y-84480512D01*
X78894256Y-84205161D01*
X78696187Y-83963813D01*
X78520950Y-83820000D01*
X78696187Y-83676187D01*
X78894256Y-83434839D01*
X79041434Y-83159488D01*
X79132066Y-82860714D01*
X79162669Y-82550000D01*
X79132066Y-82239286D01*
X79104982Y-82150000D01*
X184316928Y-82150000D01*
X184320000Y-83364250D01*
X184478750Y-83523000D01*
X186328000Y-83523000D01*
X186328000Y-81673750D01*
X186582000Y-81673750D01*
X186582000Y-83523000D01*
X188431250Y-83523000D01*
X188590000Y-83364250D01*
X188593072Y-82150000D01*
X202566928Y-82150000D01*
X202570000Y-83364250D01*
X202728750Y-83523000D01*
X204578000Y-83523000D01*
X204578000Y-81673750D01*
X204832000Y-81673750D01*
X204832000Y-83523000D01*
X206681250Y-83523000D01*
X206840000Y-83364250D01*
X206843072Y-82150000D01*
X206830812Y-82025518D01*
X206794502Y-81905820D01*
X206735537Y-81795506D01*
X206656185Y-81698815D01*
X206559494Y-81619463D01*
X206449180Y-81560498D01*
X206329482Y-81524188D01*
X206205000Y-81511928D01*
X204990750Y-81515000D01*
X204832000Y-81673750D01*
X204578000Y-81673750D01*
X204419250Y-81515000D01*
X203205000Y-81511928D01*
X203080518Y-81524188D01*
X202960820Y-81560498D01*
X202850506Y-81619463D01*
X202753815Y-81698815D01*
X202674463Y-81795506D01*
X202615498Y-81905820D01*
X202579188Y-82025518D01*
X202566928Y-82150000D01*
X188593072Y-82150000D01*
X188580812Y-82025518D01*
X188544502Y-81905820D01*
X188485537Y-81795506D01*
X188406185Y-81698815D01*
X188309494Y-81619463D01*
X188199180Y-81560498D01*
X188079482Y-81524188D01*
X187955000Y-81511928D01*
X186740750Y-81515000D01*
X186582000Y-81673750D01*
X186328000Y-81673750D01*
X186169250Y-81515000D01*
X184955000Y-81511928D01*
X184830518Y-81524188D01*
X184710820Y-81560498D01*
X184600506Y-81619463D01*
X184503815Y-81698815D01*
X184424463Y-81795506D01*
X184365498Y-81905820D01*
X184329188Y-82025518D01*
X184316928Y-82150000D01*
X79104982Y-82150000D01*
X79041434Y-81940512D01*
X78894256Y-81665161D01*
X78696187Y-81423813D01*
X78454839Y-81225744D01*
X78179488Y-81078566D01*
X77880714Y-80987934D01*
X77647864Y-80965000D01*
X77292136Y-80965000D01*
X77059286Y-80987934D01*
X76760512Y-81078566D01*
X76485161Y-81225744D01*
X76243813Y-81423813D01*
X76045744Y-81665161D01*
X75898566Y-81940512D01*
X75807934Y-82239286D01*
X75777331Y-82550000D01*
X58838072Y-82550000D01*
X58838072Y-81600000D01*
X58825812Y-81475518D01*
X58789502Y-81355820D01*
X58730537Y-81245506D01*
X58651185Y-81148815D01*
X58554494Y-81069463D01*
X58444180Y-81010498D01*
X58324482Y-80974188D01*
X58200000Y-80961928D01*
X56100000Y-80961928D01*
X55975518Y-80974188D01*
X55855820Y-81010498D01*
X55745506Y-81069463D01*
X55648815Y-81148815D01*
X55569463Y-81245506D01*
X55510498Y-81355820D01*
X55474188Y-81475518D01*
X55461928Y-81600000D01*
X55461928Y-83500000D01*
X55474188Y-83624482D01*
X55510498Y-83744180D01*
X55569463Y-83854494D01*
X55648815Y-83951185D01*
X55745506Y-84030537D01*
X55831383Y-84076440D01*
X55725744Y-84205161D01*
X55578566Y-84480512D01*
X55487934Y-84779286D01*
X55457331Y-85090000D01*
X48406049Y-85090000D01*
X48406049Y-78213968D01*
X48951606Y-78064936D01*
X48971807Y-78057432D01*
X48992741Y-78052298D01*
X49065758Y-78022531D01*
X49065769Y-78022527D01*
X49065773Y-78022525D01*
X49881097Y-77634004D01*
X49899654Y-77623038D01*
X49919343Y-77614281D01*
X49985945Y-77572049D01*
X50719585Y-77045284D01*
X50735903Y-77031209D01*
X50753735Y-77019100D01*
X50811805Y-76965741D01*
X51440568Y-76317385D01*
X51454139Y-76300639D01*
X51469541Y-76285567D01*
X51517245Y-76222768D01*
X52021257Y-75473315D01*
X52031650Y-75454427D01*
X52044137Y-75436869D01*
X52079967Y-75366615D01*
X52443296Y-74539753D01*
X52450177Y-74519332D01*
X52459362Y-74499831D01*
X52482184Y-74424343D01*
X52573150Y-74046054D01*
X205478136Y-74046052D01*
X205627168Y-74591610D01*
G04 #@! TA.AperFunction,Conductor*
D22*
G36*
X205627168Y-74591610D02*
G01*
X205634672Y-74611812D01*
X205639806Y-74632745D01*
X205669570Y-74705756D01*
X205669576Y-74705772D01*
X205669577Y-74705773D01*
X206058100Y-75521100D01*
X206069066Y-75539657D01*
X206077823Y-75559346D01*
X206120055Y-75625948D01*
X206646820Y-76359588D01*
X206660898Y-76375910D01*
X206673004Y-76393737D01*
X206726363Y-76451808D01*
X207374718Y-77080572D01*
X207391468Y-77094146D01*
X207406537Y-77109545D01*
X207469335Y-77157249D01*
X208218788Y-77661260D01*
X208237672Y-77671651D01*
X208255234Y-77684141D01*
X208325488Y-77719971D01*
X209152350Y-78083300D01*
X209172771Y-78090181D01*
X209192272Y-78099366D01*
X209267760Y-78122188D01*
X209646050Y-78213154D01*
X209646049Y-114278137D01*
X209100492Y-114427169D01*
X209080285Y-114434675D01*
X209059356Y-114439808D01*
X208986329Y-114469578D01*
X208171002Y-114858102D01*
X208152446Y-114869066D01*
X208132755Y-114877825D01*
X208066168Y-114920048D01*
X208066153Y-114920057D01*
X208066148Y-114920061D01*
X207332514Y-115446822D01*
X207316191Y-115460901D01*
X207298364Y-115473007D01*
X207240293Y-115526366D01*
X206611530Y-116174722D01*
X206597959Y-116191468D01*
X206582557Y-116206540D01*
X206534854Y-116269339D01*
X206030843Y-117018793D01*
X206020455Y-117037673D01*
X206007962Y-117055238D01*
X205972133Y-117125492D01*
X205608803Y-117952354D01*
X205601920Y-117972781D01*
X205592738Y-117992276D01*
X205569916Y-118067765D01*
X205478950Y-118446053D01*
X191318680Y-118446053D01*
X191402370Y-118377370D01*
X191442141Y-118328909D01*
X196433920Y-113337132D01*
X196482370Y-113297370D01*
X196522132Y-113248920D01*
X196522135Y-113248917D01*
X196596219Y-113158645D01*
X196641075Y-113103988D01*
X196759003Y-112883359D01*
X196780004Y-112814129D01*
X196831623Y-112643964D01*
X196845839Y-112499622D01*
X196850000Y-112457380D01*
X196850000Y-112457373D01*
X196856143Y-112395000D01*
X196850000Y-112332627D01*
X196850000Y-109068072D01*
X197330000Y-109068072D01*
X197454482Y-109055812D01*
X197574180Y-109019502D01*
X197684494Y-108960537D01*
X197781185Y-108881185D01*
X197860537Y-108784494D01*
X197919502Y-108674180D01*
X197955812Y-108554482D01*
X197968072Y-108430000D01*
X199441928Y-108430000D01*
X199454188Y-108554482D01*
X199490498Y-108674180D01*
X199549463Y-108784494D01*
X199628815Y-108881185D01*
X199725506Y-108960537D01*
X199835820Y-109019502D01*
X199955518Y-109055812D01*
X200080000Y-109068072D01*
X201294250Y-109065000D01*
X201453000Y-108906250D01*
X201453000Y-106807000D01*
X201707000Y-106807000D01*
X201707000Y-108906250D01*
X201865750Y-109065000D01*
X203080000Y-109068072D01*
X203204482Y-109055812D01*
X203324180Y-109019502D01*
X203434494Y-108960537D01*
X203531185Y-108881185D01*
X203610537Y-108784494D01*
X203669502Y-108674180D01*
X203705812Y-108554482D01*
X203718072Y-108430000D01*
X203715000Y-106965750D01*
X203556250Y-106807000D01*
X201707000Y-106807000D01*
X201453000Y-106807000D01*
X199603750Y-106807000D01*
X199445000Y-106965750D01*
X199441928Y-108430000D01*
X197968072Y-108430000D01*
X197968072Y-104930000D01*
X199441928Y-104930000D01*
X199445000Y-106394250D01*
X199603750Y-106553000D01*
X201453000Y-106553000D01*
X201453000Y-104453750D01*
X201707000Y-104453750D01*
X201707000Y-106553000D01*
X203556250Y-106553000D01*
X203715000Y-106394250D01*
X203718072Y-104930000D01*
X203705812Y-104805518D01*
X203669502Y-104685820D01*
X203610537Y-104575506D01*
X203531185Y-104478815D01*
X203434494Y-104399463D01*
X203324180Y-104340498D01*
X203204482Y-104304188D01*
X203080000Y-104291928D01*
X201865750Y-104295000D01*
X201707000Y-104453750D01*
X201453000Y-104453750D01*
X201294250Y-104295000D01*
X200080000Y-104291928D01*
X199955518Y-104304188D01*
X199835820Y-104340498D01*
X199725506Y-104399463D01*
X199628815Y-104478815D01*
X199549463Y-104575506D01*
X199490498Y-104685820D01*
X199454188Y-104805518D01*
X199441928Y-104930000D01*
X197968072Y-104930000D01*
X197955812Y-104805518D01*
X197919502Y-104685820D01*
X197860537Y-104575506D01*
X197781185Y-104478815D01*
X197684494Y-104399463D01*
X197607869Y-104358506D01*
X197705000Y-104368072D01*
X199455000Y-104368072D01*
X199750186Y-104338999D01*
X200034028Y-104252896D01*
X200295618Y-104113073D01*
X200524903Y-103924903D01*
X200713073Y-103695618D01*
X200852896Y-103434028D01*
X200938999Y-103150186D01*
X200968072Y-102855000D01*
X200968072Y-101105000D01*
X200938999Y-100809814D01*
X200852896Y-100525972D01*
X200713073Y-100264382D01*
X200524903Y-100035097D01*
X200295618Y-99846927D01*
X200034028Y-99707104D01*
X199750186Y-99621001D01*
X199455000Y-99591928D01*
X197705000Y-99591928D01*
X197409814Y-99621001D01*
X197125972Y-99707104D01*
X196864382Y-99846927D01*
X196635097Y-100035097D01*
X196446927Y-100264382D01*
X196307104Y-100525972D01*
X196221001Y-100809814D01*
X196191928Y-101105000D01*
X196191928Y-102855000D01*
X196221001Y-103150186D01*
X196307104Y-103434028D01*
X196446927Y-103695618D01*
X196635097Y-103924903D01*
X196864382Y-104113073D01*
X197125972Y-104252896D01*
X197254643Y-104291928D01*
X193830000Y-104291928D01*
X193705518Y-104304188D01*
X193585820Y-104340498D01*
X193475506Y-104399463D01*
X193378815Y-104478815D01*
X193299463Y-104575506D01*
X193240498Y-104685820D01*
X193204188Y-104805518D01*
X193191928Y-104930000D01*
X193191928Y-108430000D01*
X193204188Y-108554482D01*
X193240498Y-108674180D01*
X193299463Y-108784494D01*
X193378815Y-108881185D01*
X193475506Y-108960537D01*
X193585820Y-109019502D01*
X193705518Y-109055812D01*
X193830000Y-109068072D01*
X194310000Y-109068072D01*
X194310001Y-111868947D01*
X189973950Y-116205000D01*
X175266143Y-116205000D01*
X175260000Y-116142628D01*
X175260000Y-111822703D01*
X175260029Y-111822409D01*
X175260029Y-111822401D01*
X175266172Y-111760028D01*
X175260029Y-111697656D01*
X175260029Y-109282401D01*
X175266172Y-109220028D01*
X175260029Y-109157656D01*
X175260029Y-109157649D01*
X175241652Y-108971066D01*
X175169032Y-108731670D01*
X175051104Y-108511041D01*
X174892399Y-108317659D01*
X174892383Y-108317646D01*
X174892370Y-108317630D01*
X174698988Y-108158925D01*
X174478359Y-108040997D01*
X174238963Y-107968377D01*
X174052380Y-107950000D01*
X173990000Y-107943856D01*
X173927620Y-107950000D01*
X171248142Y-107950000D01*
X171381101Y-107878932D01*
X171599608Y-107699608D01*
X171778932Y-107481101D01*
X171912182Y-107231808D01*
X171994236Y-106961309D01*
X172021943Y-106680000D01*
X171994236Y-106398691D01*
X171912182Y-106128192D01*
X171778932Y-105878899D01*
X171599608Y-105660392D01*
X171381101Y-105481068D01*
X171131808Y-105347818D01*
X170861309Y-105265764D01*
X170650492Y-105245000D01*
X169709508Y-105245000D01*
X169498691Y-105265764D01*
X169228192Y-105347818D01*
X168978899Y-105481068D01*
X168760392Y-105660392D01*
X168581068Y-105878899D01*
X168447818Y-106128192D01*
X168365764Y-106398691D01*
X168338057Y-106680000D01*
X168365764Y-106961309D01*
X168447818Y-107231808D01*
X168581068Y-107481101D01*
X168760392Y-107699608D01*
X168978899Y-107878932D01*
X169111858Y-107950000D01*
X168978899Y-108021068D01*
X168760392Y-108200392D01*
X168581068Y-108418899D01*
X168447818Y-108668192D01*
X168365764Y-108938691D01*
X168338057Y-109220000D01*
X168365764Y-109501309D01*
X168447818Y-109771808D01*
X168581068Y-110021101D01*
X168760392Y-110239608D01*
X168978899Y-110418932D01*
X169111858Y-110490000D01*
X168978899Y-110561068D01*
X168760392Y-110740392D01*
X168581068Y-110958899D01*
X168447818Y-111208192D01*
X168365764Y-111478691D01*
X168338057Y-111760000D01*
X168365764Y-112041309D01*
X168447818Y-112311808D01*
X168581068Y-112561101D01*
X168760392Y-112779608D01*
X168873482Y-112872419D01*
X168855518Y-112874188D01*
X168735820Y-112910498D01*
X168625506Y-112969463D01*
X168528815Y-113048815D01*
X168449463Y-113145506D01*
X168390498Y-113255820D01*
X168354188Y-113375518D01*
X168341928Y-113500000D01*
X168341928Y-115100000D01*
X168354188Y-115224482D01*
X168390498Y-115344180D01*
X168449463Y-115454494D01*
X168528815Y-115551185D01*
X168625506Y-115630537D01*
X168735820Y-115689502D01*
X168855518Y-115725812D01*
X168980000Y-115738072D01*
X171380000Y-115738072D01*
X171504482Y-115725812D01*
X171624180Y-115689502D01*
X171734494Y-115630537D01*
X171831185Y-115551185D01*
X171910537Y-115454494D01*
X171969502Y-115344180D01*
X172005812Y-115224482D01*
X172018072Y-115100000D01*
X172018072Y-113500000D01*
X172005812Y-113375518D01*
X171969502Y-113255820D01*
X171910537Y-113145506D01*
X171831185Y-113048815D01*
X171808259Y-113030000D01*
X172720000Y-113030000D01*
X172720000Y-115678949D01*
X172193950Y-116205000D01*
X159385000Y-116205000D01*
X159385000Y-114649039D01*
X160768096Y-114649039D01*
X160785633Y-114731818D01*
X160896285Y-114991646D01*
X161055500Y-115224895D01*
X161257161Y-115422601D01*
X161493517Y-115577166D01*
X161755486Y-115682650D01*
X162033000Y-115735000D01*
X162433000Y-115735000D01*
X162433000Y-114427000D01*
X162687000Y-114427000D01*
X162687000Y-115735000D01*
X163087000Y-115735000D01*
X163364514Y-115682650D01*
X163626483Y-115577166D01*
X163862839Y-115422601D01*
X164064500Y-115224895D01*
X164223715Y-114991646D01*
X164334367Y-114731818D01*
X164351904Y-114649039D01*
X164229915Y-114427000D01*
X162687000Y-114427000D01*
X162433000Y-114427000D01*
X160890085Y-114427000D01*
X160768096Y-114649039D01*
X159385000Y-114649039D01*
X159385000Y-111822379D01*
X159391144Y-111760000D01*
X160718057Y-111760000D01*
X160745764Y-112041309D01*
X160827818Y-112311808D01*
X160961068Y-112561101D01*
X161140392Y-112779608D01*
X161358899Y-112958932D01*
X161486741Y-113027265D01*
X161257161Y-113177399D01*
X161055500Y-113375105D01*
X160896285Y-113608354D01*
X160785633Y-113868182D01*
X160768096Y-113950961D01*
X160890085Y-114173000D01*
X162433000Y-114173000D01*
X162433000Y-114153000D01*
X162687000Y-114153000D01*
X162687000Y-114173000D01*
X164229915Y-114173000D01*
X164351904Y-113950961D01*
X164334367Y-113868182D01*
X164223715Y-113608354D01*
X164064500Y-113375105D01*
X163862839Y-113177399D01*
X163633259Y-113027265D01*
X163761101Y-112958932D01*
X163979608Y-112779608D01*
X164158932Y-112561101D01*
X164292182Y-112311808D01*
X164374236Y-112041309D01*
X164401943Y-111760000D01*
X164374236Y-111478691D01*
X164292182Y-111208192D01*
X164158932Y-110958899D01*
X163979608Y-110740392D01*
X163761101Y-110561068D01*
X163633259Y-110492735D01*
X163862839Y-110342601D01*
X164064500Y-110144895D01*
X164223715Y-109911646D01*
X164334367Y-109651818D01*
X164351904Y-109569039D01*
X164229915Y-109347000D01*
X162687000Y-109347000D01*
X162687000Y-109367000D01*
X162433000Y-109367000D01*
X162433000Y-109347000D01*
X160890085Y-109347000D01*
X160768096Y-109569039D01*
X160785633Y-109651818D01*
X160896285Y-109911646D01*
X161055500Y-110144895D01*
X161257161Y-110342601D01*
X161486741Y-110492735D01*
X161358899Y-110561068D01*
X161140392Y-110740392D01*
X160961068Y-110958899D01*
X160827818Y-111208192D01*
X160745764Y-111478691D01*
X160718057Y-111760000D01*
X159391144Y-111760000D01*
X159385000Y-111697620D01*
X159385000Y-109282380D01*
X159391144Y-109220000D01*
X159366623Y-108971037D01*
X159294003Y-108731641D01*
X159176075Y-108511012D01*
X159017370Y-108317630D01*
X158823988Y-108158925D01*
X158603359Y-108040997D01*
X158363963Y-107968377D01*
X158177380Y-107950000D01*
X158115000Y-107943856D01*
X158052620Y-107950000D01*
X156008142Y-107950000D01*
X156141101Y-107878932D01*
X156359608Y-107699608D01*
X156538932Y-107481101D01*
X156672182Y-107231808D01*
X156733690Y-107029039D01*
X160768096Y-107029039D01*
X160785633Y-107111818D01*
X160896285Y-107371646D01*
X161055500Y-107604895D01*
X161257161Y-107802601D01*
X161482559Y-107950000D01*
X161257161Y-108097399D01*
X161055500Y-108295105D01*
X160896285Y-108528354D01*
X160785633Y-108788182D01*
X160768096Y-108870961D01*
X160890085Y-109093000D01*
X162433000Y-109093000D01*
X162433000Y-106807000D01*
X162687000Y-106807000D01*
X162687000Y-109093000D01*
X164229915Y-109093000D01*
X164351904Y-108870961D01*
X164334367Y-108788182D01*
X164223715Y-108528354D01*
X164064500Y-108295105D01*
X163862839Y-108097399D01*
X163637441Y-107950000D01*
X163862839Y-107802601D01*
X164064500Y-107604895D01*
X164223715Y-107371646D01*
X164334367Y-107111818D01*
X164351904Y-107029039D01*
X164229915Y-106807000D01*
X162687000Y-106807000D01*
X162433000Y-106807000D01*
X160890085Y-106807000D01*
X160768096Y-107029039D01*
X156733690Y-107029039D01*
X156754236Y-106961309D01*
X156781943Y-106680000D01*
X156754236Y-106398691D01*
X156733691Y-106330961D01*
X160768096Y-106330961D01*
X160890085Y-106553000D01*
X162433000Y-106553000D01*
X162433000Y-105245000D01*
X162687000Y-105245000D01*
X162687000Y-106553000D01*
X164229915Y-106553000D01*
X164351904Y-106330961D01*
X164334367Y-106248182D01*
X164223715Y-105988354D01*
X164064500Y-105755105D01*
X163862839Y-105557399D01*
X163626483Y-105402834D01*
X163364514Y-105297350D01*
X163087000Y-105245000D01*
X162687000Y-105245000D01*
X162433000Y-105245000D01*
X162033000Y-105245000D01*
X161755486Y-105297350D01*
X161493517Y-105402834D01*
X161257161Y-105557399D01*
X161055500Y-105755105D01*
X160896285Y-105988354D01*
X160785633Y-106248182D01*
X160768096Y-106330961D01*
X156733691Y-106330961D01*
X156672182Y-106128192D01*
X156538932Y-105878899D01*
X156359608Y-105660392D01*
X156141101Y-105481068D01*
X155891808Y-105347818D01*
X155621309Y-105265764D01*
X155410492Y-105245000D01*
X154469508Y-105245000D01*
X154258691Y-105265764D01*
X153988192Y-105347818D01*
X153738899Y-105481068D01*
X153520392Y-105660392D01*
X153341068Y-105878899D01*
X153207818Y-106128192D01*
X153125764Y-106398691D01*
X153098057Y-106680000D01*
X153125764Y-106961309D01*
X153207818Y-107231808D01*
X153341068Y-107481101D01*
X153520392Y-107699608D01*
X153738899Y-107878932D01*
X153871858Y-107950000D01*
X153738899Y-108021068D01*
X153520392Y-108200392D01*
X153341068Y-108418899D01*
X153207818Y-108668192D01*
X153125764Y-108938691D01*
X153098057Y-109220000D01*
X153125764Y-109501309D01*
X153207818Y-109771808D01*
X153341068Y-110021101D01*
X153520392Y-110239608D01*
X153738899Y-110418932D01*
X153871858Y-110490000D01*
X153738899Y-110561068D01*
X153520392Y-110740392D01*
X153341068Y-110958899D01*
X153207818Y-111208192D01*
X153125764Y-111478691D01*
X153098057Y-111760000D01*
X153125764Y-112041309D01*
X153207818Y-112311808D01*
X153341068Y-112561101D01*
X153520392Y-112779608D01*
X153633482Y-112872419D01*
X153615518Y-112874188D01*
X153495820Y-112910498D01*
X153385506Y-112969463D01*
X153288815Y-113048815D01*
X153209463Y-113145506D01*
X153150498Y-113255820D01*
X153114188Y-113375518D01*
X153101928Y-113500000D01*
X153101928Y-115100000D01*
X153114188Y-115224482D01*
X153150498Y-115344180D01*
X153209463Y-115454494D01*
X153288815Y-115551185D01*
X153385506Y-115630537D01*
X153495820Y-115689502D01*
X153615518Y-115725812D01*
X153740000Y-115738072D01*
X156140000Y-115738072D01*
X156264482Y-115725812D01*
X156384180Y-115689502D01*
X156494494Y-115630537D01*
X156591185Y-115551185D01*
X156670537Y-115454494D01*
X156729502Y-115344180D01*
X156765812Y-115224482D01*
X156778072Y-115100000D01*
X156778072Y-113500000D01*
X156765812Y-113375518D01*
X156729502Y-113255820D01*
X156670537Y-113145506D01*
X156591185Y-113048815D01*
X156568259Y-113030000D01*
X156845000Y-113030000D01*
X156845001Y-116205000D01*
X144145000Y-116205000D01*
X144145000Y-114649039D01*
X145528096Y-114649039D01*
X145545633Y-114731818D01*
X145656285Y-114991646D01*
X145815500Y-115224895D01*
X146017161Y-115422601D01*
X146253517Y-115577166D01*
X146515486Y-115682650D01*
X146793000Y-115735000D01*
X147193000Y-115735000D01*
X147193000Y-114427000D01*
X147447000Y-114427000D01*
X147447000Y-115735000D01*
X147847000Y-115735000D01*
X148124514Y-115682650D01*
X148386483Y-115577166D01*
X148622839Y-115422601D01*
X148824500Y-115224895D01*
X148983715Y-114991646D01*
X149094367Y-114731818D01*
X149111904Y-114649039D01*
X148989915Y-114427000D01*
X147447000Y-114427000D01*
X147193000Y-114427000D01*
X145650085Y-114427000D01*
X145528096Y-114649039D01*
X144145000Y-114649039D01*
X144145000Y-111760000D01*
X145478057Y-111760000D01*
X145505764Y-112041309D01*
X145587818Y-112311808D01*
X145721068Y-112561101D01*
X145900392Y-112779608D01*
X146118899Y-112958932D01*
X146246741Y-113027265D01*
X146017161Y-113177399D01*
X145815500Y-113375105D01*
X145656285Y-113608354D01*
X145545633Y-113868182D01*
X145528096Y-113950961D01*
X145650085Y-114173000D01*
X147193000Y-114173000D01*
X147193000Y-114153000D01*
X147447000Y-114153000D01*
X147447000Y-114173000D01*
X148989915Y-114173000D01*
X149111904Y-113950961D01*
X149094367Y-113868182D01*
X148983715Y-113608354D01*
X148824500Y-113375105D01*
X148622839Y-113177399D01*
X148393259Y-113027265D01*
X148521101Y-112958932D01*
X148739608Y-112779608D01*
X148918932Y-112561101D01*
X149052182Y-112311808D01*
X149134236Y-112041309D01*
X149161943Y-111760000D01*
X149134236Y-111478691D01*
X149052182Y-111208192D01*
X148918932Y-110958899D01*
X148739608Y-110740392D01*
X148521101Y-110561068D01*
X148393259Y-110492735D01*
X148622839Y-110342601D01*
X148824500Y-110144895D01*
X148983715Y-109911646D01*
X149094367Y-109651818D01*
X149111904Y-109569039D01*
X148989915Y-109347000D01*
X147447000Y-109347000D01*
X147447000Y-109367000D01*
X147193000Y-109367000D01*
X147193000Y-109347000D01*
X145650085Y-109347000D01*
X145528096Y-109569039D01*
X145545633Y-109651818D01*
X145656285Y-109911646D01*
X145815500Y-110144895D01*
X146017161Y-110342601D01*
X146246741Y-110492735D01*
X146118899Y-110561068D01*
X145900392Y-110740392D01*
X145721068Y-110958899D01*
X145587818Y-111208192D01*
X145505764Y-111478691D01*
X145478057Y-111760000D01*
X144145000Y-111760000D01*
X144145000Y-109282380D01*
X144151144Y-109220000D01*
X144126623Y-108971037D01*
X144054003Y-108731641D01*
X143936075Y-108511012D01*
X143777370Y-108317630D01*
X143583988Y-108158925D01*
X143363359Y-108040997D01*
X143123963Y-107968377D01*
X142937380Y-107950000D01*
X142875000Y-107943856D01*
X142812620Y-107950000D01*
X140768142Y-107950000D01*
X140901101Y-107878932D01*
X141119608Y-107699608D01*
X141298932Y-107481101D01*
X141432182Y-107231808D01*
X141493690Y-107029039D01*
X145528096Y-107029039D01*
X145545633Y-107111818D01*
X145656285Y-107371646D01*
X145815500Y-107604895D01*
X146017161Y-107802601D01*
X146242559Y-107950000D01*
X146017161Y-108097399D01*
X145815500Y-108295105D01*
X145656285Y-108528354D01*
X145545633Y-108788182D01*
X145528096Y-108870961D01*
X145650085Y-109093000D01*
X147193000Y-109093000D01*
X147193000Y-106807000D01*
X147447000Y-106807000D01*
X147447000Y-109093000D01*
X148989915Y-109093000D01*
X149111904Y-108870961D01*
X149094367Y-108788182D01*
X148983715Y-108528354D01*
X148824500Y-108295105D01*
X148622839Y-108097399D01*
X148397441Y-107950000D01*
X148622839Y-107802601D01*
X148824500Y-107604895D01*
X148983715Y-107371646D01*
X149094367Y-107111818D01*
X149111904Y-107029039D01*
X148989915Y-106807000D01*
X147447000Y-106807000D01*
X147193000Y-106807000D01*
X145650085Y-106807000D01*
X145528096Y-107029039D01*
X141493690Y-107029039D01*
X141514236Y-106961309D01*
X141541943Y-106680000D01*
X141514236Y-106398691D01*
X141493691Y-106330961D01*
X145528096Y-106330961D01*
X145650085Y-106553000D01*
X147193000Y-106553000D01*
X147193000Y-105245000D01*
X147447000Y-105245000D01*
X147447000Y-106553000D01*
X148989915Y-106553000D01*
X149111904Y-106330961D01*
X149094367Y-106248182D01*
X148983715Y-105988354D01*
X148824500Y-105755105D01*
X148622839Y-105557399D01*
X148386483Y-105402834D01*
X148124514Y-105297350D01*
X147847000Y-105245000D01*
X147447000Y-105245000D01*
X147193000Y-105245000D01*
X146793000Y-105245000D01*
X146515486Y-105297350D01*
X146253517Y-105402834D01*
X146017161Y-105557399D01*
X145815500Y-105755105D01*
X145656285Y-105988354D01*
X145545633Y-106248182D01*
X145528096Y-106330961D01*
X141493691Y-106330961D01*
X141432182Y-106128192D01*
X141298932Y-105878899D01*
X141119608Y-105660392D01*
X140901101Y-105481068D01*
X140651808Y-105347818D01*
X140381309Y-105265764D01*
X140170492Y-105245000D01*
X139229508Y-105245000D01*
X139018691Y-105265764D01*
X138748192Y-105347818D01*
X138498899Y-105481068D01*
X138280392Y-105660392D01*
X138101068Y-105878899D01*
X137967818Y-106128192D01*
X137885764Y-106398691D01*
X137858057Y-106680000D01*
X137885764Y-106961309D01*
X137967818Y-107231808D01*
X138101068Y-107481101D01*
X138280392Y-107699608D01*
X138498899Y-107878932D01*
X138631858Y-107950000D01*
X138498899Y-108021068D01*
X138280392Y-108200392D01*
X138101068Y-108418899D01*
X137967818Y-108668192D01*
X137885764Y-108938691D01*
X137858057Y-109220000D01*
X137885764Y-109501309D01*
X137967818Y-109771808D01*
X138101068Y-110021101D01*
X138280392Y-110239608D01*
X138498899Y-110418932D01*
X138631858Y-110490000D01*
X138498899Y-110561068D01*
X138280392Y-110740392D01*
X138101068Y-110958899D01*
X137967818Y-111208192D01*
X137885764Y-111478691D01*
X137858057Y-111760000D01*
X137885764Y-112041309D01*
X137967818Y-112311808D01*
X138101068Y-112561101D01*
X138280392Y-112779608D01*
X138393482Y-112872419D01*
X138375518Y-112874188D01*
X138255820Y-112910498D01*
X138145506Y-112969463D01*
X138048815Y-113048815D01*
X137969463Y-113145506D01*
X137910498Y-113255820D01*
X137874188Y-113375518D01*
X137861928Y-113500000D01*
X137861928Y-115100000D01*
X137874188Y-115224482D01*
X137910498Y-115344180D01*
X137969463Y-115454494D01*
X138048815Y-115551185D01*
X138145506Y-115630537D01*
X138255820Y-115689502D01*
X138375518Y-115725812D01*
X138500000Y-115738072D01*
X140900000Y-115738072D01*
X141024482Y-115725812D01*
X141144180Y-115689502D01*
X141254494Y-115630537D01*
X141351185Y-115551185D01*
X141430537Y-115454494D01*
X141489502Y-115344180D01*
X141525812Y-115224482D01*
X141538072Y-115100000D01*
X141538072Y-113500000D01*
X141525812Y-113375518D01*
X141489502Y-113255820D01*
X141430537Y-113145506D01*
X141351185Y-113048815D01*
X141328259Y-113030000D01*
X141605000Y-113030000D01*
X141605001Y-116205000D01*
X131336051Y-116205000D01*
X129780090Y-114649039D01*
X130288096Y-114649039D01*
X130305633Y-114731818D01*
X130416285Y-114991646D01*
X130575500Y-115224895D01*
X130777161Y-115422601D01*
X131013517Y-115577166D01*
X131275486Y-115682650D01*
X131553000Y-115735000D01*
X131953000Y-115735000D01*
X131953000Y-114427000D01*
X132207000Y-114427000D01*
X132207000Y-115735000D01*
X132607000Y-115735000D01*
X132884514Y-115682650D01*
X133146483Y-115577166D01*
X133382839Y-115422601D01*
X133584500Y-115224895D01*
X133743715Y-114991646D01*
X133854367Y-114731818D01*
X133871904Y-114649039D01*
X133749915Y-114427000D01*
X132207000Y-114427000D01*
X131953000Y-114427000D01*
X130410085Y-114427000D01*
X130288096Y-114649039D01*
X129780090Y-114649039D01*
X128905000Y-113773950D01*
X128905000Y-111822379D01*
X128911144Y-111760000D01*
X130238057Y-111760000D01*
X130265764Y-112041309D01*
X130347818Y-112311808D01*
X130481068Y-112561101D01*
X130660392Y-112779608D01*
X130878899Y-112958932D01*
X131006741Y-113027265D01*
X130777161Y-113177399D01*
X130575500Y-113375105D01*
X130416285Y-113608354D01*
X130305633Y-113868182D01*
X130288096Y-113950961D01*
X130410085Y-114173000D01*
X131953000Y-114173000D01*
X131953000Y-114153000D01*
X132207000Y-114153000D01*
X132207000Y-114173000D01*
X133749915Y-114173000D01*
X133871904Y-113950961D01*
X133854367Y-113868182D01*
X133743715Y-113608354D01*
X133584500Y-113375105D01*
X133382839Y-113177399D01*
X133153259Y-113027265D01*
X133281101Y-112958932D01*
X133499608Y-112779608D01*
X133678932Y-112561101D01*
X133812182Y-112311808D01*
X133894236Y-112041309D01*
X133921943Y-111760000D01*
X133894236Y-111478691D01*
X133812182Y-111208192D01*
X133678932Y-110958899D01*
X133499608Y-110740392D01*
X133281101Y-110561068D01*
X133153259Y-110492735D01*
X133382839Y-110342601D01*
X133584500Y-110144895D01*
X133743715Y-109911646D01*
X133854367Y-109651818D01*
X133871904Y-109569039D01*
X133749915Y-109347000D01*
X132207000Y-109347000D01*
X132207000Y-109367000D01*
X131953000Y-109367000D01*
X131953000Y-109347000D01*
X130410085Y-109347000D01*
X130288096Y-109569039D01*
X130305633Y-109651818D01*
X130416285Y-109911646D01*
X130575500Y-110144895D01*
X130777161Y-110342601D01*
X131006741Y-110492735D01*
X130878899Y-110561068D01*
X130660392Y-110740392D01*
X130481068Y-110958899D01*
X130347818Y-111208192D01*
X130265764Y-111478691D01*
X130238057Y-111760000D01*
X128911144Y-111760000D01*
X128905000Y-111697620D01*
X128905000Y-109282380D01*
X128911144Y-109220000D01*
X128886623Y-108971037D01*
X128814003Y-108731641D01*
X128696075Y-108511012D01*
X128537370Y-108317630D01*
X128343988Y-108158925D01*
X128123359Y-108040997D01*
X127883963Y-107968377D01*
X127697380Y-107950000D01*
X127635000Y-107943856D01*
X127572620Y-107950000D01*
X125528142Y-107950000D01*
X125661101Y-107878932D01*
X125879608Y-107699608D01*
X126058932Y-107481101D01*
X126192182Y-107231808D01*
X126253690Y-107029039D01*
X130288096Y-107029039D01*
X130305633Y-107111818D01*
X130416285Y-107371646D01*
X130575500Y-107604895D01*
X130777161Y-107802601D01*
X131002559Y-107950000D01*
X130777161Y-108097399D01*
X130575500Y-108295105D01*
X130416285Y-108528354D01*
X130305633Y-108788182D01*
X130288096Y-108870961D01*
X130410085Y-109093000D01*
X131953000Y-109093000D01*
X131953000Y-106807000D01*
X132207000Y-106807000D01*
X132207000Y-109093000D01*
X133749915Y-109093000D01*
X133871904Y-108870961D01*
X133854367Y-108788182D01*
X133743715Y-108528354D01*
X133584500Y-108295105D01*
X133382839Y-108097399D01*
X133157441Y-107950000D01*
X133382839Y-107802601D01*
X133584500Y-107604895D01*
X133743715Y-107371646D01*
X133854367Y-107111818D01*
X133871904Y-107029039D01*
X133749915Y-106807000D01*
X132207000Y-106807000D01*
X131953000Y-106807000D01*
X130410085Y-106807000D01*
X130288096Y-107029039D01*
X126253690Y-107029039D01*
X126274236Y-106961309D01*
X126301943Y-106680000D01*
X126274236Y-106398691D01*
X126253691Y-106330961D01*
X130288096Y-106330961D01*
X130410085Y-106553000D01*
X131953000Y-106553000D01*
X131953000Y-105245000D01*
X132207000Y-105245000D01*
X132207000Y-106553000D01*
X133749915Y-106553000D01*
X133871904Y-106330961D01*
X133854367Y-106248182D01*
X133743715Y-105988354D01*
X133584500Y-105755105D01*
X133382839Y-105557399D01*
X133146483Y-105402834D01*
X132884514Y-105297350D01*
X132607000Y-105245000D01*
X132207000Y-105245000D01*
X131953000Y-105245000D01*
X131553000Y-105245000D01*
X131275486Y-105297350D01*
X131013517Y-105402834D01*
X130777161Y-105557399D01*
X130575500Y-105755105D01*
X130416285Y-105988354D01*
X130305633Y-106248182D01*
X130288096Y-106330961D01*
X126253691Y-106330961D01*
X126192182Y-106128192D01*
X126058932Y-105878899D01*
X125879608Y-105660392D01*
X125661101Y-105481068D01*
X125411808Y-105347818D01*
X125141309Y-105265764D01*
X124930492Y-105245000D01*
X123989508Y-105245000D01*
X123778691Y-105265764D01*
X123508192Y-105347818D01*
X123258899Y-105481068D01*
X123040392Y-105660392D01*
X122861068Y-105878899D01*
X122727818Y-106128192D01*
X122645764Y-106398691D01*
X122618057Y-106680000D01*
X122645764Y-106961309D01*
X122727818Y-107231808D01*
X122861068Y-107481101D01*
X123040392Y-107699608D01*
X123258899Y-107878932D01*
X123391858Y-107950000D01*
X123258899Y-108021068D01*
X123040392Y-108200392D01*
X122861068Y-108418899D01*
X122727818Y-108668192D01*
X122645764Y-108938691D01*
X122618057Y-109220000D01*
X122645764Y-109501309D01*
X122727818Y-109771808D01*
X122861068Y-110021101D01*
X123040392Y-110239608D01*
X123258899Y-110418932D01*
X123391858Y-110490000D01*
X123258899Y-110561068D01*
X123040392Y-110740392D01*
X122861068Y-110958899D01*
X122727818Y-111208192D01*
X122645764Y-111478691D01*
X122618057Y-111760000D01*
X122645764Y-112041309D01*
X122727818Y-112311808D01*
X122861068Y-112561101D01*
X123040392Y-112779608D01*
X123153482Y-112872419D01*
X123135518Y-112874188D01*
X123015820Y-112910498D01*
X122905506Y-112969463D01*
X122808815Y-113048815D01*
X122729463Y-113145506D01*
X122670498Y-113255820D01*
X122634188Y-113375518D01*
X122621928Y-113500000D01*
X122621928Y-115100000D01*
X122634188Y-115224482D01*
X122670498Y-115344180D01*
X122729463Y-115454494D01*
X122808815Y-115551185D01*
X122905506Y-115630537D01*
X123015820Y-115689502D01*
X123135518Y-115725812D01*
X123260000Y-115738072D01*
X125660000Y-115738072D01*
X125784482Y-115725812D01*
X125904180Y-115689502D01*
X126014494Y-115630537D01*
X126111185Y-115551185D01*
X126190537Y-115454494D01*
X126249502Y-115344180D01*
X126285812Y-115224482D01*
X126298072Y-115100000D01*
X126298072Y-113500000D01*
X126285812Y-113375518D01*
X126249502Y-113255820D01*
X126190537Y-113145506D01*
X126111185Y-113048815D01*
X126088259Y-113030000D01*
X126365000Y-113030000D01*
X126365000Y-114237627D01*
X126358857Y-114300000D01*
X126365000Y-114362373D01*
X126365000Y-114362379D01*
X126383377Y-114548962D01*
X126455997Y-114788358D01*
X126573925Y-115008987D01*
X126732630Y-115202370D01*
X126781091Y-115242141D01*
X129867863Y-118328914D01*
X129907630Y-118377370D01*
X129991320Y-118446053D01*
X52573963Y-118446053D01*
X52424931Y-117900496D01*
X52417426Y-117880294D01*
X52412293Y-117859362D01*
X52382523Y-117786334D01*
X51993999Y-116971006D01*
X51983037Y-116952454D01*
X51974276Y-116932758D01*
X51932044Y-116866156D01*
X51405279Y-116132517D01*
X51391201Y-116116195D01*
X51379095Y-116098368D01*
X51325750Y-116040313D01*
X51325736Y-116040297D01*
X51325730Y-116040292D01*
X50677380Y-115411535D01*
X50660634Y-115397964D01*
X50645562Y-115382562D01*
X50582763Y-115334858D01*
X49833309Y-114830846D01*
X49814425Y-114820455D01*
X49796863Y-114807965D01*
X49726623Y-114772143D01*
X49726610Y-114772136D01*
X49726606Y-114772135D01*
X49446466Y-114649039D01*
X115048096Y-114649039D01*
X115065633Y-114731818D01*
X115176285Y-114991646D01*
X115335500Y-115224895D01*
X115537161Y-115422601D01*
X115773517Y-115577166D01*
X116035486Y-115682650D01*
X116313000Y-115735000D01*
X116713000Y-115735000D01*
X116713000Y-114427000D01*
X116967000Y-114427000D01*
X116967000Y-115735000D01*
X117367000Y-115735000D01*
X117644514Y-115682650D01*
X117906483Y-115577166D01*
X118142839Y-115422601D01*
X118344500Y-115224895D01*
X118503715Y-114991646D01*
X118614367Y-114731818D01*
X118631904Y-114649039D01*
X118509915Y-114427000D01*
X116967000Y-114427000D01*
X116713000Y-114427000D01*
X115170085Y-114427000D01*
X115048096Y-114649039D01*
X49446466Y-114649039D01*
X48899747Y-114408807D01*
X48879322Y-114401925D01*
X48859826Y-114392742D01*
X48784338Y-114369920D01*
X48406049Y-114278954D01*
X48406049Y-111148180D01*
X81241900Y-111148180D01*
X81241900Y-111355820D01*
X81282409Y-111559470D01*
X81361869Y-111751303D01*
X81477227Y-111923949D01*
X81624051Y-112070773D01*
X81654853Y-112091354D01*
X81615869Y-112149697D01*
X81536409Y-112341530D01*
X81495900Y-112545180D01*
X81495900Y-112752820D01*
X81536409Y-112956470D01*
X81615869Y-113148303D01*
X81731227Y-113320949D01*
X81878051Y-113467773D01*
X82050697Y-113583131D01*
X82242530Y-113662591D01*
X82446180Y-113703100D01*
X82653820Y-113703100D01*
X82857470Y-113662591D01*
X83049303Y-113583131D01*
X83221949Y-113467773D01*
X83368773Y-113320949D01*
X83393461Y-113284000D01*
X87663278Y-113284000D01*
X87720051Y-113340773D01*
X87892697Y-113456131D01*
X88084530Y-113535591D01*
X88288180Y-113576100D01*
X88495820Y-113576100D01*
X88699470Y-113535591D01*
X88891303Y-113456131D01*
X89063949Y-113340773D01*
X89210773Y-113193949D01*
X89326131Y-113021303D01*
X89405591Y-112829470D01*
X89446100Y-112625820D01*
X89446100Y-112418180D01*
X89405591Y-112214530D01*
X89326131Y-112022697D01*
X89210773Y-111850051D01*
X89120722Y-111760000D01*
X114998057Y-111760000D01*
X115025764Y-112041309D01*
X115107818Y-112311808D01*
X115241068Y-112561101D01*
X115420392Y-112779608D01*
X115638899Y-112958932D01*
X115766741Y-113027265D01*
X115537161Y-113177399D01*
X115335500Y-113375105D01*
X115176285Y-113608354D01*
X115065633Y-113868182D01*
X115048096Y-113950961D01*
X115170085Y-114173000D01*
X116713000Y-114173000D01*
X116713000Y-114153000D01*
X116967000Y-114153000D01*
X116967000Y-114173000D01*
X118509915Y-114173000D01*
X118631904Y-113950961D01*
X118614367Y-113868182D01*
X118503715Y-113608354D01*
X118344500Y-113375105D01*
X118142839Y-113177399D01*
X117913259Y-113027265D01*
X118041101Y-112958932D01*
X118259608Y-112779608D01*
X118438932Y-112561101D01*
X118572182Y-112311808D01*
X118654236Y-112041309D01*
X118681943Y-111760000D01*
X118654236Y-111478691D01*
X118572182Y-111208192D01*
X118438932Y-110958899D01*
X118259608Y-110740392D01*
X118041101Y-110561068D01*
X117913259Y-110492735D01*
X118142839Y-110342601D01*
X118344500Y-110144895D01*
X118503715Y-109911646D01*
X118614367Y-109651818D01*
X118631904Y-109569039D01*
X118509915Y-109347000D01*
X116967000Y-109347000D01*
X116967000Y-109367000D01*
X116713000Y-109367000D01*
X116713000Y-109347000D01*
X115170085Y-109347000D01*
X115048096Y-109569039D01*
X115065633Y-109651818D01*
X115176285Y-109911646D01*
X115335500Y-110144895D01*
X115537161Y-110342601D01*
X115766741Y-110492735D01*
X115638899Y-110561068D01*
X115420392Y-110740392D01*
X115241068Y-110958899D01*
X115107818Y-111208192D01*
X115025764Y-111478691D01*
X114998057Y-111760000D01*
X89120722Y-111760000D01*
X89063949Y-111703227D01*
X88891303Y-111587869D01*
X88699470Y-111508409D01*
X88495820Y-111467900D01*
X88407806Y-111467900D01*
X88430100Y-111355820D01*
X88430100Y-111148180D01*
X88389591Y-110944530D01*
X88310131Y-110752697D01*
X88194773Y-110580051D01*
X88047949Y-110433227D01*
X87875303Y-110317869D01*
X87683470Y-110238409D01*
X87479820Y-110197900D01*
X87272180Y-110197900D01*
X87068530Y-110238409D01*
X86876697Y-110317869D01*
X86704051Y-110433227D01*
X86647278Y-110490000D01*
X83024722Y-110490000D01*
X82967949Y-110433227D01*
X82795303Y-110317869D01*
X82603470Y-110238409D01*
X82399820Y-110197900D01*
X82192180Y-110197900D01*
X81988530Y-110238409D01*
X81796697Y-110317869D01*
X81624051Y-110433227D01*
X81477227Y-110580051D01*
X81361869Y-110752697D01*
X81282409Y-110944530D01*
X81241900Y-111148180D01*
X48406049Y-111148180D01*
X48406049Y-107592180D01*
X79463900Y-107592180D01*
X79463900Y-107799820D01*
X79504409Y-108003470D01*
X79583869Y-108195303D01*
X79699227Y-108367949D01*
X79846051Y-108514773D01*
X80018697Y-108630131D01*
X80210530Y-108709591D01*
X80414180Y-108750100D01*
X80621820Y-108750100D01*
X80825470Y-108709591D01*
X81017303Y-108630131D01*
X81189949Y-108514773D01*
X81246722Y-108458000D01*
X84107278Y-108458000D01*
X84164051Y-108514773D01*
X84336697Y-108630131D01*
X84528530Y-108709591D01*
X84732180Y-108750100D01*
X84939820Y-108750100D01*
X85143470Y-108709591D01*
X85335303Y-108630131D01*
X85507949Y-108514773D01*
X85654773Y-108367949D01*
X85770131Y-108195303D01*
X85849591Y-108003470D01*
X85890100Y-107799820D01*
X85890100Y-107592180D01*
X99275900Y-107592180D01*
X99275900Y-107799820D01*
X99316409Y-108003470D01*
X99395869Y-108195303D01*
X99511227Y-108367949D01*
X99658051Y-108514773D01*
X99830697Y-108630131D01*
X100022530Y-108709591D01*
X100226180Y-108750100D01*
X100433820Y-108750100D01*
X100637470Y-108709591D01*
X100829303Y-108630131D01*
X101001949Y-108514773D01*
X101058722Y-108458000D01*
X104173278Y-108458000D01*
X104230051Y-108514773D01*
X104402697Y-108630131D01*
X104594530Y-108709591D01*
X104798180Y-108750100D01*
X105005820Y-108750100D01*
X105209470Y-108709591D01*
X105401303Y-108630131D01*
X105573949Y-108514773D01*
X105720773Y-108367949D01*
X105836131Y-108195303D01*
X105915591Y-108003470D01*
X105956100Y-107799820D01*
X105956100Y-107592180D01*
X105915591Y-107388530D01*
X105836131Y-107196697D01*
X105724106Y-107029039D01*
X115048096Y-107029039D01*
X115065633Y-107111818D01*
X115176285Y-107371646D01*
X115335500Y-107604895D01*
X115537161Y-107802601D01*
X115762559Y-107950000D01*
X115537161Y-108097399D01*
X115335500Y-108295105D01*
X115176285Y-108528354D01*
X115065633Y-108788182D01*
X115048096Y-108870961D01*
X115170085Y-109093000D01*
X116713000Y-109093000D01*
X116713000Y-106807000D01*
X116967000Y-106807000D01*
X116967000Y-109093000D01*
X118509915Y-109093000D01*
X118631904Y-108870961D01*
X118614367Y-108788182D01*
X118503715Y-108528354D01*
X118344500Y-108295105D01*
X118142839Y-108097399D01*
X117917441Y-107950000D01*
X118142839Y-107802601D01*
X118344500Y-107604895D01*
X118503715Y-107371646D01*
X118614367Y-107111818D01*
X118631904Y-107029039D01*
X118509915Y-106807000D01*
X116967000Y-106807000D01*
X116713000Y-106807000D01*
X115170085Y-106807000D01*
X115048096Y-107029039D01*
X105724106Y-107029039D01*
X105720773Y-107024051D01*
X105573949Y-106877227D01*
X105401303Y-106761869D01*
X105209470Y-106682409D01*
X105005820Y-106641900D01*
X104798180Y-106641900D01*
X104594530Y-106682409D01*
X104402697Y-106761869D01*
X104230051Y-106877227D01*
X104173278Y-106934000D01*
X101058722Y-106934000D01*
X101001949Y-106877227D01*
X100829303Y-106761869D01*
X100637470Y-106682409D01*
X100433820Y-106641900D01*
X100226180Y-106641900D01*
X100022530Y-106682409D01*
X99830697Y-106761869D01*
X99658051Y-106877227D01*
X99511227Y-107024051D01*
X99395869Y-107196697D01*
X99316409Y-107388530D01*
X99275900Y-107592180D01*
X85890100Y-107592180D01*
X85849591Y-107388530D01*
X85770131Y-107196697D01*
X85654773Y-107024051D01*
X85507949Y-106877227D01*
X85335303Y-106761869D01*
X85143470Y-106682409D01*
X84939820Y-106641900D01*
X84732180Y-106641900D01*
X84528530Y-106682409D01*
X84336697Y-106761869D01*
X84164051Y-106877227D01*
X84107278Y-106934000D01*
X81246722Y-106934000D01*
X81189949Y-106877227D01*
X81017303Y-106761869D01*
X80825470Y-106682409D01*
X80621820Y-106641900D01*
X80414180Y-106641900D01*
X80210530Y-106682409D01*
X80018697Y-106761869D01*
X79846051Y-106877227D01*
X79699227Y-107024051D01*
X79583869Y-107196697D01*
X79504409Y-107388530D01*
X79463900Y-107592180D01*
X48406049Y-107592180D01*
X48406049Y-105782588D01*
X55509414Y-105782588D01*
X55600272Y-106048603D01*
X55752713Y-106319160D01*
X55955008Y-106554779D01*
X56199383Y-106746405D01*
X56476447Y-106886674D01*
X56775553Y-106970195D01*
X57023000Y-106835169D01*
X57023000Y-105537000D01*
X57277000Y-105537000D01*
X57277000Y-106835169D01*
X57524447Y-106970195D01*
X57823553Y-106886674D01*
X58100617Y-106746405D01*
X58344992Y-106554779D01*
X58547287Y-106319160D01*
X58699728Y-106048603D01*
X58790586Y-105782588D01*
X75829414Y-105782588D01*
X75920272Y-106048603D01*
X76072713Y-106319160D01*
X76275008Y-106554779D01*
X76519383Y-106746405D01*
X76796447Y-106886674D01*
X77095553Y-106970195D01*
X77343000Y-106835169D01*
X77343000Y-105537000D01*
X77597000Y-105537000D01*
X77597000Y-106835169D01*
X77844447Y-106970195D01*
X78143553Y-106886674D01*
X78420617Y-106746405D01*
X78664992Y-106554779D01*
X78857155Y-106330961D01*
X115048096Y-106330961D01*
X115170085Y-106553000D01*
X116713000Y-106553000D01*
X116713000Y-105245000D01*
X116967000Y-105245000D01*
X116967000Y-106553000D01*
X118509915Y-106553000D01*
X118631904Y-106330961D01*
X118614367Y-106248182D01*
X118503715Y-105988354D01*
X118344500Y-105755105D01*
X118142839Y-105557399D01*
X117906483Y-105402834D01*
X117644514Y-105297350D01*
X117367000Y-105245000D01*
X116967000Y-105245000D01*
X116713000Y-105245000D01*
X116313000Y-105245000D01*
X116035486Y-105297350D01*
X115773517Y-105402834D01*
X115537161Y-105557399D01*
X115335500Y-105755105D01*
X115176285Y-105988354D01*
X115065633Y-106248182D01*
X115048096Y-106330961D01*
X78857155Y-106330961D01*
X78867287Y-106319160D01*
X79019728Y-106048603D01*
X79110586Y-105782588D01*
X78990584Y-105537000D01*
X77597000Y-105537000D01*
X77343000Y-105537000D01*
X75949416Y-105537000D01*
X75829414Y-105782588D01*
X58790586Y-105782588D01*
X58670584Y-105537000D01*
X57277000Y-105537000D01*
X57023000Y-105537000D01*
X55629416Y-105537000D01*
X55509414Y-105782588D01*
X48406049Y-105782588D01*
X48406049Y-85090000D01*
X55457331Y-85090000D01*
X55487934Y-85400714D01*
X55578566Y-85699488D01*
X55725744Y-85974839D01*
X55923813Y-86216187D01*
X56099050Y-86360000D01*
X55923813Y-86503813D01*
X55725744Y-86745161D01*
X55578566Y-87020512D01*
X55487934Y-87319286D01*
X55457331Y-87630000D01*
X55487934Y-87940714D01*
X55578566Y-88239488D01*
X55725744Y-88514839D01*
X55923813Y-88756187D01*
X56099050Y-88900000D01*
X55923813Y-89043813D01*
X55725744Y-89285161D01*
X55578566Y-89560512D01*
X55487934Y-89859286D01*
X55457331Y-90170000D01*
X55487934Y-90480714D01*
X55578566Y-90779488D01*
X55725744Y-91054839D01*
X55923813Y-91296187D01*
X56099050Y-91440000D01*
X55923813Y-91583813D01*
X55725744Y-91825161D01*
X55578566Y-92100512D01*
X55487934Y-92399286D01*
X55457331Y-92710000D01*
X55487934Y-93020714D01*
X55578566Y-93319488D01*
X55725744Y-93594839D01*
X55923813Y-93836187D01*
X56099050Y-93980000D01*
X55923813Y-94123813D01*
X55725744Y-94365161D01*
X55578566Y-94640512D01*
X55487934Y-94939286D01*
X55457331Y-95250000D01*
X55487934Y-95560714D01*
X55578566Y-95859488D01*
X55725744Y-96134839D01*
X55923813Y-96376187D01*
X56099050Y-96520000D01*
X55923813Y-96663813D01*
X55725744Y-96905161D01*
X55578566Y-97180512D01*
X55487934Y-97479286D01*
X55457331Y-97790000D01*
X55487934Y-98100714D01*
X55578566Y-98399488D01*
X55725744Y-98674839D01*
X55923813Y-98916187D01*
X56099050Y-99060000D01*
X55923813Y-99203813D01*
X55725744Y-99445161D01*
X55578566Y-99720512D01*
X55487934Y-100019286D01*
X55457331Y-100330000D01*
X55487934Y-100640714D01*
X55578566Y-100939488D01*
X55725744Y-101214839D01*
X55923813Y-101456187D01*
X56099050Y-101600000D01*
X55923813Y-101743813D01*
X55725744Y-101985161D01*
X55578566Y-102260512D01*
X55487934Y-102559286D01*
X55457331Y-102870000D01*
X55487934Y-103180714D01*
X55578566Y-103479488D01*
X55725744Y-103754839D01*
X55923813Y-103996187D01*
X56106696Y-104146275D01*
X55955008Y-104265221D01*
X55752713Y-104500840D01*
X55600272Y-104771397D01*
X55509414Y-105037412D01*
X55629416Y-105283000D01*
X57023000Y-105283000D01*
X57023000Y-105263000D01*
X57277000Y-105263000D01*
X57277000Y-105283000D01*
X58670584Y-105283000D01*
X58790586Y-105037412D01*
X58699728Y-104771397D01*
X58547287Y-104500840D01*
X58344992Y-104265221D01*
X58193304Y-104146275D01*
X58376187Y-103996187D01*
X58574256Y-103754839D01*
X58721434Y-103479488D01*
X58812066Y-103180714D01*
X58842669Y-102870000D01*
X58812066Y-102559286D01*
X58721434Y-102260512D01*
X58574256Y-101985161D01*
X58376187Y-101743813D01*
X58200950Y-101600000D01*
X58376187Y-101456187D01*
X58574256Y-101214839D01*
X58721434Y-100939488D01*
X58812066Y-100640714D01*
X58842669Y-100330000D01*
X58812066Y-100019286D01*
X58721434Y-99720512D01*
X58574256Y-99445161D01*
X58376187Y-99203813D01*
X58200950Y-99060000D01*
X58376187Y-98916187D01*
X58574256Y-98674839D01*
X58721434Y-98399488D01*
X58812066Y-98100714D01*
X58842669Y-97790000D01*
X58812066Y-97479286D01*
X58721434Y-97180512D01*
X58574256Y-96905161D01*
X58376187Y-96663813D01*
X58200950Y-96520000D01*
X58376187Y-96376187D01*
X58574256Y-96134839D01*
X58721434Y-95859488D01*
X58812066Y-95560714D01*
X58842669Y-95250000D01*
X58812066Y-94939286D01*
X58721434Y-94640512D01*
X58574256Y-94365161D01*
X58376187Y-94123813D01*
X58200950Y-93980000D01*
X58376187Y-93836187D01*
X58574256Y-93594839D01*
X58721434Y-93319488D01*
X58812066Y-93020714D01*
X58842669Y-92710000D01*
X58812066Y-92399286D01*
X58721434Y-92100512D01*
X58574256Y-91825161D01*
X58376187Y-91583813D01*
X58200950Y-91440000D01*
X58376187Y-91296187D01*
X58574256Y-91054839D01*
X58721434Y-90779488D01*
X58812066Y-90480714D01*
X58842669Y-90170000D01*
X58812066Y-89859286D01*
X58721434Y-89560512D01*
X58574256Y-89285161D01*
X58376187Y-89043813D01*
X58200950Y-88900000D01*
X58376187Y-88756187D01*
X58574256Y-88514839D01*
X58721434Y-88239488D01*
X58812066Y-87940714D01*
X58842669Y-87630000D01*
X58812066Y-87319286D01*
X58721434Y-87020512D01*
X58574256Y-86745161D01*
X58376187Y-86503813D01*
X58200950Y-86360000D01*
X58376187Y-86216187D01*
X58574256Y-85974839D01*
X58721434Y-85699488D01*
X58812066Y-85400714D01*
X58842669Y-85090000D01*
X58812066Y-84779286D01*
X58721434Y-84480512D01*
X58574256Y-84205161D01*
X58468617Y-84076440D01*
X58554494Y-84030537D01*
X58651185Y-83951185D01*
X58730537Y-83854494D01*
X58789502Y-83744180D01*
X58825812Y-83624482D01*
X58838072Y-83500000D01*
X58838072Y-82550000D01*
X75777331Y-82550000D01*
X75807934Y-82860714D01*
X75898566Y-83159488D01*
X76045744Y-83434839D01*
X76243813Y-83676187D01*
X76419050Y-83820000D01*
X76243813Y-83963813D01*
X76045744Y-84205161D01*
X75898566Y-84480512D01*
X75807934Y-84779286D01*
X75777331Y-85090000D01*
X75807934Y-85400714D01*
X75898566Y-85699488D01*
X76045744Y-85974839D01*
X76243813Y-86216187D01*
X76419050Y-86360000D01*
X76243813Y-86503813D01*
X76045744Y-86745161D01*
X75898566Y-87020512D01*
X75807934Y-87319286D01*
X75777331Y-87630000D01*
X75807934Y-87940714D01*
X75898566Y-88239488D01*
X76045744Y-88514839D01*
X76243813Y-88756187D01*
X76419050Y-88900000D01*
X76243813Y-89043813D01*
X76045744Y-89285161D01*
X75898566Y-89560512D01*
X75807934Y-89859286D01*
X75777331Y-90170000D01*
X75807934Y-90480714D01*
X75898566Y-90779488D01*
X76045744Y-91054839D01*
X76243813Y-91296187D01*
X76419050Y-91440000D01*
X76243813Y-91583813D01*
X76045744Y-91825161D01*
X75898566Y-92100512D01*
X75807934Y-92399286D01*
X75777331Y-92710000D01*
X75807934Y-93020714D01*
X75898566Y-93319488D01*
X76045744Y-93594839D01*
X76243813Y-93836187D01*
X76419050Y-93980000D01*
X76243813Y-94123813D01*
X76045744Y-94365161D01*
X75898566Y-94640512D01*
X75807934Y-94939286D01*
X75777331Y-95250000D01*
X75807934Y-95560714D01*
X75898566Y-95859488D01*
X76045744Y-96134839D01*
X76243813Y-96376187D01*
X76419050Y-96520000D01*
X76243813Y-96663813D01*
X76045744Y-96905161D01*
X75898566Y-97180512D01*
X75807934Y-97479286D01*
X75777331Y-97790000D01*
X75807934Y-98100714D01*
X75898566Y-98399488D01*
X76045744Y-98674839D01*
X76243813Y-98916187D01*
X76419050Y-99060000D01*
X76243813Y-99203813D01*
X76045744Y-99445161D01*
X75898566Y-99720512D01*
X75807934Y-100019286D01*
X75777331Y-100330000D01*
X75807934Y-100640714D01*
X75898566Y-100939488D01*
X76045744Y-101214839D01*
X76243813Y-101456187D01*
X76419050Y-101600000D01*
X76243813Y-101743813D01*
X76045744Y-101985161D01*
X75898566Y-102260512D01*
X75807934Y-102559286D01*
X75777331Y-102870000D01*
X75807934Y-103180714D01*
X75898566Y-103479488D01*
X76045744Y-103754839D01*
X76243813Y-103996187D01*
X76426696Y-104146275D01*
X76275008Y-104265221D01*
X76072713Y-104500840D01*
X75920272Y-104771397D01*
X75829414Y-105037412D01*
X75949416Y-105283000D01*
X77343000Y-105283000D01*
X77343000Y-105263000D01*
X77597000Y-105263000D01*
X77597000Y-105283000D01*
X78990584Y-105283000D01*
X79110586Y-105037412D01*
X79019728Y-104771397D01*
X78867287Y-104500840D01*
X78664992Y-104265221D01*
X78513304Y-104146275D01*
X78696187Y-103996187D01*
X78894256Y-103754839D01*
X79041434Y-103479488D01*
X79132066Y-103180714D01*
X79162669Y-102870000D01*
X79132066Y-102559286D01*
X79041434Y-102260512D01*
X78894256Y-101985161D01*
X78696187Y-101743813D01*
X78520950Y-101600000D01*
X78696187Y-101456187D01*
X78894256Y-101214839D01*
X79041434Y-100939488D01*
X79132066Y-100640714D01*
X79162669Y-100330000D01*
X79132066Y-100019286D01*
X79041434Y-99720512D01*
X78894256Y-99445161D01*
X78696187Y-99203813D01*
X78520950Y-99060000D01*
X78696187Y-98916187D01*
X78698195Y-98913740D01*
X117895000Y-98913740D01*
X117895000Y-99206260D01*
X117952068Y-99493158D01*
X118064010Y-99763411D01*
X118226525Y-100006632D01*
X118433368Y-100213475D01*
X118676589Y-100375990D01*
X118946842Y-100487932D01*
X119233740Y-100545000D01*
X119526260Y-100545000D01*
X119813158Y-100487932D01*
X120083411Y-100375990D01*
X120326632Y-100213475D01*
X120458487Y-100081620D01*
X120480498Y-100154180D01*
X120539463Y-100264494D01*
X120618815Y-100361185D01*
X120715506Y-100440537D01*
X120825820Y-100499502D01*
X120945518Y-100535812D01*
X121070000Y-100548072D01*
X122770000Y-100548072D01*
X122894482Y-100535812D01*
X123014180Y-100499502D01*
X123124494Y-100440537D01*
X123221185Y-100361185D01*
X123300537Y-100264494D01*
X123359502Y-100154180D01*
X123395812Y-100034482D01*
X123408072Y-99910000D01*
X123408072Y-98913740D01*
X133135000Y-98913740D01*
X133135000Y-99206260D01*
X133192068Y-99493158D01*
X133304010Y-99763411D01*
X133466525Y-100006632D01*
X133673368Y-100213475D01*
X133916589Y-100375990D01*
X134186842Y-100487932D01*
X134473740Y-100545000D01*
X134766260Y-100545000D01*
X135053158Y-100487932D01*
X135323411Y-100375990D01*
X135566632Y-100213475D01*
X135698487Y-100081620D01*
X135720498Y-100154180D01*
X135779463Y-100264494D01*
X135858815Y-100361185D01*
X135955506Y-100440537D01*
X136065820Y-100499502D01*
X136185518Y-100535812D01*
X136310000Y-100548072D01*
X138010000Y-100548072D01*
X138134482Y-100535812D01*
X138254180Y-100499502D01*
X138364494Y-100440537D01*
X138461185Y-100361185D01*
X138540537Y-100264494D01*
X138599502Y-100154180D01*
X138635812Y-100034482D01*
X138648072Y-99910000D01*
X138648072Y-98913740D01*
X148375000Y-98913740D01*
X148375000Y-99206260D01*
X148432068Y-99493158D01*
X148544010Y-99763411D01*
X148706525Y-100006632D01*
X148913368Y-100213475D01*
X149156589Y-100375990D01*
X149426842Y-100487932D01*
X149713740Y-100545000D01*
X150006260Y-100545000D01*
X150293158Y-100487932D01*
X150563411Y-100375990D01*
X150806632Y-100213475D01*
X150938487Y-100081620D01*
X150960498Y-100154180D01*
X151019463Y-100264494D01*
X151098815Y-100361185D01*
X151195506Y-100440537D01*
X151305820Y-100499502D01*
X151425518Y-100535812D01*
X151550000Y-100548072D01*
X153250000Y-100548072D01*
X153374482Y-100535812D01*
X153494180Y-100499502D01*
X153604494Y-100440537D01*
X153701185Y-100361185D01*
X153780537Y-100264494D01*
X153839502Y-100154180D01*
X153875812Y-100034482D01*
X153888072Y-99910000D01*
X153888072Y-98913740D01*
X163615000Y-98913740D01*
X163615000Y-99206260D01*
X163672068Y-99493158D01*
X163784010Y-99763411D01*
X163946525Y-100006632D01*
X164153368Y-100213475D01*
X164396589Y-100375990D01*
X164666842Y-100487932D01*
X164953740Y-100545000D01*
X165246260Y-100545000D01*
X165533158Y-100487932D01*
X165803411Y-100375990D01*
X166046632Y-100213475D01*
X166178487Y-100081620D01*
X166200498Y-100154180D01*
X166259463Y-100264494D01*
X166338815Y-100361185D01*
X166435506Y-100440537D01*
X166545820Y-100499502D01*
X166665518Y-100535812D01*
X166790000Y-100548072D01*
X168490000Y-100548072D01*
X168614482Y-100535812D01*
X168734180Y-100499502D01*
X168844494Y-100440537D01*
X168941185Y-100361185D01*
X169020537Y-100264494D01*
X169079502Y-100154180D01*
X169115812Y-100034482D01*
X169128072Y-99910000D01*
X169128072Y-98210000D01*
X169115812Y-98085518D01*
X169079502Y-97965820D01*
X169020537Y-97855506D01*
X168941185Y-97758815D01*
X168844494Y-97679463D01*
X168734180Y-97620498D01*
X168614482Y-97584188D01*
X168490000Y-97571928D01*
X166790000Y-97571928D01*
X166665518Y-97584188D01*
X166545820Y-97620498D01*
X166435506Y-97679463D01*
X166338815Y-97758815D01*
X166259463Y-97855506D01*
X166200498Y-97965820D01*
X166178487Y-98038380D01*
X166046632Y-97906525D01*
X165803411Y-97744010D01*
X165533158Y-97632068D01*
X165246260Y-97575000D01*
X164953740Y-97575000D01*
X164666842Y-97632068D01*
X164396589Y-97744010D01*
X164153368Y-97906525D01*
X163946525Y-98113368D01*
X163784010Y-98356589D01*
X163672068Y-98626842D01*
X163615000Y-98913740D01*
X153888072Y-98913740D01*
X153888072Y-98210000D01*
X153875812Y-98085518D01*
X153839502Y-97965820D01*
X153780537Y-97855506D01*
X153701185Y-97758815D01*
X153604494Y-97679463D01*
X153494180Y-97620498D01*
X153374482Y-97584188D01*
X153250000Y-97571928D01*
X151550000Y-97571928D01*
X151425518Y-97584188D01*
X151305820Y-97620498D01*
X151195506Y-97679463D01*
X151098815Y-97758815D01*
X151019463Y-97855506D01*
X150960498Y-97965820D01*
X150938487Y-98038380D01*
X150806632Y-97906525D01*
X150563411Y-97744010D01*
X150293158Y-97632068D01*
X150006260Y-97575000D01*
X149713740Y-97575000D01*
X149426842Y-97632068D01*
X149156589Y-97744010D01*
X148913368Y-97906525D01*
X148706525Y-98113368D01*
X148544010Y-98356589D01*
X148432068Y-98626842D01*
X148375000Y-98913740D01*
X138648072Y-98913740D01*
X138648072Y-98210000D01*
X138635812Y-98085518D01*
X138599502Y-97965820D01*
X138540537Y-97855506D01*
X138461185Y-97758815D01*
X138364494Y-97679463D01*
X138254180Y-97620498D01*
X138134482Y-97584188D01*
X138010000Y-97571928D01*
X136310000Y-97571928D01*
X136185518Y-97584188D01*
X136065820Y-97620498D01*
X135955506Y-97679463D01*
X135858815Y-97758815D01*
X135779463Y-97855506D01*
X135720498Y-97965820D01*
X135698487Y-98038380D01*
X135566632Y-97906525D01*
X135323411Y-97744010D01*
X135053158Y-97632068D01*
X134766260Y-97575000D01*
X134473740Y-97575000D01*
X134186842Y-97632068D01*
X133916589Y-97744010D01*
X133673368Y-97906525D01*
X133466525Y-98113368D01*
X133304010Y-98356589D01*
X133192068Y-98626842D01*
X133135000Y-98913740D01*
X123408072Y-98913740D01*
X123408072Y-98210000D01*
X123395812Y-98085518D01*
X123359502Y-97965820D01*
X123300537Y-97855506D01*
X123221185Y-97758815D01*
X123124494Y-97679463D01*
X123014180Y-97620498D01*
X122894482Y-97584188D01*
X122770000Y-97571928D01*
X121070000Y-97571928D01*
X120945518Y-97584188D01*
X120825820Y-97620498D01*
X120715506Y-97679463D01*
X120618815Y-97758815D01*
X120539463Y-97855506D01*
X120480498Y-97965820D01*
X120458487Y-98038380D01*
X120326632Y-97906525D01*
X120083411Y-97744010D01*
X119813158Y-97632068D01*
X119526260Y-97575000D01*
X119233740Y-97575000D01*
X118946842Y-97632068D01*
X118676589Y-97744010D01*
X118433368Y-97906525D01*
X118226525Y-98113368D01*
X118064010Y-98356589D01*
X117952068Y-98626842D01*
X117895000Y-98913740D01*
X78698195Y-98913740D01*
X78894256Y-98674839D01*
X79041434Y-98399488D01*
X79132066Y-98100714D01*
X79162669Y-97790000D01*
X79132066Y-97479286D01*
X79041434Y-97180512D01*
X78894256Y-96905161D01*
X78696187Y-96663813D01*
X78520950Y-96520000D01*
X78696187Y-96376187D01*
X78894256Y-96134839D01*
X79041434Y-95859488D01*
X79132066Y-95560714D01*
X79135368Y-95527180D01*
X89496900Y-95527180D01*
X89496900Y-95734820D01*
X89537409Y-95938470D01*
X89616869Y-96130303D01*
X89732227Y-96302949D01*
X89879051Y-96449773D01*
X90051697Y-96565131D01*
X90243530Y-96644591D01*
X90447180Y-96685100D01*
X90654820Y-96685100D01*
X90858470Y-96644591D01*
X91050303Y-96565131D01*
X91222949Y-96449773D01*
X91279722Y-96393000D01*
X91656577Y-96393000D01*
X91694000Y-96396686D01*
X91731423Y-96393000D01*
X91731426Y-96393000D01*
X91843378Y-96381974D01*
X91987015Y-96338402D01*
X92119392Y-96267645D01*
X92235422Y-96172422D01*
X92259284Y-96143346D01*
X92860531Y-95542100D01*
X92940820Y-95542100D01*
X93144470Y-95501591D01*
X93336303Y-95422131D01*
X93508949Y-95306773D01*
X93655773Y-95159949D01*
X93771131Y-94987303D01*
X93850591Y-94795470D01*
X93891100Y-94591820D01*
X93891100Y-94384180D01*
X93850591Y-94180530D01*
X93829736Y-94130180D01*
X94576900Y-94130180D01*
X94576900Y-94337820D01*
X94617409Y-94541470D01*
X94696869Y-94733303D01*
X94812227Y-94905949D01*
X94959051Y-95052773D01*
X95131697Y-95168131D01*
X95323530Y-95247591D01*
X95527180Y-95288100D01*
X95734820Y-95288100D01*
X95938470Y-95247591D01*
X96130303Y-95168131D01*
X96302949Y-95052773D01*
X96449773Y-94905949D01*
X96565131Y-94733303D01*
X96644591Y-94541470D01*
X96685100Y-94337820D01*
X96685100Y-94130180D01*
X96644591Y-93926530D01*
X96641811Y-93919819D01*
X96769545Y-93792085D01*
X96816227Y-93861949D01*
X96963051Y-94008773D01*
X97135697Y-94124131D01*
X97327530Y-94203591D01*
X97531180Y-94244100D01*
X97611470Y-94244100D01*
X99129721Y-95762352D01*
X99153578Y-95791422D01*
X99182648Y-95815279D01*
X99269607Y-95886645D01*
X99335657Y-95921949D01*
X99401985Y-95957402D01*
X99545622Y-96000974D01*
X99657574Y-96012000D01*
X99657577Y-96012000D01*
X99695000Y-96015686D01*
X99732423Y-96012000D01*
X102141278Y-96012000D01*
X102198051Y-96068773D01*
X102370697Y-96184131D01*
X102562530Y-96263591D01*
X102766180Y-96304100D01*
X102973820Y-96304100D01*
X103177470Y-96263591D01*
X103369303Y-96184131D01*
X103541949Y-96068773D01*
X103598722Y-96012000D01*
X105951278Y-96012000D01*
X106008051Y-96068773D01*
X106180697Y-96184131D01*
X106372530Y-96263591D01*
X106576180Y-96304100D01*
X106783820Y-96304100D01*
X106987470Y-96263591D01*
X107179303Y-96184131D01*
X107351949Y-96068773D01*
X107498773Y-95921949D01*
X107614131Y-95749303D01*
X107693591Y-95557470D01*
X107734100Y-95353820D01*
X107734100Y-95146180D01*
X107693591Y-94942530D01*
X107614131Y-94750697D01*
X107498773Y-94578051D01*
X107351949Y-94431227D01*
X107179303Y-94315869D01*
X106987470Y-94236409D01*
X106783820Y-94195900D01*
X106610310Y-94195900D01*
X106677591Y-94033470D01*
X106718100Y-93829820D01*
X106718100Y-93622180D01*
X106677591Y-93418530D01*
X106598131Y-93226697D01*
X106482773Y-93054051D01*
X106335949Y-92907227D01*
X106163303Y-92791869D01*
X105971470Y-92712409D01*
X105767820Y-92671900D01*
X105560180Y-92671900D01*
X105356530Y-92712409D01*
X105164697Y-92791869D01*
X104992051Y-92907227D01*
X104935278Y-92964000D01*
X103979722Y-92964000D01*
X103922949Y-92907227D01*
X103750303Y-92791869D01*
X103558470Y-92712409D01*
X103354820Y-92671900D01*
X103147180Y-92671900D01*
X102943530Y-92712409D01*
X102751697Y-92791869D01*
X102579051Y-92907227D01*
X102432227Y-93054051D01*
X102316869Y-93226697D01*
X102237409Y-93418530D01*
X102196900Y-93622180D01*
X102196900Y-93829820D01*
X102237409Y-94033470D01*
X102316869Y-94225303D01*
X102375934Y-94313700D01*
X102370697Y-94315869D01*
X102198051Y-94431227D01*
X102141278Y-94488000D01*
X100010631Y-94488000D01*
X99540731Y-94018100D01*
X99671820Y-94018100D01*
X99875470Y-93977591D01*
X100067303Y-93898131D01*
X100239949Y-93782773D01*
X100386773Y-93635949D01*
X100502131Y-93463303D01*
X100581591Y-93271470D01*
X100622100Y-93067820D01*
X100622100Y-92860180D01*
X100581591Y-92656530D01*
X100578887Y-92650000D01*
X184316928Y-92650000D01*
X184316928Y-95650000D01*
X184329188Y-95774482D01*
X184365498Y-95894180D01*
X184424463Y-96004494D01*
X184503815Y-96101185D01*
X184600506Y-96180537D01*
X184710820Y-96239502D01*
X184830518Y-96275812D01*
X184955000Y-96288072D01*
X187955000Y-96288072D01*
X188079482Y-96275812D01*
X188199180Y-96239502D01*
X188309494Y-96180537D01*
X188406185Y-96101185D01*
X188485537Y-96004494D01*
X188544502Y-95894180D01*
X188580812Y-95774482D01*
X188593072Y-95650000D01*
X188593072Y-92650000D01*
X202566928Y-92650000D01*
X202566928Y-95650000D01*
X202579188Y-95774482D01*
X202615498Y-95894180D01*
X202674463Y-96004494D01*
X202753815Y-96101185D01*
X202850506Y-96180537D01*
X202960820Y-96239502D01*
X203080518Y-96275812D01*
X203205000Y-96288072D01*
X206205000Y-96288072D01*
X206329482Y-96275812D01*
X206449180Y-96239502D01*
X206559494Y-96180537D01*
X206656185Y-96101185D01*
X206735537Y-96004494D01*
X206794502Y-95894180D01*
X206830812Y-95774482D01*
X206843072Y-95650000D01*
X206843072Y-92650000D01*
X206830812Y-92525518D01*
X206794502Y-92405820D01*
X206735537Y-92295506D01*
X206656185Y-92198815D01*
X206559494Y-92119463D01*
X206449180Y-92060498D01*
X206329482Y-92024188D01*
X206205000Y-92011928D01*
X203205000Y-92011928D01*
X203080518Y-92024188D01*
X202960820Y-92060498D01*
X202850506Y-92119463D01*
X202753815Y-92198815D01*
X202674463Y-92295506D01*
X202615498Y-92405820D01*
X202579188Y-92525518D01*
X202566928Y-92650000D01*
X188593072Y-92650000D01*
X188580812Y-92525518D01*
X188544502Y-92405820D01*
X188485537Y-92295506D01*
X188406185Y-92198815D01*
X188309494Y-92119463D01*
X188199180Y-92060498D01*
X188079482Y-92024188D01*
X187955000Y-92011928D01*
X184955000Y-92011928D01*
X184830518Y-92024188D01*
X184710820Y-92060498D01*
X184600506Y-92119463D01*
X184503815Y-92198815D01*
X184424463Y-92295506D01*
X184365498Y-92405820D01*
X184329188Y-92525518D01*
X184316928Y-92650000D01*
X100578887Y-92650000D01*
X100502131Y-92464697D01*
X100386773Y-92292051D01*
X100239949Y-92145227D01*
X100067303Y-92029869D01*
X99875470Y-91950409D01*
X99671820Y-91909900D01*
X99591530Y-91909900D01*
X99371284Y-91689653D01*
X99347422Y-91660578D01*
X99231392Y-91565355D01*
X99099015Y-91494598D01*
X98955378Y-91451026D01*
X98843426Y-91440000D01*
X98843423Y-91440000D01*
X98806000Y-91436314D01*
X98768577Y-91440000D01*
X97319423Y-91440000D01*
X97282000Y-91436314D01*
X97244577Y-91440000D01*
X97244574Y-91440000D01*
X97132622Y-91451026D01*
X96988985Y-91494598D01*
X96927364Y-91527535D01*
X96856607Y-91565355D01*
X96814219Y-91600143D01*
X96740578Y-91660578D01*
X96716716Y-91689654D01*
X95118654Y-93287716D01*
X95089578Y-93311578D01*
X95059717Y-93347965D01*
X94959051Y-93415227D01*
X94812227Y-93562051D01*
X94696869Y-93734697D01*
X94617409Y-93926530D01*
X94576900Y-94130180D01*
X93829736Y-94130180D01*
X93771131Y-93988697D01*
X93655773Y-93816051D01*
X93508949Y-93669227D01*
X93336303Y-93553869D01*
X93144470Y-93474409D01*
X92940820Y-93433900D01*
X92733180Y-93433900D01*
X92529530Y-93474409D01*
X92337697Y-93553869D01*
X92165051Y-93669227D01*
X92018227Y-93816051D01*
X91902869Y-93988697D01*
X91823409Y-94180530D01*
X91782900Y-94384180D01*
X91782900Y-94464469D01*
X91378370Y-94869000D01*
X91279722Y-94869000D01*
X91222949Y-94812227D01*
X91050303Y-94696869D01*
X90858470Y-94617409D01*
X90654820Y-94576900D01*
X90447180Y-94576900D01*
X90243530Y-94617409D01*
X90051697Y-94696869D01*
X89879051Y-94812227D01*
X89732227Y-94959051D01*
X89616869Y-95131697D01*
X89537409Y-95323530D01*
X89496900Y-95527180D01*
X79135368Y-95527180D01*
X79162669Y-95250000D01*
X79132066Y-94939286D01*
X79041434Y-94640512D01*
X78894256Y-94365161D01*
X78696187Y-94123813D01*
X78520950Y-93980000D01*
X78696187Y-93836187D01*
X78894256Y-93594839D01*
X79041434Y-93319488D01*
X79132066Y-93020714D01*
X79162669Y-92710000D01*
X79132066Y-92399286D01*
X79041434Y-92100512D01*
X78894256Y-91825161D01*
X78696187Y-91583813D01*
X78520950Y-91440000D01*
X78696187Y-91296187D01*
X78894256Y-91054839D01*
X79041434Y-90779488D01*
X79132066Y-90480714D01*
X79162669Y-90170000D01*
X79132066Y-89859286D01*
X79041434Y-89560512D01*
X78894256Y-89285161D01*
X78696187Y-89043813D01*
X78520950Y-88900000D01*
X78696187Y-88756187D01*
X78894256Y-88514839D01*
X79041434Y-88239488D01*
X79132066Y-87940714D01*
X79162669Y-87630000D01*
X79132066Y-87319286D01*
X79041434Y-87020512D01*
X78894256Y-86745161D01*
X78696187Y-86503813D01*
X78520950Y-86360000D01*
X78696187Y-86216187D01*
X78894256Y-85974839D01*
X79041434Y-85699488D01*
X79132066Y-85400714D01*
X79156759Y-85150000D01*
X184316928Y-85150000D01*
X184329188Y-85274482D01*
X184365498Y-85394180D01*
X184424463Y-85504494D01*
X184503815Y-85601185D01*
X184600506Y-85680537D01*
X184710820Y-85739502D01*
X184830518Y-85775812D01*
X184955000Y-85788072D01*
X186169250Y-85785000D01*
X186328000Y-85626250D01*
X186328000Y-83777000D01*
X186582000Y-83777000D01*
X186582000Y-85626250D01*
X186740750Y-85785000D01*
X187955000Y-85788072D01*
X188079482Y-85775812D01*
X188199180Y-85739502D01*
X188309494Y-85680537D01*
X188406185Y-85601185D01*
X188485537Y-85504494D01*
X188544502Y-85394180D01*
X188580812Y-85274482D01*
X188593072Y-85150000D01*
X202566928Y-85150000D01*
X202579188Y-85274482D01*
X202615498Y-85394180D01*
X202674463Y-85504494D01*
X202753815Y-85601185D01*
X202850506Y-85680537D01*
X202960820Y-85739502D01*
X203080518Y-85775812D01*
X203205000Y-85788072D01*
X204419250Y-85785000D01*
X204578000Y-85626250D01*
X204578000Y-83777000D01*
X204832000Y-83777000D01*
X204832000Y-85626250D01*
X204990750Y-85785000D01*
X206205000Y-85788072D01*
X206329482Y-85775812D01*
X206449180Y-85739502D01*
X206559494Y-85680537D01*
X206656185Y-85601185D01*
X206735537Y-85504494D01*
X206794502Y-85394180D01*
X206830812Y-85274482D01*
X206843072Y-85150000D01*
X206840000Y-83935750D01*
X206681250Y-83777000D01*
X204832000Y-83777000D01*
X204578000Y-83777000D01*
X202728750Y-83777000D01*
X202570000Y-83935750D01*
X202566928Y-85150000D01*
X188593072Y-85150000D01*
X188590000Y-83935750D01*
X188431250Y-83777000D01*
X186582000Y-83777000D01*
X186328000Y-83777000D01*
X184478750Y-83777000D01*
X184320000Y-83935750D01*
X184316928Y-85150000D01*
X79156759Y-85150000D01*
X79162669Y-85090000D01*
X79132066Y-84779286D01*
X79041434Y-84480512D01*
X78894256Y-84205161D01*
X78696187Y-83963813D01*
X78520950Y-83820000D01*
X78696187Y-83676187D01*
X78894256Y-83434839D01*
X79041434Y-83159488D01*
X79132066Y-82860714D01*
X79162669Y-82550000D01*
X79132066Y-82239286D01*
X79104982Y-82150000D01*
X184316928Y-82150000D01*
X184320000Y-83364250D01*
X184478750Y-83523000D01*
X186328000Y-83523000D01*
X186328000Y-81673750D01*
X186582000Y-81673750D01*
X186582000Y-83523000D01*
X188431250Y-83523000D01*
X188590000Y-83364250D01*
X188593072Y-82150000D01*
X202566928Y-82150000D01*
X202570000Y-83364250D01*
X202728750Y-83523000D01*
X204578000Y-83523000D01*
X204578000Y-81673750D01*
X204832000Y-81673750D01*
X204832000Y-83523000D01*
X206681250Y-83523000D01*
X206840000Y-83364250D01*
X206843072Y-82150000D01*
X206830812Y-82025518D01*
X206794502Y-81905820D01*
X206735537Y-81795506D01*
X206656185Y-81698815D01*
X206559494Y-81619463D01*
X206449180Y-81560498D01*
X206329482Y-81524188D01*
X206205000Y-81511928D01*
X204990750Y-81515000D01*
X204832000Y-81673750D01*
X204578000Y-81673750D01*
X204419250Y-81515000D01*
X203205000Y-81511928D01*
X203080518Y-81524188D01*
X202960820Y-81560498D01*
X202850506Y-81619463D01*
X202753815Y-81698815D01*
X202674463Y-81795506D01*
X202615498Y-81905820D01*
X202579188Y-82025518D01*
X202566928Y-82150000D01*
X188593072Y-82150000D01*
X188580812Y-82025518D01*
X188544502Y-81905820D01*
X188485537Y-81795506D01*
X188406185Y-81698815D01*
X188309494Y-81619463D01*
X188199180Y-81560498D01*
X188079482Y-81524188D01*
X187955000Y-81511928D01*
X186740750Y-81515000D01*
X186582000Y-81673750D01*
X186328000Y-81673750D01*
X186169250Y-81515000D01*
X184955000Y-81511928D01*
X184830518Y-81524188D01*
X184710820Y-81560498D01*
X184600506Y-81619463D01*
X184503815Y-81698815D01*
X184424463Y-81795506D01*
X184365498Y-81905820D01*
X184329188Y-82025518D01*
X184316928Y-82150000D01*
X79104982Y-82150000D01*
X79041434Y-81940512D01*
X78894256Y-81665161D01*
X78696187Y-81423813D01*
X78454839Y-81225744D01*
X78179488Y-81078566D01*
X77880714Y-80987934D01*
X77647864Y-80965000D01*
X77292136Y-80965000D01*
X77059286Y-80987934D01*
X76760512Y-81078566D01*
X76485161Y-81225744D01*
X76243813Y-81423813D01*
X76045744Y-81665161D01*
X75898566Y-81940512D01*
X75807934Y-82239286D01*
X75777331Y-82550000D01*
X58838072Y-82550000D01*
X58838072Y-81600000D01*
X58825812Y-81475518D01*
X58789502Y-81355820D01*
X58730537Y-81245506D01*
X58651185Y-81148815D01*
X58554494Y-81069463D01*
X58444180Y-81010498D01*
X58324482Y-80974188D01*
X58200000Y-80961928D01*
X56100000Y-80961928D01*
X55975518Y-80974188D01*
X55855820Y-81010498D01*
X55745506Y-81069463D01*
X55648815Y-81148815D01*
X55569463Y-81245506D01*
X55510498Y-81355820D01*
X55474188Y-81475518D01*
X55461928Y-81600000D01*
X55461928Y-83500000D01*
X55474188Y-83624482D01*
X55510498Y-83744180D01*
X55569463Y-83854494D01*
X55648815Y-83951185D01*
X55745506Y-84030537D01*
X55831383Y-84076440D01*
X55725744Y-84205161D01*
X55578566Y-84480512D01*
X55487934Y-84779286D01*
X55457331Y-85090000D01*
X48406049Y-85090000D01*
X48406049Y-78213968D01*
X48951606Y-78064936D01*
X48971807Y-78057432D01*
X48992741Y-78052298D01*
X49065758Y-78022531D01*
X49065769Y-78022527D01*
X49065773Y-78022525D01*
X49881097Y-77634004D01*
X49899654Y-77623038D01*
X49919343Y-77614281D01*
X49985945Y-77572049D01*
X50719585Y-77045284D01*
X50735903Y-77031209D01*
X50753735Y-77019100D01*
X50811805Y-76965741D01*
X51440568Y-76317385D01*
X51454139Y-76300639D01*
X51469541Y-76285567D01*
X51517245Y-76222768D01*
X52021257Y-75473315D01*
X52031650Y-75454427D01*
X52044137Y-75436869D01*
X52079967Y-75366615D01*
X52443296Y-74539753D01*
X52450177Y-74519332D01*
X52459362Y-74499831D01*
X52482184Y-74424343D01*
X52573150Y-74046054D01*
X205478136Y-74046052D01*
X205627168Y-74591610D01*
G37*
G04 #@! TD.AperFunction*
M02*
