G04 #@! TF.GenerationSoftware,KiCad,Pcbnew,(5.1.9)-1*
G04 #@! TF.CreationDate,2021-03-13T10:24:33-05:00*
G04 #@! TF.ProjectId,Aquarium_Dosing_Pump_Controller,41717561-7269-4756-9d5f-446f73696e67,rev?*
G04 #@! TF.SameCoordinates,Original*
G04 #@! TF.FileFunction,Soldermask,Bot*
G04 #@! TF.FilePolarity,Negative*
%FSLAX46Y46*%
G04 Gerber Fmt 4.6, Leading zero omitted, Abs format (unit mm)*
G04 Created by KiCad (PCBNEW (5.1.9)-1) date 2021-03-13 10:24:33*
%MOMM*%
%LPD*%
G01*
G04 APERTURE LIST*
%ADD10O,2.100000X1.900000*%
%ADD11R,2.100000X1.900000*%
%ADD12R,3.000000X3.000000*%
%ADD13O,2.400000X1.600000*%
%ADD14R,2.400000X1.600000*%
%ADD15O,1.700000X1.700000*%
%ADD16R,1.700000X1.700000*%
%ADD17R,3.500000X3.500000*%
G04 APERTURE END LIST*
D10*
X77470000Y-105410000D03*
X57150000Y-105410000D03*
X77470000Y-102870000D03*
X57150000Y-102870000D03*
X77470000Y-100330000D03*
X57150000Y-100330000D03*
X77470000Y-97790000D03*
X57150000Y-97790000D03*
X77470000Y-95250000D03*
X57150000Y-95250000D03*
X77470000Y-92710000D03*
X57150000Y-92710000D03*
X77470000Y-90170000D03*
X57150000Y-90170000D03*
X77470000Y-87630000D03*
X57150000Y-87630000D03*
X77470000Y-85090000D03*
X57150000Y-85090000D03*
X77470000Y-82550000D03*
D11*
X57150000Y-82550000D03*
D12*
X204705000Y-94150000D03*
X204705000Y-83650000D03*
X186455000Y-94150000D03*
X186455000Y-83650000D03*
D13*
X147320000Y-114300000D03*
X154940000Y-106680000D03*
X147320000Y-111760000D03*
X154940000Y-109220000D03*
X147320000Y-109220000D03*
X154940000Y-111760000D03*
X147320000Y-106680000D03*
D14*
X154940000Y-114300000D03*
D13*
X132080000Y-114300000D03*
X139700000Y-106680000D03*
X132080000Y-111760000D03*
X139700000Y-109220000D03*
X132080000Y-109220000D03*
X139700000Y-111760000D03*
X132080000Y-106680000D03*
D14*
X139700000Y-114300000D03*
D13*
X116840000Y-114300000D03*
X124460000Y-106680000D03*
X116840000Y-111760000D03*
X124460000Y-109220000D03*
X116840000Y-109220000D03*
X124460000Y-111760000D03*
X116840000Y-106680000D03*
D14*
X124460000Y-114300000D03*
D13*
X162560000Y-114300000D03*
X170180000Y-106680000D03*
X162560000Y-111760000D03*
X170180000Y-109220000D03*
X162560000Y-109220000D03*
X170180000Y-111760000D03*
X162560000Y-106680000D03*
D14*
X170180000Y-114300000D03*
D15*
X149860000Y-99060000D03*
D16*
X152400000Y-99060000D03*
D15*
X134620000Y-99060000D03*
D16*
X137160000Y-99060000D03*
D15*
X119380000Y-99060000D03*
D16*
X121920000Y-99060000D03*
D15*
X165100000Y-99060000D03*
D16*
X167640000Y-99060000D03*
G36*
G01*
X200330000Y-101105000D02*
X200330000Y-102855000D01*
G75*
G02*
X199455000Y-103730000I-875000J0D01*
G01*
X197705000Y-103730000D01*
G75*
G02*
X196830000Y-102855000I0J875000D01*
G01*
X196830000Y-101105000D01*
G75*
G02*
X197705000Y-100230000I875000J0D01*
G01*
X199455000Y-100230000D01*
G75*
G02*
X200330000Y-101105000I0J-875000D01*
G01*
G37*
G36*
G01*
X203080000Y-105680000D02*
X203080000Y-107680000D01*
G75*
G02*
X202330000Y-108430000I-750000J0D01*
G01*
X200830000Y-108430000D01*
G75*
G02*
X200080000Y-107680000I0J750000D01*
G01*
X200080000Y-105680000D01*
G75*
G02*
X200830000Y-104930000I750000J0D01*
G01*
X202330000Y-104930000D01*
G75*
G02*
X203080000Y-105680000I0J-750000D01*
G01*
G37*
D17*
X195580000Y-106680000D03*
M02*
